<svg width="508" height="1039" viewBox="0 0 508 1039" fill="none" xmlns="http://www.w3.org/2000/svg">
<path d="M16.8945 447.823C-177.518 -432.08 1418.39 183.823 896.394 616.323L59.5586 408.358C64.8598 433.113 115.836 895.626 16.8945 447.823Z" fill="#5C5CFF"/>
<path d="M617 330.5C460.167 236.333 755.545 302.331 699.5 198C687.704 176.042 46.9951 160.274 31.4874 159.528C31.4916 159.519 31.4958 159.509 31.5 159.5C31.1027 159.5 31.1049 159.509 31.4874 159.528C-62.4804 366.005 156.494 417.511 13 674H517L617 330.5Z" fill="#5C5CFF"/>
<path d="M306.5 934.5C206.699 698.025 -43.5 830 12 673L509 667L1083 853C902.5 932.5 408 1175 306.5 934.5Z" fill="#5C5CFF"/>
</svg>
