<svg width="130" height="51" viewBox="0 0 130 51" fill="none" xmlns="http://www.w3.org/2000/svg">
<g filter="url(#filter0_d_120_8)">
<path d="M116.852 9H13.1481C10.8572 9 9 10.8468 9 13.125V37.875C9 40.1532 10.8572 42 13.1481 42H116.852C119.143 42 121 40.1532 121 37.875V13.125C121 10.8468 119.143 9 116.852 9Z" fill="black"/>
<path d="M116.852 9.66C117.776 9.66 118.662 10.0251 119.316 10.6749C119.969 11.3247 120.336 12.206 120.336 13.125V37.875C120.336 38.794 119.969 39.6753 119.316 40.3251C118.662 40.9749 117.776 41.34 116.852 41.34H13.1481C12.224 41.34 11.3377 40.9749 10.6843 40.3251C10.0308 39.6753 9.6637 38.794 9.6637 37.875V13.125C9.6637 12.206 10.0308 11.3247 10.6843 10.6749C11.3377 10.0251 12.224 9.66 13.1481 9.66H116.852ZM116.852 9H13.1481C12.048 9 10.9929 9.4346 10.215 10.2082C9.43704 10.9818 9 12.031 9 13.125V37.875C9 38.969 9.43704 40.0182 10.215 40.7918C10.9929 41.5654 12.048 42 13.1481 42H116.852C117.952 42 119.007 41.5654 119.785 40.7918C120.563 40.0182 121 38.969 121 37.875V13.125C121 12.031 120.563 10.9818 119.785 10.2082C119.007 9.4346 117.952 9 116.852 9Z" fill="#A6A6A6"/>
<path d="M65.4692 26.1943C64.7773 26.1978 64.1018 26.4206 63.528 26.8347C62.9543 27.2487 62.5079 27.8354 62.2454 28.5208C61.9828 29.2061 61.9158 29.9593 62.0528 30.6853C62.1898 31.4114 62.5247 32.0777 63.0151 32.6003C63.5055 33.1228 64.1296 33.4781 64.8085 33.6213C65.4874 33.7645 66.1907 33.6893 66.8297 33.405C67.4687 33.1208 68.0147 32.6403 68.3988 32.0241C68.7829 31.408 68.9879 30.6839 68.9879 29.9432C68.9946 29.4474 68.9081 28.9553 68.7334 28.496C68.5587 28.0368 68.2995 27.6198 67.9712 27.2701C67.6429 26.9203 67.2522 26.6448 66.8224 26.46C66.3925 26.2752 65.9323 26.1848 65.4692 26.1943ZM65.4692 32.219C65.0437 32.2509 64.619 32.145 64.2504 31.915C63.8819 31.6851 63.5864 31.3418 63.4025 30.9298C63.2186 30.5177 63.1548 30.056 63.2193 29.6046C63.2838 29.1532 63.4737 28.7331 63.7642 28.3987C64.0548 28.0644 64.4326 27.8313 64.8485 27.7299C65.2645 27.6284 65.6993 27.6632 66.0965 27.8298C66.4937 27.9964 66.8349 28.287 67.0757 28.6639C67.3165 29.0408 67.4459 29.4866 67.4469 29.9432C67.4602 30.2326 67.4192 30.5218 67.3264 30.7939C67.2336 31.066 67.0908 31.3155 66.9065 31.5276C66.7221 31.7397 66.5 31.9102 66.2532 32.0289C66.0063 32.1477 65.7398 32.2123 65.4692 32.219ZM57.7974 26.1943C57.1051 26.1961 56.4288 26.4174 55.8539 26.8304C55.2791 27.2434 54.8315 27.8295 54.5677 28.5147C54.3039 29.1999 54.2357 29.9534 54.3717 30.68C54.5078 31.4066 54.842 32.0738 55.3321 32.5972C55.8222 33.1206 56.4463 33.4768 57.1254 33.6207C57.8045 33.7646 58.5083 33.6899 59.1477 33.4059C59.7872 33.1219 60.3337 32.6414 60.7181 32.0251C61.1026 31.4088 61.3078 30.6843 61.3078 29.9432C61.3145 29.4474 61.228 28.9553 61.0533 28.496C60.8787 28.0368 60.6194 27.6198 60.2911 27.2701C59.9628 26.9203 59.5721 26.6448 59.1423 26.46C58.7125 26.2752 58.2523 26.1848 57.7891 26.1943H57.7974ZM57.7974 32.219C57.3716 32.2527 56.9463 32.1483 56.5767 31.9196C56.2071 31.6908 55.9104 31.3483 55.7252 30.9365C55.54 30.5248 55.4749 30.0629 55.5384 29.611C55.6019 29.1591 55.791 28.7381 56.0812 28.4028C56.3713 28.0676 56.749 27.8336 57.1651 27.7313C57.5812 27.6291 58.0164 27.6633 58.4141 27.8295C58.8117 27.9957 59.1535 28.2862 59.3947 28.6632C59.636 29.0402 59.7657 29.4862 59.7668 29.9432C59.7801 30.2326 59.7391 30.5218 59.6463 30.7939C59.5535 31.066 59.4107 31.3155 59.2264 31.5276C59.0421 31.7397 58.8199 31.9102 58.5731 32.0289C58.3262 32.1477 58.0597 32.2123 57.7891 32.219H57.7974ZM48.6587 27.3499V28.9376H52.2186C52.1628 29.6855 51.8724 30.3911 51.3946 30.94C51.0384 31.3283 50.6103 31.6325 50.1377 31.8331C49.6651 32.0336 49.1585 32.126 48.6505 32.1043C47.6015 32.1043 46.5954 31.6583 45.8536 30.8642C45.1118 30.0702 44.6951 28.9932 44.6951 27.8703C44.6951 26.7474 45.1118 25.6704 45.8536 24.8764C46.5954 24.0824 47.6015 23.6363 48.6505 23.6363C49.654 23.6188 50.6231 24.028 51.3451 24.7742L52.3917 23.6539C51.9042 23.1256 51.3227 22.7073 50.6815 22.424C50.0402 22.1407 49.3524 21.998 48.6587 22.0044C47.9262 21.9739 47.1954 22.102 46.5102 22.381C45.8249 22.6601 45.1994 23.0843 44.671 23.6283C44.1426 24.1724 43.7223 24.825 43.4351 25.5471C43.148 26.2691 43 27.0458 43 27.8306C43 28.6154 43.148 29.3921 43.4351 30.1142C43.7223 30.8363 44.1426 31.4889 44.671 32.0329C45.1994 32.5769 45.8249 33.0011 46.5102 33.2802C47.1954 33.5592 47.9262 33.6873 48.6587 33.6568C49.3641 33.6909 50.0681 33.5629 50.7233 33.2815C51.3786 33 51.9699 32.5715 52.4576 32.025C53.3209 31.0096 53.7819 29.6749 53.7431 28.3025C53.7457 27.9682 53.7182 27.6344 53.6607 27.3058L48.6587 27.3499ZM85.9961 28.5848C85.7812 27.908 85.3793 27.317 84.8437 26.8902C84.3081 26.4633 83.6639 26.2206 82.9966 26.1943C82.5459 26.1934 82.0997 26.2914 81.6857 26.4824C81.2718 26.6733 80.8988 26.9531 80.5899 27.3045C80.281 27.6558 80.0426 28.0713 79.8896 28.5252C79.7367 28.979 79.6723 29.4617 79.7004 29.9432C79.6904 30.4362 79.7733 30.9263 79.9442 31.3843C80.1151 31.8422 80.3705 32.2586 80.6951 32.6085C81.0197 32.9584 81.4068 33.2347 81.8334 33.4209C82.26 33.6071 82.7173 33.6993 83.1779 33.6921C83.7543 33.6954 84.3225 33.5457 84.8316 33.2563C85.3407 32.9669 85.7748 32.5468 86.095 32.0338L84.9001 31.1517C84.7218 31.4699 84.4693 31.7332 84.1674 31.9156C83.8656 32.0981 83.5246 32.1935 83.1779 32.1925C82.8209 32.2071 82.4682 32.1064 82.1654 31.9034C81.8627 31.7005 81.624 31.4048 81.4804 31.0547L86.1692 28.9817L85.9961 28.5848ZM81.2167 29.8374C81.2 29.5645 81.2343 29.2909 81.3176 29.0324C81.401 28.7739 81.5316 28.5359 81.702 28.3322C81.8724 28.1284 82.079 27.9632 82.3098 27.846C82.5406 27.7288 82.7909 27.6621 83.046 27.6498C83.3119 27.631 83.577 27.6963 83.8084 27.8374C84.0399 27.9786 84.2275 28.1894 84.348 28.4437L81.2167 29.8374ZM77.4096 33.4716H78.9506V22.4455H77.4096V33.4716ZM74.888 27.0323H74.8303C74.5981 26.7544 74.3136 26.5321 73.9955 26.3801C73.6774 26.2281 73.3329 26.1497 72.9845 26.1502C72.084 26.197 71.2348 26.6128 70.6129 27.3116C69.991 28.0103 69.6441 28.9384 69.6441 29.9035C69.6441 30.8686 69.991 31.7967 70.6129 32.4955C71.2348 33.1942 72.084 33.6101 72.9845 33.6568C73.3337 33.6631 73.6799 33.5874 73.9988 33.435C74.3177 33.2826 74.6016 33.0572 74.8303 32.7747H74.8798V33.3128C74.8798 34.7506 74.1629 35.518 73.0092 35.518C72.625 35.5084 72.2521 35.3766 71.9381 35.1394C71.624 34.9022 71.383 34.5703 71.2458 34.1861L69.9026 34.7859C70.1554 35.4442 70.5862 36.0067 71.1397 36.4012C71.6933 36.7957 72.3442 37.0042 73.0092 36.9999C74.8139 36.9999 76.3054 35.862 76.3054 33.0923V26.4149H74.888V27.0323ZM73.1246 32.219C72.593 32.1689 72.0983 31.9074 71.7379 31.4861C71.3776 31.0649 71.1777 30.5144 71.1777 29.9432C71.1777 29.372 71.3776 28.8215 71.7379 28.4003C72.0983 27.979 72.593 27.7176 73.1246 27.6674C73.3881 27.6819 73.6463 27.7527 73.8839 27.8756C74.1215 27.9986 74.3337 28.1712 74.508 28.3832C74.6823 28.5953 74.8152 28.8426 74.8989 29.1105C74.9826 29.3784 75.0153 29.6616 74.9951 29.9432C75.0176 30.2261 74.9863 30.5109 74.903 30.7805C74.8197 31.05 74.6862 31.2987 74.5106 31.5114C74.335 31.7241 74.1208 31.8965 73.8812 32.0181C73.6416 32.1398 73.3814 32.2081 73.1163 32.219H73.1246ZM93.2147 22.4455H89.5313V33.4716H91.0722V29.2905H93.223C93.6621 29.3242 94.1031 29.2608 94.5184 29.1041C94.9336 28.9474 95.3143 28.7008 95.6366 28.3797C95.9589 28.0586 96.216 27.6698 96.3917 27.2377C96.5675 26.8056 96.6582 26.3393 96.6582 25.868C96.6582 25.3966 96.5675 24.9304 96.3917 24.4982C96.216 24.0661 95.9589 23.6773 95.6366 23.3562C95.3143 23.0351 94.9336 22.7885 94.5184 22.6318C94.1031 22.4751 93.6621 22.4117 93.223 22.4455H93.2147ZM93.2147 27.738H91.064V23.9803H93.2477C93.7165 23.9803 94.1661 24.1796 94.4976 24.5345C94.829 24.8893 95.0153 25.3706 95.0153 25.8724C95.0153 26.3742 94.829 26.8554 94.4976 27.2103C94.1661 27.5651 93.7165 27.7645 93.2477 27.7645L93.2147 27.738ZM102.716 26.1502C102.155 26.1143 101.596 26.2547 101.109 26.554C100.621 26.8533 100.226 27.2986 99.9719 27.835L101.34 28.4437C101.475 28.1776 101.679 27.9592 101.928 27.8151C102.176 27.671 102.459 27.6075 102.741 27.6321C102.936 27.6077 103.134 27.6252 103.324 27.6836C103.513 27.742 103.689 27.8402 103.843 27.9724C103.996 28.1046 104.124 28.2681 104.217 28.4536C104.311 28.639 104.369 28.8425 104.389 29.0523V29.167C103.894 28.8865 103.342 28.741 102.782 28.7436C101.307 28.7436 99.8153 29.6257 99.8153 31.2222C99.8299 31.5627 99.908 31.8965 100.045 32.2041C100.182 32.5116 100.376 32.7866 100.614 33.0127C100.852 33.2389 101.13 33.4116 101.432 33.5207C101.733 33.6298 102.052 33.6731 102.37 33.648C102.758 33.6778 103.146 33.5953 103.494 33.409C103.842 33.2228 104.137 32.9397 104.348 32.5895H104.397V33.4716H105.88V29.2287C105.88 27.2969 104.512 26.1767 102.757 26.1767L102.716 26.1502ZM102.526 32.1925C102.024 32.1925 101.323 31.9191 101.323 31.2575C101.323 30.3754 102.197 30.0844 102.971 30.0844C103.461 30.0714 103.945 30.1994 104.372 30.4548C104.321 30.9324 104.11 31.3739 103.778 31.6981C103.446 32.0223 103.017 32.2073 102.568 32.219L102.526 32.1925ZM111.286 26.4149L109.523 31.1958H109.473L107.644 26.4149H105.996L108.74 33.1011L107.174 36.8147H108.781L113 26.4149H111.286ZM97.4338 33.4716H98.9748V22.4455H97.4338V33.4716Z" fill="white"/>
<path d="M19.3946 15.0559C19.1172 15.368 18.9771 15.7676 19.003 16.1732V33.8268C18.9771 34.2324 19.1172 34.632 19.3946 34.9441L19.4542 35L30 25.1197V24.8883L19.4542 15L19.3946 15.0559Z" fill="url(#paint0_linear_120_8)"/>
<path d="M33.2315 29L30 25.6227V25.3855L33.2315 22L33.3025 22.0409L37.1724 24.3224C38.2759 24.9685 38.2759 26.0315 37.1724 26.6857L33.3182 28.9591L33.2315 29Z" fill="url(#paint1_linear_120_8)"/>
<path d="M32.9916 28.608L29.4518 25L19 35.6531C19.2394 35.8675 19.5447 35.9901 19.8633 35.9994C20.1819 36.0088 20.4937 35.9044 20.7448 35.7044L33 28.608" fill="url(#paint2_linear_120_8)"/>
<path d="M33 21.72L20.7448 15.2688C20.4937 15.0869 20.1819 14.992 19.8633 15.0005C19.5447 15.009 19.2394 15.1204 19 15.3154L29.4602 25L33 21.72Z" fill="url(#paint3_linear_120_8)"/>
<path opacity="0.2" d="M32.8993 29L20.7374 35.6189C20.4951 35.7921 20.2006 35.8857 19.8981 35.8857C19.5955 35.8857 19.3011 35.7921 19.0588 35.6189L19 35.6751L19.0588 35.7312C19.3005 35.9056 19.5952 36 19.8981 36C20.201 36 20.4956 35.9056 20.7374 35.7312L33 29.0722L32.8993 29Z" fill="black"/>
<path opacity="0.12" d="M19.3826 34.8797C19.1136 34.5661 18.9778 34.1646 19.003 33.757V33.8773C18.9778 34.2848 19.1136 34.6864 19.3826 35L19.4403 34.9439L19.3826 34.8797ZM37.1748 26.0425L33.0486 28.3119L33.1228 28.3841L37.1748 26.1548C37.4047 26.0498 37.602 25.8878 37.7469 25.685C37.8918 25.4823 37.9791 25.246 38 25C37.9536 25.2235 37.8551 25.4337 37.712 25.6144C37.569 25.7951 37.3852 25.9416 37.1748 26.0425Z" fill="black"/>
<path opacity="0.25" d="M21.0955 15.3687L37.175 23.9886C37.3853 24.0865 37.5691 24.2286 37.7121 24.4039C37.8551 24.5793 37.9536 24.7832 38 25C37.9791 24.7613 37.8918 24.5321 37.747 24.3354C37.6021 24.1387 37.4048 23.9815 37.175 23.8797L21.0955 15.2598C19.9405 14.6452 19 15.1587 19 16.4034V16.5201C19.0248 15.2676 19.9488 14.7541 21.0955 15.3687Z" fill="white"/>
<path d="M43 19.8811V14.4054H44.5381C44.877 14.3887 45.2154 14.4472 45.533 14.5774C45.8505 14.7076 46.1406 14.9068 46.3856 15.1629C46.6169 15.425 46.797 15.7357 46.9148 16.0761C47.0326 16.4166 47.0858 16.7797 47.0711 17.1433C47.0847 17.5075 47.0302 17.8709 46.9109 18.2114C46.7916 18.5519 46.61 18.8623 46.3772 19.1236C46.1322 19.3797 45.8422 19.5789 45.5246 19.7091C45.2071 19.8393 44.8686 19.8978 44.5298 19.8811H43ZM43.6437 19.2058H44.5298C44.7816 19.2201 45.0334 19.179 45.2704 19.0849C45.5073 18.9908 45.7245 18.8457 45.9091 18.6582C46.0842 18.457 46.2198 18.2188 46.3075 17.9583C46.3952 17.6977 46.4332 17.4204 46.419 17.1433C46.4405 16.8673 46.4066 16.5895 46.3198 16.3293C46.233 16.069 46.0953 15.8325 45.9163 15.6363C45.7373 15.44 45.5213 15.2886 45.2833 15.1927C45.0453 15.0968 44.791 15.0586 44.5381 15.0808H43.6437V19.2058ZM47.9822 19.8811V14.4054H48.6259V19.8811H47.9822ZM51.1839 19.9997C50.7988 19.9922 50.4251 19.8552 50.1139 19.6073C49.7677 19.349 49.5231 18.9581 49.4284 18.5122L50.0136 18.2566C50.0807 18.5511 50.2296 18.8157 50.4399 19.0141C50.6409 19.2144 50.9034 19.3252 51.1756 19.3244C51.4326 19.3337 51.6852 19.2503 51.8945 19.0871C51.991 19.0139 52.0692 18.9153 52.1218 18.8005C52.1743 18.6857 52.1997 18.5583 52.1954 18.43C52.2007 18.2951 52.1761 18.1608 52.1238 18.0385C52.0714 17.9161 51.9927 17.8094 51.8945 17.7273C51.6059 17.5151 51.2865 17.3578 50.9499 17.2619C50.5752 17.1522 50.229 16.9492 49.9384 16.6687C49.8271 16.5502 49.7393 16.4081 49.6804 16.2512C49.6214 16.0942 49.5926 15.9257 49.5956 15.7561C49.5959 15.5624 49.6341 15.371 49.7076 15.1947C49.7811 15.0185 49.8883 14.8614 50.022 14.734C50.3258 14.4347 50.7249 14.2774 51.1338 14.2959C51.5056 14.2775 51.8718 14.4 52.1704 14.6427C52.4088 14.8327 52.5894 15.0966 52.6886 15.4002L52.1035 15.6648C52.0523 15.4707 51.9435 15.3005 51.7942 15.1811C51.6079 15.0348 51.3842 14.9561 51.1547 14.9561C50.9252 14.9561 50.7015 15.0348 50.5152 15.1811C50.4335 15.2457 50.3672 15.3309 50.3221 15.4294C50.277 15.5279 50.2543 15.6368 50.256 15.747C50.2557 15.8485 50.2775 15.9486 50.3196 16.039C50.3618 16.1295 50.4231 16.2077 50.4985 16.2671C50.714 16.4352 50.9544 16.5617 51.209 16.6413C51.4193 16.7141 51.6258 16.7994 51.8276 16.8968C52.0048 16.9871 52.1729 17.0972 52.3292 17.2254C52.4946 17.354 52.627 17.5269 52.7137 17.7273C52.8055 17.9478 52.8512 18.1879 52.8475 18.43C52.8516 18.6772 52.7999 18.9217 52.697 19.1419C52.6032 19.3402 52.4652 19.5097 52.2957 19.6347C52.1315 19.7578 51.9511 19.8532 51.7607 19.9176C51.5731 19.9754 51.3788 20.0031 51.1839 19.9997ZM54.4191 19.8811H53.7754V14.4054H55.4473C55.8563 14.3997 56.2515 14.5664 56.5507 14.8709C56.6987 15.0196 56.8167 15.2002 56.8975 15.4012C56.9783 15.6023 57.02 15.8194 57.02 16.039C57.02 16.2585 56.9783 16.4757 56.8975 16.6768C56.8167 16.8778 56.6987 17.0584 56.5507 17.2071C56.252 17.5124 55.8564 17.6793 55.4473 17.6726H54.4191V19.8811ZM54.4191 16.9881H55.5058C55.628 16.9931 55.7498 16.9686 55.8625 16.9166C55.9751 16.8646 56.0759 16.7862 56.1578 16.6869C56.2387 16.6018 56.3031 16.4998 56.347 16.3869C56.391 16.274 56.4136 16.1525 56.4136 16.0299C56.4136 15.9072 56.391 15.7858 56.347 15.6729C56.3031 15.56 56.2387 15.4579 56.1578 15.3728C56.0759 15.2736 55.9751 15.1952 55.8625 15.1431C55.7498 15.0911 55.628 15.0667 55.5058 15.0716H54.4191V16.9881ZM61.9426 19.1693C61.4539 19.6998 60.7927 19.9976 60.1035 19.9976C59.4143 19.9976 58.7531 19.6998 58.2644 19.1693C57.7894 18.6203 57.5248 17.8938 57.5248 17.1387C57.5248 16.3836 57.7894 15.657 58.2644 15.1081C58.5053 14.8432 58.7918 14.633 59.1074 14.4895C59.4231 14.3461 59.7616 14.2722 60.1035 14.2722C60.4454 14.2722 60.7839 14.3461 61.0996 14.4895C61.4152 14.633 61.7017 14.8432 61.9426 15.1081C62.4195 15.656 62.6854 16.3829 62.6854 17.1387C62.6854 17.8945 62.4195 18.6214 61.9426 19.1693ZM58.7409 18.7129C59.1028 19.1064 59.5928 19.3273 60.1035 19.3273C60.6142 19.3273 61.1042 19.1064 61.4661 18.7129C61.8232 18.2831 62.0211 17.7236 62.0211 17.1433C62.0211 16.5629 61.8232 16.0034 61.4661 15.5736C61.1042 15.1801 60.6142 14.9592 60.1035 14.9592C59.5928 14.9592 59.1028 15.1801 58.7409 15.5736C58.3838 16.0034 58.1859 16.5629 58.1859 17.1433C58.1859 17.7236 58.3838 18.2831 58.7409 18.7129ZM63.6145 19.8811V14.4054H64.4003L66.8412 18.6673V14.4054H67.4849V19.8811H66.8162L64.2665 15.4184V19.8811H63.6145ZM68.6302 19.8811V14.4054H69.2738V19.8811H68.6302ZM69.2321 13.9765H68.672L69.0398 13H69.742L69.2321 13.9765ZM71.673 19.8811L69.9092 14.4054H70.6197L71.974 18.8498L73.4536 14.4054H74.1641L72.3418 19.8811H71.673ZM77.8256 15.0808H75.5351V16.8147H77.5915V17.4718H75.5351V19.2058H77.8256V19.8811H74.8998V14.4054H77.8256V15.0808ZM78.8287 19.8811V14.4054H79.4975V19.2058H81.671V19.8811H78.8287ZM84.137 19.8811V14.4054H84.9228L87.3638 18.6673V14.4054H88.0074V19.8811H87.3387L84.789 15.4184V19.8811H84.137ZM93.2572 19.1693C92.7685 19.6998 92.1073 19.9976 91.4181 19.9976C90.7289 19.9976 90.0677 19.6998 89.579 19.1693C89.104 18.6203 88.8394 17.8938 88.8394 17.1387C88.8394 16.3836 89.104 15.657 89.579 15.1081C89.8199 14.8432 90.1064 14.633 90.4221 14.4895C90.7377 14.3461 91.0762 14.2722 91.4181 14.2722C91.76 14.2722 92.0985 14.3461 92.4142 14.4895C92.7298 14.633 93.0163 14.8432 93.2572 15.1081C93.7341 15.656 94 16.3829 94 17.1387C94 17.8945 93.7341 18.6214 93.2572 19.1693ZM90.0555 18.7129C90.4174 19.1064 90.9074 19.3273 91.4181 19.3273C91.9289 19.3273 92.4188 19.1064 92.7807 18.7129C93.1379 18.2831 93.3357 17.7236 93.3357 17.1433C93.3357 16.5629 93.1379 16.0034 92.7807 15.5736C92.4188 15.1801 91.9289 14.9592 91.4181 14.9592C90.9074 14.9592 90.4174 15.1801 90.0555 15.5736C89.6984 16.0034 89.5005 16.5629 89.5005 17.1433C89.5005 17.7236 89.6984 18.2831 90.0555 18.7129Z" fill="white" stroke="white" stroke-width="0.2" stroke-miterlimit="10"/>
</g>
<defs>
<filter id="filter0_d_120_8" x="5" y="9" width="120" height="41" filterUnits="userSpaceOnUse" color-interpolation-filters="sRGB">
<feFlood flood-opacity="0" result="BackgroundImageFix"/>
<feColorMatrix in="SourceAlpha" type="matrix" values="0 0 0 0 0 0 0 0 0 0 0 0 0 0 0 0 0 0 127 0" result="hardAlpha"/>
<feOffset dy="4"/>
<feGaussianBlur stdDeviation="2"/>
<feComposite in2="hardAlpha" operator="out"/>
<feColorMatrix type="matrix" values="0 0 0 0 0 0 0 0 0 0 0 0 0 0 0 0 0 0 0.25 0"/>
<feBlend mode="normal" in2="BackgroundImageFix" result="effect1_dropShadow_120_8"/>
<feBlend mode="normal" in="SourceGraphic" in2="effect1_dropShadow_120_8" result="shape"/>
</filter>
<linearGradient id="paint0_linear_120_8" x1="29.0637" y1="15.9896" x2="15.6996" y2="30.2425" gradientUnits="userSpaceOnUse">
<stop stop-color="#00A0FF"/>
<stop offset="0.01" stop-color="#00A1FF"/>
<stop offset="0.26" stop-color="#00BEFF"/>
<stop offset="0.51" stop-color="#00D2FF"/>
<stop offset="0.76" stop-color="#00DFFF"/>
<stop offset="1" stop-color="#00E3FF"/>
</linearGradient>
<linearGradient id="paint1_linear_120_8" x1="38.6148" y1="25.5" x2="19.5488" y2="25.5" gradientUnits="userSpaceOnUse">
<stop stop-color="#FFE000"/>
<stop offset="0.41" stop-color="#FFBD00"/>
<stop offset="0.78" stop-color="#FFA500"/>
<stop offset="1" stop-color="#FF9C00"/>
</linearGradient>
<linearGradient id="paint2_linear_120_8" x1="31.0707" y1="26.9665" x2="11.615" y2="46.0461" gradientUnits="userSpaceOnUse">
<stop stop-color="#FF3A44"/>
<stop offset="1" stop-color="#C31162"/>
</linearGradient>
<linearGradient id="paint3_linear_120_8" x1="16.3745" y1="9.59478" x2="24.2485" y2="18.0925" gradientUnits="userSpaceOnUse">
<stop stop-color="#32A071"/>
<stop offset="0.07" stop-color="#2DA771"/>
<stop offset="0.48" stop-color="#15CF74"/>
<stop offset="0.8" stop-color="#06E775"/>
<stop offset="1" stop-color="#00F076"/>
</linearGradient>
</defs>
</svg>
