<svg width="170" height="67" viewBox="0 0 170 67" fill="none" xmlns="http://www.w3.org/2000/svg">
<path d="M152.593 12.84C153.797 12.84 154.953 13.3046 155.804 14.1317C156.656 14.9587 157.135 16.0804 157.135 17.25V48.75C157.135 49.9196 156.656 51.0413 155.804 51.8683C154.953 52.6954 153.797 53.16 152.593 53.16H17.4074C16.2027 53.16 15.0474 52.6954 14.1956 51.8683C13.3437 51.0413 12.8652 49.9196 12.8652 48.75V17.25C12.8652 16.0804 13.3437 14.9587 14.1956 14.1317C15.0474 13.3046 16.2027 12.84 17.4074 12.84H152.593ZM152.593 12H17.4074C15.9733 12 14.5979 12.5531 13.5838 13.5377C12.5697 14.5223 12 15.8576 12 17.25V48.75C12 50.1424 12.5697 51.4777 13.5838 52.4623C14.5979 53.4469 15.9733 54 17.4074 54H152.593C154.027 54 155.402 53.4469 156.416 52.4623C157.43 51.4777 158 50.1424 158 48.75V17.25C158 15.8576 157.43 14.5223 156.416 13.5377C155.402 12.5531 154.027 12 152.593 12Z" fill="white"/>
<path d="M85.21 34.5924C84.3104 34.5971 83.4323 34.8942 82.6864 35.4463C81.9405 35.9983 81.3603 36.7806 81.019 37.6944C80.6777 38.6081 80.5906 39.6124 80.7687 40.5805C80.9468 41.5485 81.3821 42.437 82.0196 43.1337C82.6572 43.8304 83.4685 44.3041 84.351 44.4951C85.2336 44.686 86.1479 44.5857 86.9786 44.2067C87.8093 43.8277 88.5191 43.187 89.0184 42.3655C89.5177 41.544 89.7842 40.5786 89.7842 39.591C89.793 38.9299 89.6805 38.2737 89.4534 37.6614C89.2263 37.049 88.8894 36.4931 88.4626 36.0267C88.0358 35.5603 87.5279 35.193 86.9691 34.9466C86.4103 34.7002 85.812 34.5798 85.21 34.5924ZM85.21 42.6253C84.6568 42.6678 84.1047 42.5266 83.6256 42.22C83.1464 41.9135 82.7623 41.4558 82.5233 40.9064C82.2842 40.357 82.2012 39.7414 82.2851 39.1395C82.369 38.5377 82.6158 37.9774 82.9935 37.5316C83.3712 37.0858 83.8624 36.7751 84.4031 36.6398C84.9438 36.5045 85.509 36.551 86.0254 36.7731C86.5418 36.9952 86.9853 37.3827 87.2984 37.8852C87.6115 38.3878 87.7796 38.9821 87.781 39.591C87.7982 39.9767 87.745 40.3624 87.6243 40.7252C87.5036 41.088 87.318 41.4207 87.0784 41.7035C86.8388 41.9863 86.55 42.2136 86.2291 42.3719C85.9082 42.5302 85.5617 42.6164 85.21 42.6253ZM75.2366 34.5924C74.3366 34.5948 73.4574 34.8899 72.7101 35.4406C71.9628 35.9912 71.3809 36.7727 71.038 37.6862C70.695 38.5998 70.6064 39.6045 70.7833 40.5733C70.9601 41.5421 71.3946 42.4317 72.0317 43.1296C72.6689 43.8275 73.4801 44.3023 74.363 44.4943C75.2459 44.6862 76.1608 44.5865 76.9921 44.2078C77.8234 43.8292 78.5338 43.1885 79.0336 42.3668C79.5334 41.545 79.8001 40.5791 79.8001 39.591C79.8089 38.9299 79.6964 38.2737 79.4693 37.6614C79.2422 37.049 78.9053 36.4931 78.4785 36.0267C78.0517 35.5603 77.5438 35.193 76.985 34.9466C76.4262 34.7002 75.8279 34.5798 75.2259 34.5924H75.2366ZM75.2366 42.6253C74.6831 42.6702 74.1301 42.5311 73.6497 42.2261C73.1692 41.9211 72.7835 41.4644 72.5428 40.9154C72.302 40.3664 72.2174 39.7505 72.3 39.1479C72.3825 38.5454 72.6283 37.9841 73.0055 37.5371C73.3827 37.0901 73.8737 36.7781 74.4146 36.6418C74.9555 36.5054 75.5213 36.551 76.0383 36.7726C76.5553 36.9942 76.9995 37.3816 77.3132 37.8843C77.6268 38.3869 77.7954 38.9816 77.7969 39.591C77.8141 39.9767 77.7609 40.3624 77.6402 40.7252C77.5195 41.088 77.3339 41.4207 77.0943 41.7035C76.8547 41.9863 76.5659 42.2136 76.245 42.3719C75.9241 42.5302 75.5776 42.6164 75.2259 42.6253H75.2366ZM63.3564 36.1332V38.2502H67.9842C67.9116 39.2473 67.5341 40.1882 66.9129 40.92C66.4499 41.4377 65.8933 41.8434 65.279 42.1107C64.6646 42.3781 64.006 42.5013 63.3457 42.4725C61.9819 42.4725 60.674 41.8777 59.7097 40.819C58.7454 39.7602 58.2036 38.3243 58.2036 36.8271C58.2036 35.3298 58.7454 33.8939 59.7097 32.8352C60.674 31.7765 61.9819 31.1817 63.3457 31.1817C64.6502 31.1583 65.91 31.704 66.8487 32.6989L68.2092 31.2052C67.5755 30.5008 66.8195 29.9431 65.9859 29.5653C65.1523 29.1875 64.2581 28.9973 63.3564 29.0059C62.404 28.9652 61.454 29.136 60.5632 29.508C59.6724 29.8801 58.8592 30.4458 58.1723 31.1711C57.4854 31.8965 56.9389 32.7666 56.5657 33.7294C56.1924 34.6922 56 35.7278 56 36.7742C56 37.8205 56.1924 38.8561 56.5657 39.8189C56.9389 40.7817 57.4854 41.6518 58.1723 42.3772C58.8592 43.1025 59.6724 43.6682 60.5632 44.0403C61.454 44.4123 62.404 44.5831 63.3564 44.5424C64.2733 44.5879 65.1885 44.4173 66.0403 44.042C66.8922 43.6666 67.6609 43.0954 68.2949 42.3666C69.4172 41.0128 70.0164 39.2331 69.966 37.4034C69.9695 36.9576 69.9336 36.5125 69.8589 36.0744L63.3564 36.1332ZM111.895 37.7797C111.616 36.8773 111.093 36.0894 110.397 35.5202C109.7 34.9511 108.863 34.6275 107.996 34.5924C107.41 34.5912 106.83 34.7219 106.291 34.9765C105.753 35.2311 105.268 35.6042 104.867 36.0726C104.465 36.5411 104.155 37.0951 103.957 37.7002C103.758 38.3054 103.674 38.9489 103.711 39.591C103.698 40.2483 103.805 40.9018 104.027 41.5124C104.25 42.123 104.582 42.6781 105.004 43.1447C105.426 43.6113 105.929 43.9797 106.483 44.2279C107.038 44.4761 107.632 44.5991 108.231 44.5895C108.981 44.5939 109.719 44.3942 110.381 44.0084C111.043 43.6225 111.607 43.0624 112.023 42.3784L110.47 41.2022C110.238 41.6266 109.91 41.9775 109.518 42.2208C109.125 42.4641 108.682 42.5913 108.231 42.5901C107.767 42.6095 107.309 42.4752 106.915 42.2046C106.521 41.934 106.211 41.5397 106.024 41.0729L112.12 38.309L111.895 37.7797ZM105.682 39.4498C105.66 39.086 105.705 38.7212 105.813 38.3765C105.921 38.0319 106.091 37.7145 106.313 37.4429C106.534 37.1713 106.803 36.9509 107.103 36.7946C107.403 36.6384 107.728 36.5495 108.06 36.533C108.405 36.508 108.75 36.595 109.051 36.7832C109.352 36.9714 109.596 37.2525 109.752 37.5916L105.682 39.4498ZM100.732 44.2954H102.736V29.5939H100.732V44.2954ZM97.4544 35.7098H97.3794C97.0775 35.3392 96.7077 35.0428 96.2941 34.8401C95.8806 34.6374 95.4327 34.533 94.9798 34.5336C93.8091 34.596 92.7052 35.1504 91.8967 36.0821C91.0883 37.0138 90.6373 38.2512 90.6373 39.538C90.6373 40.8248 91.0883 42.0623 91.8967 42.994C92.7052 43.9256 93.8091 44.4801 94.9798 44.5424C95.4338 44.5508 95.8839 44.4498 96.2985 44.2466C96.7131 44.0434 97.082 43.7429 97.3794 43.3663H97.4437V44.0837C97.4437 46.0008 96.5117 47.024 95.012 47.024C94.5125 47.0112 94.0277 46.8355 93.6195 46.5192C93.2112 46.2029 92.8979 45.7605 92.7195 45.2481L90.9733 46.0479C91.302 46.9257 91.8621 47.6756 92.5816 48.2016C93.3012 48.7276 94.1475 49.0056 95.012 48.9999C97.358 48.9999 99.297 47.4827 99.297 43.7897V34.8865H97.4544V35.7098ZM95.1619 42.6253C94.4709 42.5585 93.8278 42.2099 93.3593 41.6482C92.8908 41.0865 92.631 40.3526 92.631 39.591C92.631 38.8294 92.8908 38.0954 93.3593 37.5337C93.8278 36.9721 94.4709 36.6234 95.1619 36.5566C95.5046 36.5759 95.8402 36.6703 96.1491 36.8342C96.4579 36.9981 96.7338 37.2282 96.9604 37.511C97.187 37.7938 97.3598 38.1235 97.4686 38.4807C97.5773 38.8379 97.6199 39.2154 97.5937 39.591C97.6229 39.9681 97.5822 40.3479 97.4739 40.7073C97.3656 41.0667 97.1921 41.3982 96.9638 41.6818C96.7354 41.9655 96.4571 42.1954 96.1456 42.3575C95.834 42.5197 95.4958 42.6108 95.1512 42.6253H95.1619ZM121.279 29.5939H116.491V44.2954H118.494V38.7206H121.29C121.861 38.7657 122.434 38.6811 122.974 38.4721C123.514 38.2632 124.009 37.9344 124.428 37.5063C124.847 37.0781 125.181 36.5598 125.409 35.9836C125.638 35.4074 125.756 34.7857 125.756 34.1573C125.756 33.5289 125.638 32.9072 125.409 32.331C125.181 31.7548 124.847 31.2364 124.428 30.8083C124.009 30.3801 123.514 30.0514 122.974 29.8424C122.434 29.6335 121.861 29.5489 121.29 29.5939H121.279ZM121.279 36.6507H118.483V31.6404H121.322C121.931 31.6404 122.516 31.9062 122.947 32.3793C123.378 32.8524 123.62 33.4941 123.62 34.1632C123.62 34.8322 123.378 35.4739 122.947 35.947C122.516 36.4202 121.931 36.6859 121.322 36.6859L121.279 36.6507ZM133.631 34.5336C132.901 34.4858 132.175 34.6729 131.542 35.072C130.908 35.4711 130.394 36.0647 130.063 36.78L131.842 37.5916C132.017 37.2368 132.283 36.9456 132.606 36.7535C132.929 36.5614 133.296 36.4766 133.663 36.5095C133.917 36.4769 134.175 36.5002 134.421 36.5781C134.667 36.656 134.896 36.7869 135.096 36.9632C135.295 37.1394 135.461 37.3575 135.582 37.6048C135.704 37.852 135.78 38.1234 135.805 38.4031V38.556C135.162 38.182 134.444 37.9881 133.716 37.9914C131.799 37.9914 129.86 39.1676 129.86 41.2963C129.879 41.7502 129.98 42.1954 130.159 42.6054C130.337 43.0155 130.588 43.3821 130.898 43.6836C131.208 43.9852 131.569 44.2155 131.961 44.361C132.353 44.5064 132.768 44.5642 133.181 44.5307C133.685 44.5704 134.19 44.4604 134.643 44.212C135.095 43.9637 135.478 43.5863 135.752 43.1193H135.816V44.2954H137.744V38.6383C137.744 36.0626 135.966 34.5689 133.684 34.5689L133.631 34.5336ZM133.384 42.5901C132.731 42.5901 131.82 42.2255 131.82 41.3434C131.82 40.1673 132.956 39.7791 133.963 39.7791C134.599 39.7619 135.228 39.9325 135.784 40.2731C135.717 40.9099 135.443 41.4986 135.012 41.9308C134.58 42.3631 134.022 42.6097 133.438 42.6253L133.384 42.5901ZM144.772 34.8865L142.479 41.261H142.415L140.037 34.8865H137.894L141.462 43.8015L139.426 48.7529H141.515L147 34.8865H144.772ZM126.764 44.2954H128.767V29.5939H126.764V44.2954Z" fill="white"/>
<path d="M23.5381 20.0726C23.1598 20.4784 22.9688 20.9979 23.0042 21.5251V44.4749C22.9688 45.0021 23.1598 45.5216 23.5381 45.9274L23.6193 46L38 33.1556V32.8548L23.6193 20L23.5381 20.0726Z" fill="white"/>
<path d="M44.4433 38L40 33.6577V33.3528L44.4433 29L44.5409 29.0526L49.8621 31.986C51.3793 32.8166 51.3793 34.1834 49.8621 35.0245L44.5626 37.9474L44.4433 38Z" fill="white"/>
<path d="M43.9886 38.592L39.1845 34L25 47.5585C25.3249 47.8314 25.7393 47.9873 26.1716 47.9993C26.604 48.0112 27.0271 47.8784 27.3679 47.6237L44 38.592" fill="white"/>
<path d="M44 28.736L27.3679 20.3494C27.0271 20.113 26.604 19.9896 26.1716 20.0007C25.7393 20.0118 25.3249 20.1565 25 20.41L39.1959 33L44 28.736Z" fill="white"/>
<path opacity="0.2" d="M42.8633 38L26.3579 46.51C26.029 46.7327 25.6294 46.853 25.2188 46.853C24.8082 46.853 24.4086 46.7327 24.0797 46.51L24 46.5822L24.0797 46.6544C24.4079 46.8787 24.8077 47 25.2188 47C25.6299 47 26.0298 46.8787 26.3579 46.6544L43 38.0928L42.8633 38Z" fill="black"/>
<path opacity="0.12" d="M24.5235 45.8436C24.1554 45.4359 23.9697 44.9139 24.004 44.3841V44.5405C23.9697 45.0703 24.1554 45.5923 24.5235 46L24.6026 45.927L24.5235 45.8436ZM48.8707 34.3553L43.2243 37.3055L43.326 37.3994L48.8707 34.5012C49.1853 34.3648 49.4554 34.1541 49.6537 33.8906C49.8519 33.627 49.9714 33.3198 50 33C49.9365 33.2906 49.8017 33.5638 49.6059 33.7987C49.4101 34.0337 49.1586 34.2241 48.8707 34.3553Z" fill="black"/>
<path opacity="0.25" d="M26.8676 20.4793L48.871 31.6852C49.1589 31.8125 49.4103 31.9972 49.606 32.2251C49.8017 32.453 49.9365 32.7181 50 33C49.9714 32.6897 49.852 32.3917 49.6538 32.136C49.4556 31.8803 49.1856 31.676 48.871 31.5436L26.8676 20.3377C25.287 19.5388 24 20.2063 24 21.8244V21.9761C24.0339 20.3478 25.2983 19.6804 26.8676 20.4793Z" fill="white"/>
<path d="M56 25.8471V18.807H58.0207C58.4659 18.7855 58.9105 18.8607 59.3276 19.0281C59.7448 19.1955 60.1259 19.4516 60.4477 19.7809C60.7516 20.1178 60.9882 20.5173 61.143 20.955C61.2978 21.3928 61.3676 21.8596 61.3483 22.327C61.3662 22.7953 61.2946 23.2626 61.1379 23.7004C60.9812 24.1382 60.7426 24.5372 60.4368 24.8732C60.1149 25.2025 59.7338 25.4586 59.3167 25.626C58.8995 25.7934 58.4549 25.8686 58.0097 25.8471H56ZM56.8456 24.9788H58.0097C58.3405 24.9972 58.6714 24.9444 58.9827 24.8235C59.294 24.7025 59.5793 24.5159 59.8218 24.2748C60.0518 24.0161 60.2299 23.7099 60.3452 23.3749C60.4604 23.04 60.5102 22.6834 60.4917 22.327C60.5198 21.9722 60.4754 21.6151 60.3613 21.2805C60.2473 20.9459 60.0664 20.6418 59.8312 20.3895C59.5961 20.1371 59.3123 19.9425 58.9996 19.8192C58.687 19.6958 58.3529 19.6467 58.0207 19.6753H56.8456V24.9788ZM62.5453 25.8471V18.807H63.3909V25.8471H62.5453ZM66.7514 25.9996C66.2455 25.99 65.7546 25.8138 65.3457 25.4951C64.8909 25.163 64.5695 24.6605 64.4452 24.0871L65.214 23.7585C65.302 24.1372 65.4977 24.4774 65.774 24.7324C66.0381 24.99 66.3829 25.1324 66.7405 25.1314C67.0781 25.1433 67.41 25.0361 67.6849 24.8263C67.8117 24.7321 67.9144 24.6054 67.9835 24.4578C68.0526 24.3102 68.0858 24.1464 68.0803 23.9815C68.0872 23.808 68.0549 23.6353 67.9861 23.478C67.9173 23.3207 67.814 23.1835 67.6849 23.078C67.3058 22.8052 66.8862 22.6028 66.4439 22.4796C65.9518 22.3386 65.4969 22.0775 65.1151 21.7169C64.969 21.5646 64.8536 21.3819 64.7762 21.1801C64.6988 20.9782 64.6609 20.7616 64.6648 20.5435C64.6652 20.2945 64.7154 20.0484 64.812 19.8218C64.9086 19.5952 65.0494 19.3932 65.2249 19.2294C65.6241 18.8446 66.1484 18.6424 66.6855 18.6662C67.174 18.6425 67.6551 18.8 68.0473 19.112C68.3606 19.3563 68.5978 19.6957 68.7282 20.0859L67.9595 20.4262C67.8922 20.1766 67.7493 19.9578 67.5531 19.8043C67.3084 19.6162 67.0145 19.515 66.713 19.515C66.4115 19.515 66.1176 19.6162 65.8729 19.8043C65.7655 19.8874 65.6785 19.9969 65.6193 20.1235C65.56 20.2502 65.5302 20.3902 65.5324 20.5318C65.532 20.6623 65.5606 20.791 65.616 20.9073C65.6714 21.0237 65.7519 21.1242 65.8509 21.2006C66.1341 21.4166 66.4498 21.5793 66.7844 21.6817C67.0607 21.7753 67.332 21.885 67.5971 22.0102C67.8298 22.1263 68.0506 22.2679 68.256 22.4326C68.4733 22.598 68.6472 22.8202 68.7612 23.078C68.8817 23.3615 68.9417 23.6701 68.9369 23.9815C68.9423 24.2993 68.8744 24.6136 68.7392 24.8967C68.6159 25.1517 68.4347 25.3696 68.2121 25.5303C67.9962 25.6886 67.7593 25.8113 67.5092 25.894C67.2628 25.9684 67.0075 26.004 66.7514 25.9996ZM71.0015 25.8471H70.1559V18.807H72.3523C72.8896 18.7996 73.4089 19.0139 73.8019 19.4054C73.9963 19.5966 74.1514 19.8288 74.2575 20.0873C74.3636 20.3458 74.4184 20.625 74.4184 20.9073C74.4184 21.1896 74.3636 21.4688 74.2575 21.7273C74.1514 21.9858 73.9963 22.218 73.8019 22.4092C73.4095 22.8017 72.8898 23.0162 72.3523 23.0076H71.0015V25.8471ZM71.0015 22.1276H72.4292C72.5898 22.1339 72.7497 22.1025 72.8977 22.0356C73.0457 21.9687 73.1782 21.8679 73.2858 21.7404C73.3921 21.6309 73.4766 21.4997 73.5343 21.3545C73.5921 21.2094 73.6218 21.0533 73.6218 20.8955C73.6218 20.7378 73.5921 20.5817 73.5343 20.4366C73.4766 20.2914 73.3921 20.1602 73.2858 20.0507C73.1782 19.9232 73.0457 19.8224 72.8977 19.7555C72.7497 19.6885 72.5898 19.6572 72.4292 19.6635H71.0015V22.1276ZM80.8854 24.9319C80.2433 25.614 79.3747 25.9969 78.4693 25.9969C77.5639 25.9969 76.6953 25.614 76.0532 24.9319C75.4292 24.2261 75.0816 23.2921 75.0816 22.3212C75.0816 21.3503 75.4292 20.4162 76.0532 19.7105C76.3697 19.3699 76.7461 19.0996 77.1608 18.9151C77.5754 18.7307 78.0201 18.6357 78.4693 18.6357C78.9185 18.6357 79.3632 18.7307 79.7778 18.9151C80.1925 19.0996 80.5689 19.3699 80.8854 19.7105C81.5119 20.4149 81.8612 21.3495 81.8612 22.3212C81.8612 23.2929 81.5119 24.2275 80.8854 24.9319ZM76.6792 24.3452C77.1547 24.8511 77.7983 25.1351 78.4693 25.1351C79.1403 25.1351 79.7839 24.8511 80.2594 24.3452C80.7286 23.7926 80.9885 23.0732 80.9885 22.327C80.9885 21.5809 80.7286 20.8615 80.2594 20.3089C79.7839 19.803 79.1403 19.519 78.4693 19.519C77.7983 19.519 77.1547 19.803 76.6792 20.3089C76.21 20.8615 75.9501 21.5809 75.9501 22.327C75.9501 23.0732 76.21 23.7926 76.6792 24.3452ZM83.0818 25.8471V18.807H84.1141L87.3208 24.2865V18.807H88.1665V25.8471H87.2879L83.9384 20.1094V25.8471H83.0818ZM89.671 25.8471V18.807H90.5166V25.8471H89.671ZM90.4617 18.2555H89.7259L90.2091 17H91.1316L90.4617 18.2555ZM93.6685 25.8471L91.3513 18.807H92.2847L94.0638 24.5212L96.0077 18.807H96.9411L94.547 25.8471H93.6685ZM101.751 19.6753H98.7422V21.9046H101.444V22.7495H98.7422V24.9788H101.751V25.8471H97.9076V18.807H101.751V19.6753ZM103.069 25.8471V18.807H103.948V24.9788H106.803V25.8471H103.069ZM110.043 25.8471V18.807H111.075L114.282 24.2865V18.807H115.127V25.8471H114.249L110.899 20.1094V25.8471H110.043ZM122.024 24.9319C121.382 25.614 120.514 25.9969 119.608 25.9969C118.703 25.9969 117.834 25.614 117.192 24.9319C116.568 24.2261 116.22 23.2921 116.22 22.3212C116.22 21.3503 116.568 20.4162 117.192 19.7105C117.508 19.3699 117.885 19.0996 118.3 18.9151C118.714 18.7307 119.159 18.6357 119.608 18.6357C120.057 18.6357 120.502 18.7307 120.917 18.9151C121.331 19.0996 121.708 19.3699 122.024 19.7105C122.651 20.4149 123 21.3495 123 22.3212C123 23.2929 122.651 24.2275 122.024 24.9319ZM117.818 24.3452C118.293 24.8511 118.937 25.1351 119.608 25.1351C120.279 25.1351 120.923 24.8511 121.398 24.3452C121.867 23.7926 122.127 23.0732 122.127 22.327C122.127 21.5809 121.867 20.8615 121.398 20.3089C120.923 19.803 120.279 19.519 119.608 19.519C118.937 19.519 118.293 19.803 117.818 20.3089C117.349 20.8615 117.089 21.5809 117.089 22.327C117.089 23.0732 117.349 23.7926 117.818 24.3452Z" fill="white" stroke="white" stroke-width="0.2" stroke-miterlimit="10"/>
</svg>
