<svg width="146" height="42" viewBox="0 0 146 42" fill="none" xmlns="http://www.w3.org/2000/svg">
<path d="M31.9886 26.592L27.1845 22L13 35.5585C13.3249 35.8314 13.7393 35.9873 14.1716 35.9993C14.604 36.0112 15.0271 35.8784 15.3679 35.6237L32 26.592" fill="white"/>
<path d="M32 16.736L15.3679 8.34938C15.0271 8.11295 14.604 7.98962 14.1716 8.00069C13.7393 8.01175 13.3249 8.15654 13 8.41001L27.1959 21L32 16.736Z" fill="white"/>
<path d="M140.593 0.84C141.797 0.84 142.953 1.30462 143.804 2.13166C144.656 2.95869 145.135 4.0804 145.135 5.25V36.75C145.135 37.9196 144.656 39.0413 143.804 39.8683C142.953 40.6954 141.797 41.16 140.593 41.16H5.40741C4.20273 41.16 3.0474 40.6954 2.19557 39.8683C1.34374 39.0413 0.865185 37.9196 0.865185 36.75V5.25C0.865185 4.0804 1.34374 2.95869 2.19557 2.13166C3.0474 1.30462 4.20273 0.84 5.40741 0.84H140.593ZM140.593 0H5.40741C3.97327 0 2.59788 0.553123 1.58379 1.53769C0.569707 2.52226 0 3.85761 0 5.25V36.75C0 38.1424 0.569707 39.4777 1.58379 40.4623C2.59788 41.4469 3.97327 42 5.40741 42H140.593C142.027 42 143.402 41.4469 144.416 40.4623C145.43 39.4777 146 38.1424 146 36.75V5.25C146 3.85761 145.43 2.52226 144.416 1.53769C143.402 0.553123 142.027 0 140.593 0Z" fill="white"/>
<path d="M73.21 22.5924C72.3104 22.5971 71.4323 22.8942 70.6864 23.4463C69.9405 23.9983 69.3603 24.7806 69.019 25.6944C68.6777 26.6081 68.5906 27.6124 68.7687 28.5805C68.9468 29.5485 69.3821 30.437 70.0196 31.1337C70.6572 31.8304 71.4685 32.3041 72.351 32.4951C73.2336 32.686 74.1479 32.5857 74.9786 32.2067C75.8093 31.8277 76.5191 31.187 77.0184 30.3655C77.5177 29.544 77.7842 28.5786 77.7842 27.591C77.793 26.9299 77.6805 26.2737 77.4534 25.6614C77.2263 25.049 76.8894 24.4931 76.4626 24.0267C76.0358 23.5603 75.5279 23.193 74.9691 22.9466C74.4103 22.7002 73.812 22.5798 73.21 22.5924ZM73.21 30.6253C72.6568 30.6678 72.1047 30.5266 71.6256 30.22C71.1464 29.9135 70.7623 29.4558 70.5233 28.9064C70.2842 28.357 70.2012 27.7414 70.2851 27.1395C70.369 26.5377 70.6158 25.9774 70.9935 25.5316C71.3712 25.0858 71.8624 24.7751 72.4031 24.6398C72.9438 24.5045 73.509 24.551 74.0254 24.7731C74.5418 24.9952 74.9853 25.3827 75.2984 25.8852C75.6115 26.3878 75.7796 26.9821 75.781 27.591C75.7982 27.9767 75.745 28.3624 75.6243 28.7252C75.5036 29.088 75.318 29.4207 75.0784 29.7035C74.8388 29.9863 74.55 30.2136 74.2291 30.3719C73.9082 30.5302 73.5617 30.6164 73.21 30.6253ZM63.2366 22.5924C62.3366 22.5948 61.4574 22.8899 60.7101 23.4406C59.9628 23.9912 59.3809 24.7727 59.038 25.6862C58.695 26.5998 58.6064 27.6045 58.7833 28.5733C58.9601 29.5421 59.3946 30.4317 60.0317 31.1296C60.6689 31.8275 61.4801 32.3023 62.363 32.4943C63.2459 32.6862 64.1608 32.5865 64.9921 32.2078C65.8234 31.8292 66.5338 31.1885 67.0336 30.3668C67.5334 29.545 67.8001 28.5791 67.8001 27.591C67.8089 26.9299 67.6964 26.2737 67.4693 25.6614C67.2422 25.049 66.9053 24.4931 66.4785 24.0267C66.0517 23.5603 65.5438 23.193 64.985 22.9466C64.4262 22.7002 63.8279 22.5798 63.2259 22.5924H63.2366ZM63.2366 30.6253C62.6831 30.6702 62.1301 30.5311 61.6497 30.2261C61.1692 29.9211 60.7835 29.4644 60.5428 28.9154C60.302 28.3664 60.2174 27.7505 60.3 27.1479C60.3825 26.5454 60.6283 25.9841 61.0055 25.5371C61.3827 25.0901 61.8737 24.7781 62.4146 24.6418C62.9555 24.5054 63.5213 24.551 64.0383 24.7726C64.5553 24.9942 64.9995 25.3816 65.3132 25.8843C65.6268 26.3869 65.7954 26.9816 65.7969 27.591C65.8141 27.9767 65.7609 28.3624 65.6402 28.7252C65.5195 29.088 65.3339 29.4207 65.0943 29.7035C64.8547 29.9863 64.5659 30.2136 64.245 30.3719C63.9241 30.5302 63.5776 30.6164 63.2259 30.6253H63.2366ZM51.3564 24.1332V26.2502H55.9842C55.9116 27.2473 55.5341 28.1882 54.9129 28.92C54.4499 29.4377 53.8933 29.8434 53.279 30.1107C52.6646 30.3781 52.006 30.5013 51.3457 30.4725C49.9819 30.4725 48.674 29.8777 47.7097 28.819C46.7454 27.7602 46.2036 26.3243 46.2036 24.8271C46.2036 23.3298 46.7454 21.8939 47.7097 20.8352C48.674 19.7765 49.9819 19.1817 51.3457 19.1817C52.6502 19.1583 53.91 19.704 54.8487 20.6989L56.2092 19.2052C55.5755 18.5008 54.8195 17.9431 53.9859 17.5653C53.1523 17.1875 52.2581 16.9973 51.3564 17.0059C50.404 16.9652 49.454 17.136 48.5632 17.508C47.6724 17.8801 46.8592 18.4458 46.1723 19.1711C45.4854 19.8965 44.9389 20.7666 44.5657 21.7294C44.1924 22.6922 44 23.7278 44 24.7742C44 25.8205 44.1924 26.8561 44.5657 27.8189C44.9389 28.7817 45.4854 29.6518 46.1723 30.3772C46.8592 31.1025 47.6724 31.6682 48.5632 32.0403C49.454 32.4123 50.404 32.5831 51.3564 32.5424C52.2733 32.5879 53.1885 32.4173 54.0403 32.042C54.8922 31.6666 55.6609 31.0954 56.2949 30.3666C57.4172 29.0128 58.0164 27.2331 57.966 25.4034C57.9695 24.9576 57.9336 24.5125 57.8589 24.0744L51.3564 24.1332ZM99.895 25.7797C99.6156 24.8773 99.0931 24.0894 98.3968 23.5202C97.7005 22.9511 96.8631 22.6275 95.9956 22.5924C95.4096 22.5912 94.8296 22.7219 94.2915 22.9765C93.7533 23.2311 93.2685 23.6042 92.8669 24.0726C92.4652 24.5411 92.1554 25.0951 91.9565 25.7002C91.7576 26.3054 91.6739 26.9489 91.7106 27.591C91.6975 28.2483 91.8053 28.9018 92.0275 29.5124C92.2497 30.123 92.5816 30.6781 93.0036 31.1447C93.4256 31.6113 93.9289 31.9797 94.4834 32.2279C95.038 32.4761 95.6324 32.5991 96.2313 32.5895C96.9806 32.5939 97.7192 32.3942 98.3811 32.0084C99.0429 31.6225 99.6072 31.0624 100.023 30.3784L98.4702 29.2022C98.2383 29.6266 97.9101 29.9775 97.5177 30.2208C97.1252 30.4641 96.6819 30.5913 96.2313 30.5901C95.7672 30.6095 95.3086 30.4752 94.915 30.2046C94.5215 29.934 94.2112 29.5397 94.0245 29.0729L100.12 26.309L99.895 25.7797ZM93.6817 27.4498C93.66 27.086 93.7046 26.7212 93.8129 26.3765C93.9212 26.0319 94.0911 25.7145 94.3126 25.4429C94.5341 25.1713 94.8027 24.9509 95.1027 24.7946C95.4027 24.6384 95.7281 24.5495 96.0599 24.533C96.4054 24.508 96.75 24.595 97.0509 24.7832C97.3519 24.9714 97.5958 25.2525 97.7524 25.5916L93.6817 27.4498ZM88.7325 32.2954H90.7357V17.5939H88.7325V32.2954ZM85.4544 23.7098H85.3794C85.0775 23.3392 84.7077 23.0428 84.2941 22.8401C83.8806 22.6374 83.4327 22.533 82.9798 22.5336C81.8091 22.596 80.7052 23.1504 79.8967 24.0821C79.0883 25.0138 78.6373 26.2512 78.6373 27.538C78.6373 28.8248 79.0883 30.0623 79.8967 30.994C80.7052 31.9256 81.8091 32.4801 82.9798 32.5424C83.4338 32.5508 83.8839 32.4498 84.2985 32.2466C84.7131 32.0434 85.082 31.7429 85.3794 31.3663H85.4437V32.0837C85.4437 34.0008 84.5117 35.024 83.012 35.024C82.5125 35.0112 82.0277 34.8355 81.6195 34.5192C81.2112 34.2029 80.8979 33.7605 80.7195 33.2481L78.9733 34.0479C79.302 34.9257 79.8621 35.6756 80.5816 36.2016C81.3012 36.7276 82.1475 37.0056 83.012 36.9999C85.358 36.9999 87.297 35.4827 87.297 31.7897V22.8865H85.4544V23.7098ZM83.1619 30.6253C82.4709 30.5585 81.8278 30.2099 81.3593 29.6482C80.8908 29.0865 80.631 28.3526 80.631 27.591C80.631 26.8294 80.8908 26.0954 81.3593 25.5337C81.8278 24.9721 82.4709 24.6234 83.1619 24.5566C83.5046 24.5759 83.8402 24.6703 84.1491 24.8342C84.4579 24.9981 84.7338 25.2282 84.9604 25.511C85.187 25.7938 85.3598 26.1235 85.4686 26.4807C85.5773 26.8379 85.6199 27.2154 85.5937 27.591C85.6229 27.9681 85.5822 28.3479 85.4739 28.7073C85.3656 29.0667 85.1921 29.3982 84.9638 29.6818C84.7354 29.9655 84.4571 30.1954 84.1456 30.3575C83.834 30.5197 83.4958 30.6108 83.1512 30.6253H83.1619ZM109.279 17.5939H104.491V32.2954H106.494V26.7206H109.29C109.861 26.7657 110.434 26.6811 110.974 26.4721C111.514 26.2632 112.009 25.9344 112.428 25.5063C112.847 25.0781 113.181 24.5598 113.409 23.9836C113.638 23.4074 113.756 22.7857 113.756 22.1573C113.756 21.5289 113.638 20.9072 113.409 20.331C113.181 19.7548 112.847 19.2364 112.428 18.8083C112.009 18.3801 111.514 18.0514 110.974 17.8424C110.434 17.6335 109.861 17.5489 109.29 17.5939H109.279ZM109.279 24.6507H106.483V19.6404H109.322C109.931 19.6404 110.516 19.9062 110.947 20.3793C111.378 20.8524 111.62 21.4941 111.62 22.1632C111.62 22.8322 111.378 23.4739 110.947 23.947C110.516 24.4202 109.931 24.6859 109.322 24.6859L109.279 24.6507ZM121.631 22.5336C120.901 22.4858 120.175 22.6729 119.542 23.072C118.908 23.4711 118.394 24.0647 118.063 24.78L119.842 25.5916C120.017 25.2368 120.283 24.9456 120.606 24.7535C120.929 24.5614 121.296 24.4766 121.663 24.5095C121.917 24.4769 122.175 24.5002 122.421 24.5781C122.667 24.656 122.896 24.7869 123.096 24.9632C123.295 25.1394 123.461 25.3575 123.582 25.6048C123.704 25.852 123.78 26.1234 123.805 26.4031V26.556C123.162 26.182 122.444 25.9881 121.716 25.9914C119.799 25.9914 117.86 27.1676 117.86 29.2963C117.879 29.7502 117.98 30.1954 118.159 30.6054C118.337 31.0155 118.588 31.3821 118.898 31.6836C119.208 31.9852 119.569 32.2155 119.961 32.361C120.353 32.5064 120.768 32.5642 121.181 32.5307C121.685 32.5704 122.19 32.4604 122.643 32.212C123.095 31.9637 123.478 31.5863 123.752 31.1193H123.816V32.2954H125.744V26.6383C125.744 24.0626 123.966 22.5689 121.684 22.5689L121.631 22.5336ZM121.384 30.5901C120.731 30.5901 119.82 30.2255 119.82 29.3434C119.82 28.1673 120.956 27.7791 121.963 27.7791C122.599 27.7619 123.228 27.9325 123.784 28.2731C123.717 28.9099 123.443 29.4986 123.012 29.9308C122.58 30.3631 122.022 30.6097 121.438 30.6253L121.384 30.5901ZM132.772 22.8865L130.479 29.261H130.415L128.037 22.8865H125.894L129.462 31.8015L127.426 36.7529H129.515L135 22.8865H132.772ZM114.764 32.2954H116.767V17.5939H114.764V32.2954Z" fill="white"/>
<path d="M11.5381 8.07263C11.1598 8.47841 10.9688 8.99787 11.0042 9.52514V32.4749C10.9688 33.0021 11.1598 33.5216 11.5381 33.9274L11.6193 34L26 21.1556V20.8548L11.6193 8L11.5381 8.07263Z" fill="white"/>
<path d="M32.4433 26L28 21.6577V21.3528L32.4433 17L32.5409 17.0526L37.8621 19.986C39.3793 20.8166 39.3793 22.1834 37.8621 23.0245L32.5626 25.9474L32.4433 26Z" fill="white"/>
<path opacity="0.2" d="M30.8633 26L14.3579 34.51C14.029 34.7327 13.6294 34.853 13.2188 34.853C12.8082 34.853 12.4086 34.7327 12.0797 34.51L12 34.5822L12.0797 34.6544C12.4079 34.8787 12.8077 35 13.2188 35C13.6299 35 14.0298 34.8787 14.3579 34.6544L31 26.0928L30.8633 26Z" fill="black"/>
<path opacity="0.25" d="M14.8676 8.47933L36.871 19.6852C37.1589 19.8125 37.4103 19.9972 37.606 20.2251C37.8017 20.453 37.9365 20.7181 38 21C37.9714 20.6897 37.852 20.3917 37.6538 20.136C37.4556 19.8803 37.1856 19.676 36.871 19.5436L14.8676 8.33774C13.287 7.53876 12 8.20626 12 9.82444V9.97614C12.0339 8.34785 13.2983 7.68035 14.8676 8.47933Z" fill="white"/>
<path d="M44 13.8471V6.80697H46.0207C46.4659 6.7855 46.9105 6.86073 47.3276 7.02813C47.7448 7.19552 48.1259 7.4516 48.4477 7.78086C48.7516 8.11782 48.9882 8.51732 49.143 8.95504C49.2978 9.39277 49.3676 9.85957 49.3483 10.327C49.3662 10.7953 49.2946 11.2626 49.1379 11.7004C48.9812 12.1382 48.7426 12.5372 48.4368 12.8732C48.1149 13.2025 47.7338 13.4586 47.3167 13.626C46.8995 13.7934 46.4549 13.8686 46.0097 13.8471H44ZM44.8456 12.9788H46.0097C46.3405 12.9972 46.6714 12.9444 46.9827 12.8235C47.294 12.7025 47.5793 12.5159 47.8218 12.2748C48.0518 12.0161 48.2299 11.7099 48.3452 11.3749C48.4604 11.04 48.5102 10.6834 48.4917 10.327C48.5198 9.97222 48.4754 9.61509 48.3613 9.28049C48.2473 8.94589 48.0664 8.64184 47.8312 8.38948C47.5961 8.13712 47.3123 7.94251 46.9996 7.81917C46.687 7.69583 46.3529 7.64672 46.0207 7.67525H44.8456V12.9788ZM50.5453 13.8471V6.80697H51.3909V13.8471H50.5453ZM54.7514 13.9996C54.2455 13.99 53.7546 13.8138 53.3457 13.4951C52.8909 13.163 52.5695 12.6605 52.4452 12.0871L53.214 11.7585C53.302 12.1372 53.4977 12.4774 53.774 12.7324C54.0381 12.99 54.3829 13.1324 54.7405 13.1314C55.0781 13.1433 55.41 13.0361 55.6849 12.8263C55.8117 12.7321 55.9144 12.6054 55.9835 12.4578C56.0526 12.3102 56.0858 12.1464 56.0803 11.9815C56.0872 11.808 56.0549 11.6353 55.9861 11.478C55.9173 11.3207 55.814 11.1835 55.6849 11.078C55.3058 10.8052 54.8862 10.6028 54.4439 10.4796C53.9518 10.3386 53.4969 10.0775 53.1151 9.7169C52.969 9.56458 52.8536 9.38187 52.7762 9.18006C52.6988 8.97825 52.6609 8.76161 52.6648 8.54354C52.6652 8.29451 52.7154 8.04843 52.812 7.82179C52.9086 7.59515 53.0494 7.39317 53.2249 7.22938C53.6241 6.84463 54.1484 6.64242 54.6855 6.66617C55.174 6.64251 55.6551 6.80004 56.0473 7.11204C56.3606 7.35633 56.5978 7.69567 56.7282 8.08593L55.9595 8.4262C55.8922 8.17657 55.7493 7.95784 55.5531 7.80432C55.3084 7.61621 55.0145 7.515 54.713 7.515C54.4115 7.515 54.1176 7.61621 53.8729 7.80432C53.7655 7.88737 53.6785 7.99687 53.6193 8.12352C53.56 8.25017 53.5302 8.39023 53.5324 8.5318C53.532 8.6623 53.5606 8.79103 53.616 8.90734C53.6714 9.02365 53.7519 9.12419 53.8509 9.20062C54.1341 9.41665 54.4498 9.57935 54.7844 9.6817C55.0607 9.77528 55.332 9.88496 55.5971 10.0102C55.8298 10.1263 56.0506 10.2679 56.256 10.4326C56.4733 10.598 56.6472 10.8202 56.7612 11.078C56.8817 11.3615 56.9417 11.6701 56.9369 11.9815C56.9423 12.2993 56.8744 12.6136 56.7392 12.8967C56.6159 13.1517 56.4347 13.3696 56.2121 13.5303C55.9962 13.6886 55.7593 13.8113 55.5092 13.894C55.2628 13.9684 55.0075 14.004 54.7514 13.9996ZM59.0015 13.8471H58.1559V6.80697H60.3523C60.8896 6.79957 61.4089 7.01392 61.8019 7.40538C61.9963 7.59659 62.1514 7.82878 62.2575 8.08729C62.3636 8.3458 62.4184 8.62501 62.4184 8.90728C62.4184 9.18956 62.3636 9.46876 62.2575 9.72727C62.1514 9.98578 61.9963 10.218 61.8019 10.4092C61.4095 10.8017 60.8898 11.0162 60.3523 11.0076H59.0015V13.8471ZM59.0015 10.1276H60.4292C60.5898 10.1339 60.7497 10.1025 60.8977 10.0356C61.0457 9.96874 61.1782 9.86794 61.2858 9.74036C61.3921 9.63091 61.4766 9.49968 61.5343 9.35453C61.5921 9.20937 61.6218 9.05327 61.6218 8.89555C61.6218 8.73782 61.5921 8.58172 61.5343 8.43657C61.4766 8.29141 61.3921 8.16018 61.2858 8.05073C61.1782 7.92315 61.0457 7.82236 60.8977 7.75545C60.7497 7.68855 60.5898 7.65716 60.4292 7.66352H59.0015V10.1276ZM68.8854 12.9319C68.2433 13.614 67.3747 13.9969 66.4693 13.9969C65.5639 13.9969 64.6953 13.614 64.0532 12.9319C63.4292 12.2261 63.0816 11.2921 63.0816 10.3212C63.0816 9.3503 63.4292 8.4162 64.0532 7.71046C64.3697 7.36988 64.7461 7.09958 65.1608 6.91512C65.5754 6.73066 66.0201 6.6357 66.4693 6.6357C66.9185 6.6357 67.3632 6.73066 67.7778 6.91512C68.1925 7.09958 68.5689 7.36988 68.8854 7.71046C69.5119 8.41486 69.8612 9.34946 69.8612 10.3212C69.8612 11.2929 69.5119 12.2275 68.8854 12.9319ZM64.6792 12.3452C65.1547 12.8511 65.7983 13.1351 66.4693 13.1351C67.1403 13.1351 67.7839 12.8511 68.2594 12.3452C68.7286 11.7926 68.9885 11.0732 68.9885 10.327C68.9885 9.58092 68.7286 8.8615 68.2594 8.30887C67.7839 7.80301 67.1403 7.51899 66.4693 7.51899C65.7983 7.51899 65.1547 7.80301 64.6792 8.30887C64.21 8.8615 63.9501 9.58092 63.9501 10.327C63.9501 11.0732 64.21 11.7926 64.6792 12.3452ZM71.0818 13.8471V6.80697H72.1141L75.3208 12.2865V6.80697H76.1665V13.8471H75.2879L71.9384 8.1094V13.8471H71.0818ZM77.671 13.8471V6.80697H78.5166V13.8471H77.671ZM78.4617 6.25549H77.7259L78.2091 5H79.1316L78.4617 6.25549ZM81.6685 13.8471L79.3513 6.80697H80.2847L82.0638 12.5212L84.0077 6.80697H84.9411L82.547 13.8471H81.6685ZM89.7513 7.67525H86.7422V9.90463H89.4438V10.7495H86.7422V12.9788H89.7513V13.8471H85.9076V6.80697H89.7513V7.67525ZM91.0691 13.8471V6.80697H91.9477V12.9788H94.803V13.8471H91.0691ZM98.0427 13.8471V6.80697H99.075L102.282 12.2865V6.80697H103.127V13.8471H102.249L98.8993 8.1094V13.8471H98.0427ZM110.024 12.9319C109.382 13.614 108.514 13.9969 107.608 13.9969C106.703 13.9969 105.834 13.614 105.192 12.9319C104.568 12.2261 104.22 11.2921 104.22 10.3212C104.22 9.3503 104.568 8.4162 105.192 7.71046C105.508 7.36988 105.885 7.09958 106.3 6.91512C106.714 6.73066 107.159 6.6357 107.608 6.6357C108.057 6.6357 108.502 6.73066 108.917 6.91512C109.331 7.09958 109.708 7.36988 110.024 7.71046C110.651 8.41486 111 9.34946 111 10.3212C111 11.2929 110.651 12.2275 110.024 12.9319ZM105.818 12.3452C106.293 12.8511 106.937 13.1351 107.608 13.1351C108.279 13.1351 108.923 12.8511 109.398 12.3452C109.867 11.7926 110.127 11.0732 110.127 10.327C110.127 9.58092 109.867 8.8615 109.398 8.30887C108.923 7.80301 108.279 7.51899 107.608 7.51899C106.937 7.51899 106.293 7.80301 105.818 8.30887C105.349 8.8615 105.089 9.58092 105.089 10.327C105.089 11.0732 105.349 11.7926 105.818 12.3452Z" fill="white" stroke="white" stroke-width="0.2" stroke-miterlimit="10"/>
<path opacity="0.12" d="M12.5235 33.8436C12.1554 33.4359 11.9697 32.9139 12.004 32.3841V32.5405C11.9697 33.0703 12.1554 33.5923 12.5235 34L12.6026 33.927L12.5235 33.8436ZM36.8707 22.3553L31.2243 25.3055L31.326 25.3994L36.8707 22.5012C37.1853 22.3648 37.4554 22.1541 37.6537 21.8906C37.8519 21.627 37.9714 21.3198 38 21C37.9365 21.2906 37.8017 21.5638 37.6059 21.7987C37.4101 22.0337 37.1586 22.2241 36.8707 22.3553Z" fill="black"/>
</svg>
