<svg width="457" height="333" viewBox="0 0 457 333" fill="none" xmlns="http://www.w3.org/2000/svg">
<g clip-path="url(#clip0_66_1501)">
<path d="M133.911 278.325L133.862 270.691L133.142 157.419L133.115 153.18L132.719 90.8371C126.773 87.3368 120.565 84.2418 114.144 81.5763C88.9849 71.1562 59.0704 66.8594 34.3003 78.0588C21.0763 84.2698 10.8456 94.9196 5.65285 107.88C5.50662 108.222 5.37174 108.554 5.24827 108.886C1.11719 119.906 1.1476 131.875 7.19526 142.209C18.0215 160.781 42.2329 167.64 63.7367 174.194C85.2291 180.748 109.065 191.421 114.424 211.966C109.911 206.777 104.001 202.806 97.3031 200.461C90.6051 198.115 83.3601 197.48 76.3127 198.62C69.2653 199.761 62.6697 202.636 57.2037 206.95C51.7377 211.264 47.5985 216.862 45.2114 223.167C44.8184 224.195 44.4596 225.232 44.1467 226.28C43.3982 228.799 42.9476 231.386 42.8029 233.997C41.7537 253.916 58.0779 271.763 77.4469 280.123C94.9614 287.67 114.618 289.109 133.984 289.834L133.911 278.325Z" fill="#F0F0F0"/>
<path d="M133.862 270.691L133.911 278.325C129.574 267.927 123.029 258.459 114.671 250.493C106.312 242.527 96.3143 236.229 85.2805 231.978C72.2404 227.075 58.1463 225.123 44.1466 226.28C44.4599 225.232 44.8184 224.195 45.2115 223.167C50.6506 222.806 56.1128 222.883 61.5377 223.397C80.8982 225.241 99.1103 232.863 113.482 245.136C121.907 252.401 128.818 261.066 133.862 270.691Z" fill="white"/>
<path d="M133.116 153.18L133.143 157.419C128.603 153.328 123.707 149.598 118.505 146.267C102.342 135.861 84.0836 127.998 65.552 122.111C46.559 116.046 26.8438 112.179 6.84615 110.596C6.39596 110.557 5.97891 110.358 5.68143 110.04C5.38395 109.721 5.22886 109.308 5.2483 108.886C5.23588 108.514 5.38126 108.152 5.65273 107.88C5.79484 107.753 5.96696 107.659 6.15511 107.606C6.34326 107.553 6.54213 107.542 6.73554 107.575C9.20279 107.764 11.6585 107.974 14.1256 108.238C34.5961 110.399 54.6999 114.932 73.9745 121.733C92.5788 128.271 110.978 136.71 126.702 148.176C128.915 149.754 131.061 151.419 133.116 153.18Z" fill="white"/>
<path d="M26.1538 58.9678C29.9367 58.9678 33.0033 56.0996 33.0033 52.5615C33.0033 49.0234 29.9367 46.1552 26.1538 46.1552C22.3709 46.1552 19.3043 49.0234 19.3043 52.5615C19.3043 56.0996 22.3709 58.9678 26.1538 58.9678Z" fill="#F0F0F0"/>
<path d="M306.953 79.1332H304.997V29.01C304.997 25.2004 304.195 21.428 302.636 17.9084C301.077 14.3887 298.792 11.1907 295.912 8.49684C293.032 5.80301 289.613 3.66615 285.85 2.20826C282.086 0.750371 278.053 3.29407e-06 273.98 0H160.44C152.214 -7.9832e-06 144.325 3.05638 138.508 8.49679C132.691 13.9372 129.423 21.316 129.423 29.0099V303.99C129.423 311.684 132.691 319.063 138.508 324.503C144.325 329.944 152.214 333 160.44 333H273.98C282.206 333 290.095 329.944 295.912 324.503C301.729 319.063 304.997 311.684 304.997 303.99V114.812H306.953V79.1332Z" fill="#3F3D56"/>
<path d="M298.396 29.2127V303.791C298.396 304.192 298.385 304.588 298.358 304.985C298.033 310.516 295.454 315.72 291.152 319.527C286.85 323.335 281.152 325.455 275.229 325.453H161.145C155.208 325.455 149.498 323.323 145.193 319.499C140.889 315.675 138.32 310.45 138.017 304.904C137.995 304.538 137.984 304.167 137.984 303.791V29.2127C137.984 23.4668 140.424 17.9561 144.767 13.8926C149.111 9.82923 155.002 7.54601 161.145 7.54523H174.989C174.308 9.10801 174.047 10.8036 174.231 12.4826C174.415 14.1616 175.038 15.7726 176.044 17.1736C177.05 18.5747 178.41 19.7229 180.002 20.517C181.594 21.3111 183.371 21.7269 185.175 21.7276H250.223C252.027 21.7267 253.804 21.3109 255.396 20.5167C256.989 19.7226 258.348 18.5744 259.354 17.1734C260.36 15.7724 260.983 14.1614 261.167 12.4825C261.35 10.8035 261.09 9.108 260.409 7.54523H275.229C281.373 7.5458 287.265 9.8288 291.61 13.8921C295.954 17.9554 298.395 23.4663 298.396 29.2127Z" fill="white"/>
<path d="M296.289 236.29H140.087C139.539 236.29 139.013 236.085 138.625 235.723C138.237 235.36 138.018 234.868 138.018 234.354V55.1186C138.018 54.6054 138.237 54.1134 138.625 53.7505C139.013 53.3877 139.539 53.1836 140.087 53.183H296.289C296.837 53.1836 297.364 53.3877 297.752 53.7505C298.14 54.1134 298.358 54.6054 298.359 55.1186V234.354C298.358 234.868 298.14 235.36 297.752 235.723C297.364 236.085 296.837 236.29 296.289 236.29Z" fill="#F0F0F0"/>
<path d="M284.825 65.6896H151.871C151.322 65.69 150.796 65.8941 150.408 66.2572C150.019 66.6203 149.801 67.1126 149.801 67.6261V197.134C149.802 197.647 150.021 198.138 150.409 198.5C150.797 198.862 151.323 199.066 151.871 199.066H284.825C285.373 199.066 285.899 198.862 286.287 198.5C286.675 198.138 286.894 197.647 286.896 197.134V67.6261C286.895 67.1126 286.677 66.6202 286.289 66.2571C285.9 65.8941 285.374 65.6899 284.825 65.6896Z" fill="white"/>
<path d="M149.565 46.656C152.527 46.656 154.929 44.4099 154.929 41.6392C154.929 38.8685 152.527 36.6224 149.565 36.6224C146.602 36.6224 144.201 38.8685 144.201 41.6392C144.201 44.4099 146.602 46.656 149.565 46.656Z" fill="#6C63FF"/>
<path d="M175.078 205.452C165.919 191.654 169.075 174.028 170.617 157.852C172.92 133.582 170.842 109.123 164.47 85.4985C172.059 93.4251 177.067 103.216 178.902 113.717C180.414 122.474 179.667 131.483 181.38 140.207C185.053 158.913 199.843 175.784 197.554 194.683C197.048 198.86 195.346 203.353 191.381 205.332C186.905 207.567 181.441 205.79 176.746 203.991" fill="#F0F0F0"/>
<path d="M159.621 211.178C158.618 210.236 157.255 209.704 155.833 209.701C154.411 209.697 153.046 210.223 152.038 211.161C151.03 212.099 150.462 213.373 150.458 214.703C150.454 216.033 151.016 217.31 152.019 218.253L152.037 218.27L159.621 225.361L167.204 218.27C168.205 217.328 168.766 216.054 168.764 214.726C168.762 213.399 168.197 212.126 167.193 211.187C166.189 210.248 164.828 209.72 163.409 209.719C161.989 209.717 160.627 210.242 159.621 211.178Z" fill="#6C63FF"/>
<path d="M183.222 211.178C182.219 210.236 180.856 209.704 179.434 209.701C178.012 209.697 176.647 210.223 175.639 211.161C174.631 212.099 174.063 213.373 174.059 214.703C174.055 216.033 174.617 217.31 175.62 218.253L175.638 218.27L183.222 225.361L190.805 218.27C191.806 217.328 192.367 216.054 192.365 214.726C192.363 213.399 191.798 212.126 190.794 211.187C189.79 210.248 188.429 209.72 187.01 209.719C185.59 209.717 184.228 210.242 183.222 211.178Z" fill="#6C63FF"/>
<path d="M206.822 211.178C205.819 210.236 204.457 209.704 203.035 209.701C201.613 209.697 200.248 210.223 199.24 211.161C198.232 212.099 197.663 213.373 197.66 214.703C197.656 216.033 198.218 217.31 199.221 218.253L199.239 218.27L206.822 225.361L214.406 218.27C215.407 217.328 215.968 216.054 215.966 214.726C215.964 213.399 215.399 212.126 214.395 211.187C213.391 210.248 212.03 209.72 210.611 209.719C209.191 209.717 207.829 210.242 206.822 211.178Z" fill="#6C63FF"/>
<path d="M248.511 45.5736H172.872C172.329 45.5742 171.79 45.4745 171.287 45.2802C170.784 45.0859 170.328 44.8009 169.943 44.4413C169.558 44.0818 169.253 43.6549 169.044 43.1849C168.836 42.7149 168.729 42.2112 168.729 41.7025C168.729 41.1937 168.836 40.69 169.044 40.22C169.253 39.7501 169.558 39.3231 169.943 38.9636C170.328 38.604 170.784 38.319 171.287 38.1247C171.79 37.9304 172.329 37.8307 172.872 37.8313H248.511C249.055 37.8307 249.593 37.9304 250.096 38.1247C250.599 38.319 251.056 38.604 251.44 38.9636C251.825 39.3231 252.131 39.7501 252.339 40.22C252.547 40.69 252.654 41.1937 252.654 41.7025C252.654 42.2112 252.547 42.7149 252.339 43.1849C252.131 43.6549 251.825 44.0818 251.44 44.4413C251.056 44.8009 250.599 45.0859 250.096 45.2802C249.593 45.4745 249.055 45.5742 248.511 45.5736Z" fill="#6C63FF"/>
<path d="M296.288 269.907H140.087C139.538 269.908 139.011 270.112 138.623 270.475C138.235 270.838 138.017 271.33 138.017 271.844V304.904C138.32 310.45 140.889 315.675 145.193 319.499C149.498 323.323 155.208 325.455 161.145 325.453H275.229C281.152 325.455 286.85 323.335 291.152 319.527C295.454 315.72 298.033 310.516 298.358 304.985V271.844C298.358 271.33 298.139 270.838 297.751 270.475C297.363 270.112 296.837 269.908 296.288 269.907Z" fill="#F0F0F0"/>
<path d="M284.825 282.414H151.871C151.322 282.415 150.796 282.619 150.408 282.982C150.019 283.345 149.801 283.837 149.801 284.351V322.679C153.263 324.503 157.171 325.459 161.145 325.453H275.229C279.329 325.459 283.356 324.442 286.896 322.508V284.351C286.895 283.837 286.677 283.345 286.289 282.982C285.9 282.619 285.374 282.415 284.825 282.414Z" fill="white"/>
<path d="M149.565 263.381C152.527 263.381 154.929 261.135 154.929 258.364C154.929 255.593 152.527 253.347 149.565 253.347C146.602 253.347 144.201 255.593 144.201 258.364C144.201 261.135 146.602 263.381 149.565 263.381Z" fill="#E4E4E4"/>
<path d="M248.511 262.298H172.872C172.329 262.299 171.79 262.199 171.287 262.005C170.784 261.81 170.328 261.525 169.943 261.166C169.558 260.806 169.253 260.379 169.044 259.909C168.836 259.439 168.729 258.936 168.729 258.427C168.729 257.918 168.836 257.414 169.044 256.945C169.253 256.475 169.558 256.048 169.943 255.688C170.328 255.329 170.784 255.044 171.287 254.849C171.79 254.655 172.329 254.555 172.872 254.556H248.511C249.055 254.555 249.593 254.655 250.096 254.849C250.599 255.044 251.056 255.329 251.44 255.688C251.825 256.048 252.131 256.475 252.339 256.945C252.547 257.414 252.654 257.918 252.654 258.427C252.654 258.936 252.547 259.439 252.339 259.909C252.131 260.379 251.825 260.806 251.44 261.166C251.056 261.525 250.599 261.81 250.096 262.005C249.593 262.199 249.055 262.299 248.511 262.298Z" fill="#E4E4E4"/>
<path d="M205.756 325.453H166.456C170.457 318.089 177.843 312.089 186.549 311.772C187.861 311.727 189.174 311.818 190.464 312.043C191.006 312.134 191.537 312.254 192.068 312.384C195.407 313.188 198.448 314.83 200.861 317.134C203.273 319.437 204.966 322.314 205.756 325.453Z" fill="#F2F2F2"/>
<path d="M268.616 325.453H215.25C216.07 323.163 216.767 320.835 217.337 318.48C219.735 308.792 222.175 297.916 231.02 292.408C235.944 289.337 241.936 288.836 247.616 290.19C247.788 290.23 247.965 290.275 248.136 290.326C254.836 292.064 260.587 296.104 264.239 301.638C268.76 308.732 269.769 317.17 268.616 325.453Z" fill="#F2F2F2"/>
<path d="M192.62 319.538C192.595 321.521 192.407 323.498 192.057 325.453H190.523C191.33 321.013 191.31 316.477 190.464 312.043C191.006 312.134 191.537 312.254 192.068 312.384C192.475 314.75 192.659 317.143 192.62 319.538Z" fill="white"/>
<path d="M248.335 290.787C248.34 291.871 248.335 292.96 248.303 294.048C248.066 303.098 246.624 312.086 244.011 320.803C243.55 322.358 243.051 323.908 242.515 325.453H240.938C241.903 322.704 242.746 319.92 243.475 317.13C245.731 308.569 246.855 299.781 246.822 290.963C246.823 290.763 246.906 290.572 247.054 290.428C247.202 290.284 247.403 290.199 247.616 290.19C247.802 290.171 247.988 290.219 248.136 290.326C248.206 290.383 248.26 290.454 248.294 290.534C248.329 290.615 248.343 290.701 248.335 290.787Z" fill="white"/>
<path d="M276.663 300.036C278.441 300.036 279.881 298.688 279.881 297.026C279.881 295.364 278.441 294.016 276.663 294.016C274.886 294.016 273.445 295.364 273.445 297.026C273.445 298.688 274.886 300.036 276.663 300.036Z" fill="#F2F2F2"/>
<path d="M199.521 80.3676C201.298 80.3676 202.739 79.0199 202.739 77.3575C202.739 75.6951 201.298 74.3475 199.521 74.3475C197.743 74.3475 196.302 75.6951 196.302 77.3575C196.302 79.0199 197.743 80.3676 199.521 80.3676Z" fill="#6C63FF"/>
<path d="M259.059 97.9263C260.837 97.9263 262.278 96.5787 262.278 94.9163C262.278 93.2538 260.837 91.9062 259.059 91.9062C257.282 91.9062 255.841 93.2538 255.841 94.9163C255.841 96.5787 257.282 97.9263 259.059 97.9263Z" fill="#E4E4E4"/>
<path d="M257.45 159.131C259.228 159.131 260.669 157.783 260.669 156.121C260.669 154.458 259.228 153.111 257.45 153.111C255.673 153.111 254.232 154.458 254.232 156.121C254.232 157.783 255.673 159.131 257.45 159.131Z" fill="#E4E4E4"/>
<path d="M243.207 187.818L241.029 181.296C240.655 179.778 240.18 178.284 239.608 176.821C237.151 169.878 231.755 155.876 225.399 141.247L217.922 134.254L215.851 132.99L213.894 131.801L213.051 132.528L205.022 139.461L204.963 139.918L199.717 181.617C199.717 181.617 199.701 181.733 199.674 181.958C199.615 182.445 199.492 183.438 199.331 184.858C199.025 187.527 198.531 192.188 198.043 198.062H246.624L243.207 187.818Z" fill="#3F3D56"/>
<path opacity="0.2" d="M208.78 158.16L206.742 170.057L220.538 175.38L208.78 158.16Z" fill="black"/>
<path d="M233.482 104.926C230.975 102.365 227.699 100.572 224.084 99.783C220.468 98.9938 216.682 99.2448 213.222 100.503C209.761 101.761 206.788 103.968 204.692 106.835C202.596 109.701 201.475 113.092 201.476 116.565V129.423C201.477 130.037 201.738 130.627 202.202 131.061C202.667 131.496 203.297 131.74 203.954 131.741H235.853C236.509 131.739 237.138 131.494 237.602 131.06C238.066 130.625 238.326 130.037 238.326 129.423V116.565C238.328 112.255 236.599 108.101 233.482 104.926Z" fill="#2F2E41"/>
<path d="M223.424 130.964C230.884 130.964 236.932 125.307 236.932 118.33C236.932 111.352 230.884 105.696 223.424 105.696C215.964 105.696 209.916 111.352 209.916 118.33C209.916 125.307 215.964 130.964 223.424 130.964Z" fill="#FFB8B8"/>
<path d="M233.482 104.926C231.775 104.288 229.952 103.961 228.113 103.963H225.361C223.044 103.963 220.761 104.481 218.701 105.473C216.641 106.465 214.864 107.903 213.518 109.667C213.427 109.777 213.346 109.892 213.266 110.003C211.647 112.244 210.784 114.888 210.788 117.593V117.849H216.597L218.581 112.657L218.978 117.849H221.982L222.98 115.23L223.178 117.849C229.46 120.02 235.977 119.881 242.687 117.849V117.593C242.683 114.863 241.805 112.196 240.164 109.938C238.523 107.68 236.195 105.934 233.482 104.926Z" fill="#2F2E41"/>
<path d="M225.254 130.848C225.242 130.818 225.228 130.79 225.211 130.762C223.393 127.521 221.113 122.56 220.984 117.849C220.909 115.035 221.607 112.306 223.634 110.093L224.02 109.667H208.299V131.746L213.051 132.528L215.851 132.99L222.583 134.103C222.728 134.128 222.875 134.139 223.023 134.139C223.412 134.138 223.796 134.052 224.143 133.886C224.49 133.72 224.79 133.48 225.018 133.185C225.349 132.769 225.516 132.259 225.49 131.74C225.48 131.431 225.4 131.126 225.254 130.848Z" fill="#2F2E41"/>
<path opacity="0.2" d="M200.045 181.037C203.64 184.93 208.516 187.596 213.907 188.615C219.299 189.635 224.899 188.949 229.829 186.668L232.769 185.307L200.045 181.037Z" fill="black"/>
<path d="M352.38 219.078C352.424 218.211 352.671 217.363 353.103 216.595C353.535 215.826 354.142 215.156 354.881 214.63C355.62 214.105 356.473 213.738 357.381 213.554C358.288 213.371 359.228 213.376 360.133 213.568L368.53 202.5L376.967 205.632L364.873 221.107C364.426 222.508 363.445 223.707 362.116 224.477C360.787 225.246 359.203 225.533 357.663 225.283C356.123 225.033 354.735 224.263 353.761 223.12C352.787 221.976 352.296 220.538 352.38 219.078Z" fill="#A0616A"/>
<path d="M361.592 209.559L376.523 186.073L370.44 170.901L378.724 150.237L379.03 150.359C379.23 150.44 383.938 152.405 384.636 159.441L394.156 187.427L368.747 218.258L361.592 209.559Z" fill="#3F3D56"/>
<path d="M280.502 123.216C281.424 123.324 282.308 123.62 283.094 124.082C283.88 124.544 284.548 125.162 285.05 125.892C285.553 126.622 285.879 127.446 286.004 128.306C286.13 129.167 286.052 130.042 285.777 130.871L296.926 139.558L292.935 147.183L277.373 134.709C275.915 134.184 274.713 133.176 273.995 131.878C273.278 130.579 273.094 129.079 273.48 127.663C273.866 126.246 274.793 125.011 276.088 124.191C277.382 123.372 278.953 123.025 280.502 123.216Z" fill="#A0616A"/>
<path d="M289.937 132.542L313.819 148.281L330.462 143.781L351.849 153.105L351.695 153.38C351.594 153.561 349.136 157.798 341.581 157.905L311.012 164.619L280.111 138.541L289.937 132.542Z" fill="#3F3D56"/>
<path d="M333.637 323.932L325.334 323.931L321.384 293.979L333.638 293.98L333.637 323.932Z" fill="#A0616A"/>
<path d="M316.895 321.712H335.416V331.142H309.322V328.796C309.322 326.917 310.12 325.115 311.54 323.787C312.961 322.459 314.887 321.712 316.895 321.712Z" fill="#2F2E41"/>
<path d="M366.82 323.932L358.518 323.931L354.568 293.979L366.821 293.98L366.82 323.932Z" fill="#A0616A"/>
<path d="M350.079 321.712H368.599V331.142H342.506V328.796C342.506 326.917 343.303 325.115 344.724 323.787C346.144 322.459 348.07 321.712 350.079 321.712Z" fill="#2F2E41"/>
<path d="M369.773 214.604L369.096 258.942L368.418 317.214L353.52 315.947L346.07 235.506L336.59 315.947H321.208L319.659 234.873L325.077 217.138L369.773 214.604Z" fill="#2F2E41"/>
<path d="M323.592 217.409L321.322 217.317L331.865 162.998L327.548 146.58C327.324 145.726 327.442 144.824 327.881 144.046C328.32 143.268 329.048 142.668 329.929 142.359L337.696 139.635L340.439 132.577L362.088 134.759L362.62 140.275C364.966 140.979 384.285 146.996 382.952 153.852C381.636 160.62 373.868 181.911 373.474 182.99L372.114 213.525L371.946 213.603C371.745 213.698 356.823 220.56 340.612 220.559C334.904 220.558 329.032 219.707 323.592 217.409Z" fill="#3F3D56"/>
<path d="M364.092 121.499C368.221 114.434 365.445 105.576 357.892 101.714C350.338 97.8522 340.867 100.449 336.738 107.514C332.609 114.578 335.385 123.436 342.939 127.298C350.492 131.16 359.963 128.564 364.092 121.499Z" fill="#A0616A"/>
<path d="M363.041 128.619C360.07 131.578 354.554 129.989 354.167 125.946C354.136 125.632 354.138 125.317 354.173 125.003C354.373 123.212 355.479 121.586 355.214 119.695C355.154 119.225 354.967 118.776 354.67 118.392C352.302 115.428 346.746 119.718 344.512 117.034C343.142 115.389 344.752 112.798 343.701 110.958C342.314 108.531 338.204 109.728 335.627 108.399C332.76 106.92 332.931 102.805 334.819 100.302C337.121 97.2501 341.156 95.6214 345.142 95.3867C349.127 95.152 353.086 96.1597 356.807 97.5159C361.034 99.0569 365.227 101.187 367.828 104.663C370.992 108.892 371.297 114.576 369.714 119.52C368.752 122.528 365.467 126.202 363.041 128.619Z" fill="#2F2E41"/>
<path d="M456.464 332.11H0.536385C0.394127 332.11 0.257695 332.058 0.157103 331.963C0.0565114 331.869 0 331.742 0 331.609C0 331.476 0.0565114 331.348 0.157103 331.254C0.257695 331.16 0.394127 331.107 0.536385 331.107H456.464C456.606 331.107 456.742 331.16 456.843 331.254C456.944 331.348 457 331.476 457 331.609C457 331.742 456.944 331.869 456.843 331.963C456.742 332.058 456.606 332.11 456.464 332.11Z" fill="#3F3D56"/>
<path d="M249.959 186.645H241.606C241.338 186.645 241.079 186.552 240.88 186.384C240.682 186.216 240.558 185.984 240.533 185.734L238.861 169.705H252.704L251.032 185.734C251.007 185.984 250.883 186.216 250.684 186.384C250.486 186.552 250.227 186.645 249.959 186.645Z" fill="#6C63FF"/>
<path d="M252.682 171.722H238.883C238.597 171.721 238.323 171.615 238.121 171.426C237.919 171.237 237.805 170.981 237.805 170.713V168.293C237.805 168.026 237.919 167.77 238.121 167.581C238.323 167.392 238.597 167.285 238.883 167.285H252.682C252.968 167.285 253.242 167.392 253.444 167.581C253.646 167.77 253.76 168.026 253.76 168.293V170.713C253.76 170.981 253.646 171.237 253.444 171.426C253.242 171.615 252.968 171.721 252.682 171.722Z" fill="#3F3D56"/>
<path d="M247.049 178.129C246.446 177.496 245.702 176.994 244.87 176.659C244.038 176.323 243.137 176.163 242.231 176.188C241.325 176.214 240.436 176.425 239.627 176.807C238.818 177.188 238.108 177.731 237.548 178.397L223.909 174.816L219.561 182.037L238.897 186.841C240.156 187.648 241.687 187.995 243.201 187.816C244.715 187.637 246.106 186.945 247.11 185.871C248.115 184.798 248.664 183.416 248.652 181.989C248.641 180.562 248.07 179.189 247.049 178.129Z" fill="#FFB8B8"/>
<path d="M224.873 174.212L218.399 170.355L216.554 169.542L208.213 165.865C208.46 165.072 209.168 162.704 209.838 159.704C211.405 152.686 212.74 142.205 207.35 140.369C206.585 140.099 205.779 139.947 204.963 139.918C203.87 139.881 202.786 140.112 201.819 140.59C197.781 142.562 196.177 148.11 196.118 148.316L191.124 161.134C190.663 161.726 185.916 167.876 186.683 172.432C186.779 173.086 187.02 173.714 187.389 174.277C187.758 174.84 188.248 175.326 188.828 175.702C192.285 178.019 195.909 180.11 199.674 181.958C200.548 182.38 201.403 182.769 202.238 183.127C206.915 185.124 211.04 186.142 214.505 186.142C215.638 186.151 216.767 186.028 217.868 185.776L231.326 185.49L231.412 185.129L231.444 184.989L233.23 177.263L233.734 175.075L224.873 174.212Z" fill="#3F3D56"/>
</g>
<defs>
<clipPath id="clip0_66_1501">
<rect width="457" height="333" fill="white"/>
</clipPath>
</defs>
</svg>
