<svg width="255" height="441" viewBox="0 0 255 441" fill="none" xmlns="http://www.w3.org/2000/svg">
<path d="M198 418C198 418.555 197.598 419 197.098 419H0.901993C0.401733 419 0 418.555 0 418C0 417.445 0.401733 417 0.901993 417H197.098C197.598 417 198 417.445 198 418Z" fill="#484565"/>
<path d="M94.8544 21.2474C94.8544 21.2474 111.466 17.2482 121.52 41.4087C129.898 61.5475 135.842 72.3022 129.041 79.6076C126.608 82.2209 123.135 83.6293 119.556 83.7498L81.2675 85C81.2675 85 67.2106 48.3827 75.7555 35.1427C84.3003 21.8951 94.8544 21.2474 94.8544 21.2474Z" fill="#2F2E41"/>
<path d="M87 82.0595L105 88V62H88.6674L87 82.0595Z" fill="#F6A6A9"/>
<path d="M101 403H118.094L128 311H101.586L101 403Z" fill="#F6A6A9"/>
<path d="M135.236 418C137.041 418 138.649 417.954 139.865 417.84C144.433 417.423 148.782 414.034 150.972 412.051C151.953 411.161 152.27 409.741 151.757 408.517C151.387 407.636 150.654 406.982 149.748 406.724L137.69 403.259L118.165 390L117.946 390.395C117.863 390.539 115.945 394.02 115.303 396.367C115.062 397.264 115.122 398.009 115.492 398.579C115.749 398.981 116.104 399.209 116.398 399.338C116.043 399.711 114.933 400.463 111.528 401.01C106.545 401.808 105.503 396.611 105.457 396.39L105.427 396.215L105.276 396.117C102.905 394.582 101.448 393.883 100.942 394.027C100.625 394.118 100.104 394.278 98.6923 408.426C98.5488 408.867 97.5597 412.126 98.2317 415.234C98.9641 418.623 113.665 417.453 116.609 417.187C116.693 417.195 127.701 417.985 135.244 417.985V418H135.236Z" fill="#2F2E41"/>
<path d="M62 403H79.0862L89 311H62.5858L62 403Z" fill="#F6A6A9"/>
<path d="M96.2364 418C98.041 418 99.6492 417.954 100.865 417.84C105.433 417.423 109.782 414.034 111.972 412.051C112.953 411.161 113.27 409.741 112.757 408.517C112.387 407.636 111.654 406.982 110.748 406.724L98.6903 403.259L79.1649 390L78.9459 390.395C78.8629 390.539 76.945 394.02 76.3032 396.367C76.0616 397.264 76.122 398.009 76.492 398.579C76.7487 398.981 77.1036 399.209 77.3981 399.338C77.0432 399.711 75.9333 400.463 72.528 401.01C67.5447 401.808 66.5028 396.611 66.4575 396.39L66.4273 396.215L66.2763 396.117C63.9054 394.582 62.4482 393.883 61.9423 394.027C61.6252 394.118 61.1042 394.278 59.6923 408.426C59.5488 408.867 58.5597 412.126 59.2317 415.234C59.9641 418.623 74.6648 417.453 77.6095 417.187C77.6925 417.195 88.7011 417.985 96.244 417.985V418H96.2364Z" fill="#2F2E41"/>
<path d="M57 177H141L110.807 78H77.3162L57 177Z" fill="#DDDEDF"/>
<path d="M143.317 232.358C144.317 238.332 148.361 242.62 152.352 241.926C156.344 241.233 158.775 235.833 157.775 229.86C157.412 227.466 156.45 225.206 154.973 223.26L150.414 198L138 200.558L143.817 225.184C143.052 227.51 142.878 229.972 143.309 232.358H143.317Z" fill="#F6A6A9"/>
<path d="M105 78.0151C105 78.0151 125.84 77.4685 128.033 82.9497C130.227 88.4385 156 219 156 219H139L105 78.0151Z" fill="#DDDEDF"/>
<path d="M101 68C91.0589 68 83 59.7173 83 49.5C83 39.2827 91.0589 31 101 31C110.941 31 119 39.2827 119 49.5C119 59.7173 110.941 68 101 68Z" fill="#F6A6A9"/>
<path d="M98 27.0076C98 27.0076 121.347 62.105 117.418 84L131 75.3984C131 75.3984 121.437 31.0769 107.187 27.6377L98 27V27.0076Z" fill="#2F2E41"/>
<path d="M74.6613 177H129.779L159.94 300.713C160.494 305.937 157.182 310.812 152.099 312.171C135.553 316.597 95.8498 322.877 35.7485 305.398C29.9671 303.72 26.6851 297.623 28.5008 291.882L74.6613 177.008V177Z" fill="#2F2E41"/>
<path d="M148.634 95.8062L149.012 95.4285L149.39 95.8062C167.797 77.4408 197.629 77.4634 216.021 95.844C234.413 114.232 234.784 144.39 216.377 162.756L148.967 230L81.6018 162.673C63.2096 144.285 63.5955 114.126 81.9952 95.7609C100.402 77.3954 130.234 77.4181 148.626 95.7986L148.634 95.8062Z" fill="#6C63FF"/>
<path d="M99 87.2539L83.6432 79.4575C76.6219 76.8864 68.7907 77.7485 62.5105 81.7942C43.41 94.09 5.75919 121.2 21.9411 134.6C43.2649 152.265 72.0913 120.935 72.0913 120.935L99 87.2539Z" fill="#DDDEDF"/>
<path d="M99.4191 100.569C104.762 97.4851 107.383 92.2003 105.266 88.7644C103.149 85.336 97.1032 85.0591 91.7529 88.1431C89.5975 89.3483 87.786 91.055 86.4714 93.121L64 106.49L70.9707 117L92.3873 102.703C94.8943 102.56 97.3096 101.827 99.4268 100.562H99.4191V100.569Z" fill="#F6A6A9"/>
<path d="M84 113.001L77.7143 98L47 108.156L60.7368 131L84 113.001Z" fill="#DDDEDF"/>
</svg>
