<svg width="474" height="402" viewBox="0 0 474 402" fill="none" xmlns="http://www.w3.org/2000/svg">
<g clip-path="url(#clip0_66_1596)">
<path d="M278.355 103.202H264.303C263.586 103.201 262.899 102.916 262.392 102.409C261.886 101.903 261.601 101.216 261.6 100.5V86.4516C261.601 85.7354 261.886 85.0487 262.392 84.5422C262.899 84.0357 263.586 83.7508 264.303 83.75H278.355C279.072 83.7508 279.759 84.0357 280.265 84.5422C280.772 85.0487 281.057 85.7354 281.058 86.4516V100.5C281.057 101.216 280.772 101.903 280.265 102.409C279.759 102.916 279.072 103.201 278.355 103.202ZM264.303 84.8306C263.873 84.8311 263.46 85.002 263.156 85.3059C262.852 85.6098 262.681 86.0218 262.681 86.4516V100.5C262.681 100.93 262.852 101.342 263.156 101.646C263.46 101.95 263.873 102.12 264.303 102.121H278.355C278.785 102.12 279.197 101.95 279.501 101.646C279.805 101.342 279.976 100.93 279.977 100.5V86.4516C279.976 86.0218 279.805 85.6098 279.501 85.3059C279.197 85.002 278.785 84.8311 278.355 84.8306H264.303Z" fill="#E6E6E6"/>
<path d="M114.585 19.4516H100.532C99.8158 19.4508 99.1288 19.1659 98.6222 18.6594C98.1156 18.153 97.8306 17.4663 97.8298 16.75V2.70161C97.8306 1.98535 98.1156 1.29866 98.6222 0.792189C99.1288 0.285716 99.8158 0.000819427 100.532 0H114.585C115.302 0.000819427 115.989 0.285716 116.495 0.792189C117.002 1.29866 117.287 1.98535 117.288 2.70161V16.75C117.287 17.4663 117.002 18.153 116.495 18.6594C115.989 19.1659 115.302 19.4508 114.585 19.4516ZM100.532 1.08065C100.102 1.08111 99.6902 1.25204 99.3862 1.55593C99.0822 1.85982 98.9112 2.27185 98.9108 2.70161V16.75C98.9112 17.1798 99.0822 17.5918 99.3862 17.8957C99.6902 18.1996 100.102 18.3705 100.532 18.371H114.585C115.015 18.3705 115.427 18.1996 115.731 17.8957C116.035 17.5918 116.206 17.1798 116.207 16.75V2.70161C116.206 2.27185 116.035 1.85982 115.731 1.55593C115.427 1.25204 115.015 1.08111 114.585 1.08065H100.532Z" fill="#E6E6E6"/>
<path d="M269.707 96.1774H255.655C254.938 96.1766 254.251 95.8917 253.745 95.3852C253.238 94.8787 252.953 94.1921 252.952 93.4758V79.4274C252.953 78.7112 253.238 78.0245 253.745 77.518C254.251 77.0115 254.938 76.7266 255.655 76.7258H269.707C270.424 76.7266 271.111 77.0115 271.618 77.518C272.124 78.0245 272.409 78.7112 272.41 79.4274V93.4758C272.409 94.1921 272.124 94.8787 271.618 95.3852C271.111 95.8917 270.424 96.1766 269.707 96.1774ZM255.655 77.8064C255.225 77.8069 254.813 77.9778 254.509 78.2817C254.205 78.5856 254.034 78.9976 254.033 79.4274V93.4758C254.034 93.9056 254.205 94.3176 254.509 94.6215C254.813 94.9254 255.225 95.0963 255.655 95.0968H269.707C270.137 95.0963 270.55 94.9254 270.854 94.6215C271.157 94.3176 271.328 93.9056 271.329 93.4758V79.4274C271.328 78.9976 271.157 78.5856 270.854 78.2817C270.55 77.9778 270.137 77.8069 269.707 77.8064H255.655Z" fill="#E6E6E6"/>
<path d="M25.4033 213.427H11.3504C10.6339 213.427 9.94703 213.142 9.44039 212.635C8.93376 212.129 8.64877 211.442 8.64795 210.726V196.677C8.64877 195.961 8.93376 195.274 9.44039 194.768C9.94703 194.262 10.6339 193.977 11.3504 193.976H25.4033C26.1198 193.977 26.8067 194.262 27.3134 194.768C27.82 195.274 28.105 195.961 28.1058 196.677V210.726C28.105 211.442 27.82 212.129 27.3134 212.635C26.8067 213.142 26.1198 213.427 25.4033 213.427ZM11.3504 195.056C10.9205 195.057 10.5084 195.228 10.2044 195.532C9.9004 195.836 9.72941 196.248 9.72894 196.677V210.726C9.72941 211.156 9.9004 211.568 10.2044 211.871C10.5084 212.175 10.9205 212.346 11.3504 212.347H25.4033C25.8332 212.346 26.2454 212.175 26.5494 211.871C26.8534 211.568 27.0243 211.156 27.0248 210.726V196.677C27.0243 196.248 26.8534 195.836 26.5494 195.532C26.2454 195.228 25.8332 195.057 25.4033 195.056H11.3504Z" fill="#E6E6E6"/>
<path d="M16.7554 206.403H2.70248C1.98599 206.402 1.29908 206.118 0.792443 205.611C0.285807 205.105 0.00081969 204.418 0 203.702V189.653C0.00081969 188.937 0.285807 188.25 0.792443 187.744C1.29908 187.237 1.98599 186.952 2.70248 186.952H16.7554C17.4719 186.952 18.1588 187.237 18.6654 187.744C19.172 188.25 19.457 188.937 19.4579 189.653V203.702C19.457 204.418 19.172 205.105 18.6654 205.611C18.1588 206.118 17.4719 206.402 16.7554 206.403ZM2.70248 188.032C2.27258 188.033 1.86042 188.204 1.55643 188.508C1.25245 188.811 1.08146 189.223 1.08099 189.653V203.702C1.08146 204.131 1.25245 204.543 1.55643 204.847C1.86042 205.151 2.27258 205.322 2.70248 205.323H16.7554C17.1853 205.322 17.5974 205.151 17.9014 204.847C18.2054 204.543 18.3764 204.131 18.3769 203.702V189.653C18.3764 189.223 18.2054 188.811 17.9014 188.508C17.5974 188.204 17.1853 188.033 16.7554 188.032H2.70248Z" fill="#E6E6E6"/>
<path d="M49.9577 46.4886H180.009C186.285 46.4886 192.374 48.6231 197.275 52.5411C202.177 56.4592 205.599 61.9277 206.979 68.0478L272.691 359.426C273.408 362.604 273.421 365.901 272.728 369.084C272.036 372.268 270.655 375.261 268.683 377.855C266.711 380.449 264.196 382.58 261.312 384.099C258.429 385.618 255.249 386.488 251.994 386.649L118.3 393.234C111.141 393.586 104.098 391.323 98.4859 386.866C92.8736 382.409 89.0752 376.063 87.7993 369.012L50.5232 163.005L47.75 163.797L40.6176 124.751L43.4722 124.037L33.0671 66.5332C32.6214 64.0702 32.7248 61.5392 33.3698 59.1207C34.0148 56.7022 35.1856 54.4557 36.7987 52.5414C38.4117 50.6271 40.4274 49.0921 42.702 48.0459C44.9765 46.9997 47.454 46.4679 49.9577 46.4886Z" fill="#3F3D56"/>
<path d="M162.888 52.7699H178.069C182.429 52.7699 186.657 54.2605 190.053 56.9941C193.448 59.7278 195.807 63.5401 196.736 67.7982L259.811 356.799C260.174 358.463 260.174 360.186 259.81 361.85C259.446 363.513 258.727 365.079 257.703 366.44C256.678 367.8 255.372 368.924 253.873 369.734C252.374 370.543 250.719 371.02 249.019 371.131L115.757 379.863C111.998 380.109 108.279 378.963 105.311 376.643C102.343 374.323 100.333 370.992 99.6651 367.285L45.8427 68.5745C45.4944 66.6411 45.5747 64.6549 46.0781 62.7559C46.5815 60.857 47.4956 59.0916 48.756 57.5844C50.0164 56.0772 51.5923 54.8649 53.3726 54.033C55.1528 53.2011 57.094 52.77 59.0591 52.77H73.4606C74.8545 52.77 76.2095 53.2293 77.3158 54.0769C78.4221 54.9245 79.2181 56.1131 79.5805 57.4586C79.9004 58.6464 80.6031 59.6957 81.5798 60.444C82.5565 61.1923 83.7527 61.5978 84.9832 61.5978H153.352C155.762 61.5978 158.083 60.6886 159.851 59.0519C161.619 57.4152 162.703 55.1717 162.888 52.7699Z" fill="white"/>
<path d="M56.2116 101.908H200.781L216.183 171.282L69.724 173.984L56.2116 101.908Z" fill="#6C63FF"/>
<path d="M193.497 233.286H227.533L228.614 239.8H194.578L193.497 233.286Z" fill="#6C63FF"/>
<path d="M221.19 200.058L76.8424 203.114L76.8568 203.793L221.204 200.737L221.19 200.058Z" fill="#2F2E41"/>
<path d="M225.604 220.09L78.54 223.485L78.5557 224.165L225.62 220.769L225.604 220.09Z" fill="#2F2E41"/>
<path d="M207.55 302.988H241.586L242.667 309.502H208.631L207.55 302.988Z" fill="#6C63FF"/>
<path d="M235.243 269.759L90.8953 272.815L90.9097 273.494L235.257 270.438L235.243 269.759Z" fill="#2F2E41"/>
<path d="M239.657 289.792L92.5929 293.187L92.6086 293.866L239.673 290.471L239.657 289.792Z" fill="#2F2E41"/>
<path d="M332.708 395.088L326.268 395.087L323.204 370.256L332.709 370.256L332.708 395.088Z" fill="#A0616A"/>
<path d="M334.35 401.328L313.585 401.327V401.065C313.585 398.922 314.436 396.867 315.952 395.352C317.468 393.837 319.524 392.985 321.667 392.985L334.35 392.986L334.35 401.328Z" fill="#2F2E41"/>
<path d="M412.71 390.872L406.442 392.348L397.765 368.879L407.017 366.701L412.71 390.872Z" fill="#A0616A"/>
<path d="M415.74 396.57L395.527 401.328L395.467 401.073C394.976 398.987 395.333 396.791 396.461 394.969C397.589 393.147 399.395 391.847 401.481 391.356L413.827 388.45L415.74 396.57Z" fill="#2F2E41"/>
<path d="M331.392 290.351C331.404 289.057 331.787 258.518 340.161 246.971L340.285 246.8L369.467 250.825L368.815 257.235C370.098 258.483 380.195 269.03 383.11 294.006L414.085 377.169L399.685 378.478L357.059 287.694L334.501 386.376H320.226L331.392 290.351Z" fill="#2F2E41"/>
<path d="M336.742 248.097L339.595 233.126C339.037 232.407 336.562 228.956 337.113 224.911C337.472 222.272 339.048 219.957 341.798 218.031L349.192 200.783L349.292 200.725C349.79 200.432 361.562 193.626 367.98 200.047C368.141 200.171 383.943 212.711 377.597 229.627L369.764 253.123L336.742 248.097Z" fill="#CCCCCC"/>
<path d="M326.818 268.352C327.587 268.264 328.327 268.009 328.987 267.604C329.647 267.199 330.21 266.654 330.636 266.008C331.063 265.362 331.342 264.631 331.455 263.865C331.568 263.099 331.512 262.318 331.291 261.577L346.56 250.579L337.419 247.103L324.32 258.08C323.099 258.535 322.087 259.421 321.476 260.572C320.865 261.724 320.697 263.059 321.005 264.325C321.313 265.591 322.074 266.7 323.146 267.443C324.217 268.185 325.524 268.509 326.818 268.352Z" fill="#A0616A"/>
<path d="M329.624 250.561L352.936 232.2L346.005 208.53C345.679 207.409 345.586 206.233 345.734 205.075C345.882 203.917 346.266 202.802 346.864 201.799C347.417 200.853 348.162 200.033 349.051 199.392C349.939 198.751 350.952 198.303 352.024 198.075C356.015 197.231 359.637 199.465 362.789 204.716L362.813 204.763C363.334 206.038 375.479 236.049 366.206 242.466C357.135 248.744 336.1 257.883 335.889 257.975L335.642 258.082L329.624 250.561Z" fill="#CCCCCC"/>
<path d="M360.606 193.805C368.406 193.805 374.728 187.484 374.728 179.687C374.728 171.891 368.406 165.57 360.606 165.57C352.807 165.57 346.484 171.891 346.484 179.687C346.484 187.484 352.807 193.805 360.606 193.805Z" fill="#A0616A"/>
<path d="M382.746 174.648C389.646 174.648 395.239 169.056 395.239 162.159C395.239 155.261 389.646 149.669 382.746 149.669C375.846 149.669 370.253 155.261 370.253 162.159C370.253 169.056 375.846 174.648 382.746 174.648Z" fill="#2F2E41"/>
<path d="M393.522 172.5C391.905 173.669 390.032 174.433 388.059 174.729C386.086 175.025 384.07 174.845 382.181 174.203C380.292 173.561 378.585 172.476 377.201 171.039C375.818 169.602 374.799 167.854 374.229 165.943C374.445 167.656 375.013 169.305 375.899 170.788C376.784 172.27 377.967 173.553 379.374 174.555C380.78 175.557 382.379 176.257 384.07 176.61C385.76 176.963 387.506 176.962 389.196 176.607C390.886 176.252 392.484 175.55 393.889 174.546C395.295 173.543 396.476 172.258 397.36 170.775C398.244 169.292 398.81 167.641 399.024 165.928C399.237 164.215 399.093 162.476 398.6 160.821C398.88 163.044 398.556 165.302 397.663 167.357C396.769 169.412 395.339 171.188 393.522 172.5Z" fill="#2F2E41"/>
<path d="M344.218 172.514C346.399 168.611 347.234 166.98 350.046 164.607C352.533 162.508 355.592 161.891 358.059 163.88C360.977 162.62 364.225 162.334 367.319 163.065C370.413 163.797 373.189 165.506 375.233 167.94C377.278 170.374 378.483 173.402 378.669 176.575C378.855 179.748 378.012 182.897 376.266 185.553C374.519 188.209 371.962 190.23 368.975 191.318C365.987 192.406 362.729 192.501 359.683 191.59C356.637 190.678 353.966 188.809 352.068 186.26C350.169 183.71 349.144 180.617 349.144 177.438C349.146 176.88 349.18 176.322 349.244 175.768C347.1 175.467 346.363 172.815 344.218 172.514Z" fill="#2F2E41"/>
<path d="M473.46 402H267.531C267.387 402 267.25 401.943 267.148 401.842C267.047 401.74 266.99 401.603 266.99 401.46C266.99 401.316 267.047 401.179 267.148 401.078C267.25 400.976 267.387 400.919 267.531 400.919H473.46C473.603 400.919 473.74 400.976 473.842 401.078C473.943 401.179 474 401.316 474 401.46C474 401.603 473.943 401.74 473.842 401.842C473.74 401.943 473.603 402 473.46 402Z" fill="#3F3D56"/>
</g>
<defs>
<clipPath id="clip0_66_1596">
<rect width="474" height="402" fill="white"/>
</clipPath>
</defs>
</svg>
