<svg width="25" height="25" viewBox="0 0 25 25" fill="none" xmlns="http://www.w3.org/2000/svg">
<path d="M12.501 9.37504C10.7746 9.37504 9.37602 10.7741 9.37602 12.5C9.37602 14.2264 10.7751 15.625 12.501 15.625C14.2274 15.625 15.626 14.226 15.626 12.5C15.626 10.7737 14.227 9.37504 12.501 9.37504ZM12.501 7.29171C15.3765 7.29171 17.7094 9.62202 17.7094 12.5C17.7094 15.3756 15.3791 17.7084 12.501 17.7084C9.62553 17.7084 7.29268 15.3781 7.29268 12.5C7.29268 9.62455 9.623 7.29171 12.501 7.29171ZM19.2719 7.03041C19.2719 7.74927 18.6877 8.33251 17.9698 8.33251C17.2509 8.33251 16.6677 7.74837 16.6677 7.03041C16.6677 6.31244 17.2518 5.72921 17.9698 5.72921C18.6868 5.7283 19.2719 6.31244 19.2719 7.03041ZM12.501 4.16671C9.92343 4.16671 9.50331 4.17353 8.30444 4.22692C7.48765 4.26526 6.94013 4.37511 6.43141 4.57261C5.97933 4.74795 5.65322 4.95731 5.30575 5.30478C4.95694 5.65358 4.74795 5.97882 4.57333 6.43111C4.37537 6.941 4.26555 7.48766 4.22789 8.30332C4.17399 9.45337 4.16768 9.8553 4.16768 12.5C4.16768 15.0776 4.17451 15.4977 4.22788 16.6965C4.26625 17.513 4.37625 18.0613 4.57327 18.5688C4.74906 19.0215 4.95885 19.3484 5.30464 19.6942C5.65482 20.0439 5.98103 20.2536 6.42903 20.4265C6.94394 20.6256 7.49112 20.7356 8.30429 20.7732C9.45435 20.827 9.85628 20.8334 12.501 20.8334C15.0786 20.8334 15.4987 20.8265 16.6975 20.7732C17.5122 20.7349 18.0609 20.6246 18.5698 20.4277C19.0212 20.2524 19.3492 20.0419 19.6952 19.6964C20.0454 19.3457 20.2547 19.0202 20.4278 18.5712C20.6264 18.0582 20.7366 17.5102 20.7742 16.6968C20.828 15.5467 20.8344 15.1447 20.8344 12.5C20.8344 9.92246 20.8275 9.50234 20.7742 8.30355C20.7358 7.48865 20.6255 6.93909 20.4284 6.43044C20.2535 5.9796 20.0434 5.65249 19.6962 5.30478C19.3469 4.9554 19.0225 4.74684 18.5699 4.57235C18.0604 4.37456 17.5129 4.26458 16.6977 4.22693C15.5477 4.17301 15.1457 4.16671 12.501 4.16671ZM12.501 2.08337C15.3308 2.08337 15.6842 2.09379 16.7953 2.14587C17.9037 2.19709 18.6599 2.37244 19.324 2.63025C20.0105 2.89501 20.5904 3.25264 21.1694 3.83163C21.7475 4.41063 22.1052 4.99223 22.3708 5.67712C22.6277 6.34032 22.8031 7.09726 22.8552 8.20577C22.9047 9.31688 22.9177 9.67018 22.9177 12.5C22.9177 15.3299 22.9073 15.6832 22.8552 16.7943C22.804 17.9029 22.6277 18.6589 22.3708 19.323C22.106 20.0096 21.7475 20.5894 21.1694 21.1685C20.5904 21.7466 20.0079 22.1042 19.324 22.3698C18.6599 22.6268 17.9037 22.8021 16.7953 22.8542C15.6842 22.9037 15.3308 22.9167 12.501 22.9167C9.67115 22.9167 9.31785 22.9063 8.20675 22.8542C7.09824 22.803 6.34303 22.6268 5.6781 22.3698C4.99233 22.105 4.4116 21.7466 3.83261 21.1685C3.25362 20.5894 2.89685 20.007 2.63123 19.323C2.37341 18.6589 2.19893 17.9029 2.14685 16.7943C2.09737 15.6832 2.08435 15.3299 2.08435 12.5C2.08435 9.67018 2.09477 9.31688 2.14685 8.20577C2.19806 7.09639 2.37341 6.34119 2.63123 5.67712C2.89598 4.99136 3.25362 4.41063 3.83261 3.83163C4.4116 3.25264 4.9932 2.89587 5.6781 2.63025C6.34216 2.37244 7.09737 2.19796 8.20675 2.14587C9.31785 2.09639 9.67115 2.08337 12.501 2.08337Z" fill="white"/>
</svg>
