<svg width="43" height="51" viewBox="0 0 43 51" fill="none" xmlns="http://www.w3.org/2000/svg">
<path d="M17.2596 23.601C15.8369 25.3062 15.8129 28.0396 17.2051 29.7799L18.8481 31.8326C20.1446 33.4528 22.3128 33.4953 23.6537 31.9266L28.3266 26.4624C28.8305 25.8731 29.6456 25.8891 30.1328 26.498C30.6126 27.0974 30.5912 28.0438 30.0857 28.6124L22.2588 37.41C21.7529 37.9791 20.9527 37.9546 20.4719 37.3552L12.9055 27.9269C12.4401 27.3472 12.4423 26.4364 12.9103 25.8593L27.9148 7.37047C28.3855 6.79073 28.3849 5.87463 27.9137 5.29542L25.4465 2.26336C23.029 -0.707055 19.0252 -0.760724 16.5515 2.1438L2.40111 18.7601C-0.735225 22.4431 -0.808499 28.419 2.23691 32.2077L14.3271 47.2495C18.3165 52.2126 24.9913 52.2557 29.0262 47.3441L40.9709 32.8034C43.6376 29.5572 43.681 24.4044 41.0704 21.0955L32.9921 10.859C31.6395 9.14528 29.3541 9.10755 27.9619 10.7761" fill="white"/>
</svg>
