<svg width="56" height="55" viewBox="0 0 56 55" fill="none" xmlns="http://www.w3.org/2000/svg">
<path d="M0.712624 0.893563C-0.750509 2.44678 0.127371 4 2.54154 4C4.2973 4 4.8094 3.68936 4.95571 2.50891C5.39465 0.210147 2.46838 -0.90817 0.712624 0.893563Z" fill="#5C5CFF"/>
<path d="M10.9239 0.524437C10.2206 0.772692 9.86898 1.70365 10.0448 2.51047C10.2206 3.68968 10.836 4 12.9459 4C15.8469 4 16.9019 2.44841 15.1437 0.896819C13.9129 -0.158263 12.5942 -0.28239 10.9239 0.524437Z" fill="#5C5CFF"/>
<path d="M21.5397 0.813597C20.3033 2.03022 21.3337 4 23.1884 4C25.4552 4 26.623 2.6675 25.6613 1.1612C24.837 -0.229226 22.7762 -0.403029 21.5397 0.813597Z" fill="#5C5CFF"/>
<path d="M30.7131 0.923077C29.249 2.46154 30.1275 4 32.5431 4C34.0804 4 34.8124 3.69231 34.9588 2.89231C35.2516 1.6 33.934 0 32.5431 0C32.0307 0 31.2255 0.430769 30.7131 0.923077Z" fill="#5C5CFF"/>
<path d="M40.9239 0.524437C40.2206 0.772692 39.869 1.70365 40.0448 2.51047C40.2206 3.68968 40.836 4 42.9459 4C45.8469 4 46.9019 2.44841 45.1437 0.896819C43.9129 -0.158263 42.5942 -0.28239 40.9239 0.524437Z" fill="#5C5CFF"/>
<path d="M51.3878 0.822964C51.0467 1.28693 50.8761 2.15688 51.1036 2.85283C51.5584 4.30274 54.0031 4.41874 54.7422 2.96883C55.8793 0.764968 52.9798 -1.14891 51.3878 0.822964Z" fill="#5C5CFF"/>
<path d="M0.507959 9.42849C0.217697 9.78671 0 11.0405 0 12.1152C0 13.6376 0.507959 14.354 1.8867 14.8018C4.13623 15.5183 5.29728 14.2645 4.93446 11.4883C4.78932 9.96582 4.2088 9.24938 2.90262 9.07027C1.8867 8.89115 0.798221 9.07027 0.507959 9.42849Z" fill="#5C5CFF"/>
<path d="M10.337 10.259C9.43495 12.524 10.4272 14.7018 12.3214 14.9631C14.7569 15.3116 16.561 13.1338 15.8393 10.7817C15.2079 8.691 11.0586 8.34254 10.337 10.259Z" fill="#5C5CFF"/>
<path d="M21.4449 10.3817C20.3498 12.1478 21.3765 14.6203 23.4299 14.9735C25.278 15.3268 26.7839 12.0595 25.5518 10.2051C24.5251 8.52727 22.6086 8.61558 21.4449 10.3817Z" fill="#5C5CFF"/>
<path d="M30.2485 9.75935C29.9318 10.2941 29.9318 11.7201 30.1693 12.9678C30.5653 14.7502 31.1196 15.1958 32.8618 14.9285C34.6832 14.7502 35 14.2155 35 11.9874C35 9.75935 34.6832 9.22461 32.8618 9.04637C31.7532 8.86812 30.5653 9.22461 30.2485 9.75935Z" fill="#5C5CFF"/>
<path d="M40.3637 10.0555C39.3905 12.2211 40.4521 14 42.5754 14C45.4065 14 46.9105 11.8344 45.4065 10.2102C43.9025 8.66329 40.983 8.58595 40.3637 10.0555Z" fill="#5C5CFF"/>
<path d="M51.4117 10.3153C50.9126 11.3022 50.8572 12.1098 51.3008 13.1864C52.1325 15.3398 53.7406 15.609 54.5723 13.8145C56.1249 10.405 53.0752 7.08523 51.4117 10.3153Z" fill="#5C5CFF"/>
<path d="M0.98791 20.5346C-0.507484 21.5743 -0.283175 23.5843 1.5113 24.624C2.40854 25.1785 3.08146 25.1092 3.90393 24.4854C6.59564 22.406 3.82916 18.5939 0.98791 20.5346Z" fill="#5C5CFF"/>
<path d="M11.0199 19.901C9.37181 21.388 9.80552 24.2835 11.7139 24.8314C15.4438 25.927 17.6991 21.388 14.4029 19.7445C12.3211 18.7271 12.3211 18.7271 11.0199 19.901Z" fill="#5C5CFF"/>
<path d="M21.8832 20.2C20.1464 22.225 21.1113 25 23.5556 25C24.5205 25 26 22.975 26 21.7C26 21.1 24.0059 19 23.427 19C23.1054 19 22.3978 19.525 21.8832 20.2Z" fill="#5C5CFF"/>
<path d="M31.267 20.6312C29.6412 21.4119 29.5673 23.3638 31.1192 24.535C33.4102 26.2266 36.2923 22.9084 34.3709 20.8914C33.3363 19.7853 32.9668 19.7203 31.267 20.6312Z" fill="#5C5CFF"/>
<path d="M41.0199 19.901C39.3718 21.388 39.8055 24.2835 41.7139 24.8314C45.4438 25.927 47.6991 21.388 44.4029 19.7445C42.3211 18.7271 42.3211 18.7271 41.0199 19.901Z" fill="#5C5CFF"/>
<path d="M52.0216 20.2515C50.6709 21.7377 50.6709 23.2239 51.9541 24.4755C53.1021 25.5706 55.3982 24.8666 55.9385 23.1457C56.3437 21.9724 54.6554 19 53.5748 19C53.3047 19 52.5618 19.5475 52.0216 20.2515Z" fill="#5C5CFF"/>
<path d="M0.712624 30.117C-0.750509 32.0585 0.127371 34 2.54154 34C4.2973 34 4.8094 33.6117 4.95571 32.1361C5.39465 29.2627 2.46838 27.8648 0.712624 30.117Z" fill="#5C5CFF"/>
<path d="M10.2698 30.1159C10.0036 30.7163 9.91487 31.8422 10.0923 32.5927C10.5359 34.4691 15.5046 34.4691 15.9482 32.5927C16.5693 29.8157 11.4232 27.564 10.2698 30.1159Z" fill="#5C5CFF"/>
<path d="M21.5397 30.017C20.3033 31.5378 21.3337 34 23.1884 34C25.4552 34 26.623 32.3344 25.6613 30.4515C24.837 28.7135 22.7762 28.4962 21.5397 30.017Z" fill="#5C5CFF"/>
<path d="M30.7126 30.117C29.2495 32.0585 30.1274 34 32.5415 34C34.2973 34 34.8094 33.6117 34.9557 32.1361C35.3947 29.2627 32.4684 27.8648 30.7126 30.117Z" fill="#5C5CFF"/>
<path d="M40.9239 29.6555C40.2206 29.9659 39.869 31.1296 40.0448 32.1381C40.2206 33.6121 40.836 34 42.9459 34C45.8469 34 46.9019 32.0605 45.1437 30.121C43.9129 28.8022 42.5942 28.647 40.9239 29.6555Z" fill="#5C5CFF"/>
<path d="M51.5397 30.017C50.3033 31.5378 51.3337 34 53.1884 34C55.4552 34 56.623 32.3344 55.6613 30.4515C54.837 28.7135 52.7762 28.4962 51.5397 30.017Z" fill="#5C5CFF"/>
<path d="M0.27943 40.9843C-0.452486 43.4252 0.27943 45 2.17021 45C3.81702 45 4 44.7638 4 42.6378C4 40.6693 3.75603 40.2756 2.2922 40.0394C1.25532 39.8819 0.523402 40.1969 0.27943 40.9843Z" fill="#5C5CFF"/>
<path d="M10.337 41.0492C9.43495 42.9366 10.4272 44.7515 12.3214 44.9693C14.7569 45.2597 16.561 43.4448 15.8393 41.4848C15.2079 39.7425 11.0586 39.4521 10.337 41.0492Z" fill="#5C5CFF"/>
<path d="M21.4458 41.2308C20.3193 42.8462 21.4458 45 23.5 45C25.5542 45 26.6807 42.8462 25.5542 41.2308C25.0241 40.5385 24.1626 40 23.5 40C22.8374 40 21.9759 40.5385 21.4458 41.2308Z" fill="#5C5CFF"/>
<path d="M30.2485 40.6328C29.9318 41.0784 29.9318 42.2667 30.1693 43.3065C30.5653 44.7919 31.1196 45.1632 32.8618 44.9404C34.6832 44.7919 35 44.3462 35 42.4895C35 40.6328 34.6832 40.1872 32.8618 40.0386C31.7532 39.8901 30.5653 40.1872 30.2485 40.6328Z" fill="#5C5CFF"/>
<path d="M40.3637 41.0555C39.3905 43.2211 40.4521 45 42.5754 45C45.4065 45 46.9105 42.8344 45.4065 41.2102C43.9025 39.6633 40.983 39.586 40.3637 41.0555Z" fill="#5C5CFF"/>
<path d="M51.4117 41.0961C50.9126 41.9185 50.8572 42.5915 51.3008 43.4887C52.1325 45.2832 53.7406 45.5075 54.5723 44.0121C56.1249 41.1708 53.0752 38.4044 51.4117 41.0961Z" fill="#5C5CFF"/>
<path d="M0.98791 50.5346C-0.507484 51.5743 -0.283175 53.5843 1.5113 54.624C2.40854 55.1785 3.08146 55.1092 3.90393 54.4854C6.59564 52.406 3.82916 48.5939 0.98791 50.5346Z" fill="#5C5CFF"/>
<path d="M11.0199 49.901C9.37181 51.388 9.80552 54.2835 11.7139 54.8314C15.4438 55.927 17.6991 51.388 14.4029 49.7445C12.3211 48.7271 12.3211 48.7271 11.0199 49.901Z" fill="#5C5CFF"/>
<path d="M22.0175 50.004C20.5962 51.4064 20.6639 52.742 22.2205 53.6101C24.9276 55.0125 27.2286 52.3413 25.266 50.2043C23.8448 48.6684 23.371 48.6016 22.0175 50.004Z" fill="#5C5CFF"/>
<path d="M30.9879 50.5346C29.4925 51.5743 29.7168 53.5843 31.5113 54.624C32.4085 55.1785 33.0815 55.1092 33.9039 54.4854C36.5956 52.406 33.8292 48.5939 30.9879 50.5346Z" fill="#5C5CFF"/>
<path d="M41.4521 50.2915C39.3927 51.2915 39.5643 54.2916 41.7096 54.863C43.8548 55.4345 46 54.1487 46 52.2915C46 50.5772 43.4257 49.4343 41.4521 50.2915Z" fill="#5C5CFF"/>
<path d="M51.2 50.2C50.525 50.8 50 51.775 50 52.3C50 53.5 51.5 55 52.7 55C53.75 55 56 52.975 56 52C56 51.625 55.475 50.8 54.8 50.2C54.2 49.525 53.375 49 53 49C52.625 49 51.8 49.525 51.2 50.2Z" fill="#5C5CFF"/>
</svg>
