<svg width="58" height="65" viewBox="0 0 58 65" fill="none" xmlns="http://www.w3.org/2000/svg">
<path d="M0.660392 1.15279C-0.6955 3.15666 0.118035 5.16052 2.35526 5.16052C3.98233 5.16052 4.45689 4.75975 4.59248 3.23681C4.99925 0.271091 2.28746 -1.17169 0.660392 1.15279Z" fill="#F1F0F5"/>
<path d="M11.718 0.676569C11.1749 0.996851 10.9034 2.19791 11.0391 3.23883C11.1749 4.76017 11.6502 5.16052 13.2795 5.16052C15.5199 5.16052 16.3345 3.15876 14.9768 1.15699C14.0263 -0.204208 13.0079 -0.364349 11.718 0.676569Z" fill="#F1F0F5"/>
<path d="M21.4135 1.04962C20.1244 2.61924 21.1986 5.16052 23.1322 5.16052C25.4955 5.16052 26.713 3.44142 25.7104 1.49809C24.851 -0.29576 22.7025 -0.519991 21.4135 1.04962Z" fill="#F1F0F5"/>
<path d="M32.5161 1.19087C31.1594 3.1757 31.9734 5.16052 34.2121 5.16052C35.6366 5.16052 36.315 4.76356 36.4507 3.73145C36.722 2.06419 35.501 -2.78279e-05 34.2121 -2.78279e-05C33.7372 -2.78279e-05 32.991 0.555724 32.5161 1.19087Z" fill="#F1F0F5"/>
<path d="M42.9944 0.676569C42.4513 0.996851 42.1797 2.19791 42.3155 3.23883C42.4513 4.76017 42.9265 5.16052 44.5558 5.16052C46.7962 5.16052 47.6109 3.15876 46.2531 1.15699C45.3026 -0.204208 44.2843 -0.364349 42.9944 0.676569Z" fill="#F1F0F5"/>
<path d="M53.0995 1.06171C52.7538 1.6603 52.5809 2.78264 52.8114 3.68052C53.2724 5.5511 55.7503 5.70075 56.4995 3.83017C57.652 0.986886 54.7131 -1.48228 53.0995 1.06171Z" fill="#F1F0F5"/>
<path d="M0.470728 12.6249C0.20174 12.933 0 14.0113 0 14.9356C0 16.2451 0.470728 16.8613 1.74842 17.2464C3.83307 17.8626 4.90902 16.7843 4.57278 14.3965C4.43829 13.087 3.90031 12.4708 2.68987 12.3168C1.74842 12.1627 0.739715 12.3168 0.470728 12.6249Z" fill="#F1F0F5"/>
<path d="M11.2648 13.3392C10.5682 15.2873 11.3344 17.1604 12.7973 17.3852C14.6781 17.6849 16.0713 15.8117 15.514 13.7888C15.0264 11.9905 11.8221 11.6908 11.2648 13.3392Z" fill="#F1F0F5"/>
<path d="M21.3146 13.4447C20.1729 14.9637 21.2433 17.0903 23.3841 17.3941C25.3108 17.6979 26.8807 14.8877 25.5962 13.2928C24.5258 11.8497 22.5278 11.9257 21.3146 13.4447Z" fill="#F1F0F5"/>
<path d="M32.0856 12.9094C31.7921 13.3694 31.7921 14.5958 32.0122 15.669C32.3792 17.202 32.8929 17.5853 34.5074 17.3554C36.1953 17.202 36.4888 16.7421 36.4888 14.8258C36.4888 12.9094 36.1953 12.4495 34.5074 12.2962C33.48 12.1429 32.3792 12.4495 32.0856 12.9094Z" fill="#F1F0F5"/>
<path d="M42.5617 13.3457C41.8102 15.5808 42.6301 17.4169 44.2698 17.4169C46.4561 17.4169 47.6176 15.1817 46.4561 13.5053C45.2946 11.9088 43.04 11.829 42.5617 13.3457Z" fill="#F1F0F5"/>
<path d="M53.1237 13.3876C52.6179 14.2365 52.5617 14.931 53.0113 15.857C53.8543 17.7091 55.4842 17.9406 56.3272 16.3972C57.9009 13.4648 54.8098 10.6094 53.1237 13.3876Z" fill="#F1F0F5"/>
<path d="M0.915501 23.8433C-0.470288 25.0505 -0.26242 27.3844 1.40053 28.5916C2.232 29.2354 2.85561 29.1549 3.61779 28.4306C6.11221 26.0162 3.5485 21.5899 0.915501 23.8433Z" fill="#F1F0F5"/>
<path d="M11.7922 24.0944C10.5194 25.5331 10.8544 28.3349 12.3281 28.865C15.2085 29.9251 16.9502 25.5331 14.4047 23.9429C12.797 22.9585 12.797 22.9585 11.7922 24.0944Z" fill="#F1F0F5"/>
<path d="M21.7715 24.3836C19.9608 26.343 20.9668 29.0281 23.5151 29.0281C24.5211 29.0281 26.0635 27.0687 26.0635 25.835C26.0635 25.2545 23.9846 23.2225 23.381 23.2225C23.0457 23.2225 22.308 23.7305 21.7715 24.3836Z" fill="#F1F0F5"/>
<path d="M33.0295 23.9554C31.5228 24.8619 31.4543 27.1284 32.8925 28.4882C35.0155 30.4524 37.6865 26.5995 35.9058 24.2576C34.9471 22.9733 34.6046 22.8977 33.0295 23.9554Z" fill="#F1F0F5"/>
<path d="M43.0685 24.0944C41.7958 25.5331 42.1307 28.3349 43.6044 28.865C46.4849 29.9251 48.2265 25.5331 45.681 23.9429C44.0733 22.9585 44.0733 22.9585 43.0685 24.0944Z" fill="#F1F0F5"/>
<path d="M53.5348 24.4335C52.4396 25.8716 52.4396 27.3096 53.48 28.5206C54.411 29.5802 56.2728 28.899 56.7109 27.2339C57.0394 26.0986 55.6704 23.2225 54.7943 23.2225C54.5752 23.2225 53.9729 23.7523 53.5348 24.4335Z" fill="#F1F0F5"/>
<path d="M0.660392 36.6316C-0.6955 38.6355 0.118035 40.6393 2.35526 40.6393C3.98233 40.6393 4.45689 40.2386 4.59248 38.7156C4.99925 35.7499 2.28746 34.3071 0.660392 36.6316Z" fill="#F1F0F5"/>
<path d="M11.2129 36.6305C11.0073 37.2502 10.9388 38.4122 11.0758 39.1869C11.4184 41.1235 15.2555 41.1235 15.5981 39.1869C16.0777 36.3207 12.1036 33.9967 11.2129 36.6305Z" fill="#F1F0F5"/>
<path d="M21.4135 36.5284C20.1244 38.0981 21.1986 40.6393 23.1322 40.6393C25.4955 40.6393 26.713 38.9202 25.7104 36.9769C24.851 35.1831 22.7025 34.9588 21.4135 36.5284Z" fill="#F1F0F5"/>
<path d="M32.5157 36.6316C31.1598 38.6355 31.9734 40.6393 34.2106 40.6393C35.8376 40.6393 36.3122 40.2386 36.4478 38.7156C36.8546 35.7499 34.1428 34.3071 32.5157 36.6316Z" fill="#F1F0F5"/>
<path d="M42.9944 36.1554C42.4513 36.4757 42.1797 37.6767 42.3155 38.7176C42.4513 40.239 42.9265 40.6393 44.5558 40.6393C46.7962 40.6393 47.6109 38.6376 46.2531 36.6358C45.3026 35.2746 44.2843 35.1145 42.9944 36.1554Z" fill="#F1F0F5"/>
<path d="M53.1441 36.5284C52.1415 38.0981 52.977 40.6393 54.4809 40.6393C56.319 40.6393 57.2659 38.9202 56.4861 36.9769C55.8177 35.1831 54.1467 34.9588 53.1441 36.5284Z" fill="#F1F0F5"/>
<path d="M0.323686 48.1059C-0.524151 50.6252 0.323686 52.2505 2.51393 52.2505C4.42156 52.2505 4.63352 52.0067 4.63352 49.8125C4.63352 47.7808 4.35091 47.3744 2.65524 47.1306C1.45413 46.9681 0.606298 47.2932 0.323686 48.1059Z" fill="#F1F0F5"/>
<path d="M11.2648 48.1729C10.5682 50.1209 11.3344 51.9941 12.7973 52.2188C14.6781 52.5185 16.0713 50.6454 15.514 48.6224C15.0264 46.8242 11.8221 46.5245 11.2648 48.1729Z" fill="#F1F0F5"/>
<path d="M21.3156 48.3603C20.1412 50.0275 21.3156 52.2505 23.4571 52.2505C25.5987 52.2505 26.7731 50.0275 25.5987 48.3603C25.046 47.6458 24.148 47.09 23.4571 47.09C22.7663 47.09 21.8682 47.6458 21.3156 48.3603Z" fill="#F1F0F5"/>
<path d="M32.0856 47.7431C31.7921 48.203 31.7921 49.4295 32.0122 50.5026C32.3792 52.0357 32.8929 52.419 34.5074 52.189C36.1953 52.0357 36.4888 51.5758 36.4888 49.6595C36.4888 47.7431 36.1953 47.2832 34.5074 47.1299C33.48 46.9766 32.3792 47.2832 32.0856 47.7431Z" fill="#F1F0F5"/>
<path d="M42.5617 48.1794C41.8102 50.4145 42.6301 52.2505 44.2698 52.2505C46.4561 52.2505 47.6176 50.0154 46.4561 48.339C45.2946 46.7425 43.04 46.6627 42.5617 48.1794Z" fill="#F1F0F5"/>
<path d="M53.1237 48.2213C52.6179 49.0701 52.5617 49.7647 53.0113 50.6907C53.8543 52.5428 55.4842 52.7743 56.3272 51.2309C57.9009 48.2984 54.8098 45.4431 53.1237 48.2213Z" fill="#F1F0F5"/>
<path d="M0.915501 59.8981C-0.470288 60.9712 -0.26242 63.0458 1.40053 64.1188C2.232 64.6911 2.85561 64.6196 3.61779 63.9758C6.11221 61.8296 3.5485 57.8951 0.915501 59.8981Z" fill="#F1F0F5"/>
<path d="M11.7922 58.283C10.5194 59.7217 10.8544 62.5235 12.3281 63.0536C15.2085 64.1137 16.9502 59.7217 14.4047 58.1315C12.797 57.1471 12.797 57.1471 11.7922 58.283Z" fill="#F1F0F5"/>
<path d="M21.9115 58.5769C20.4298 60.2052 20.5004 61.756 22.1232 62.764C24.9455 64.3924 27.3444 61.2908 25.2983 58.8095C23.8166 57.0261 23.3227 56.9485 21.9115 58.5769Z" fill="#F1F0F5"/>
<path d="M32.7708 59.8981C31.385 60.9712 31.5929 63.0458 33.2558 64.1188C34.0873 64.6911 34.7109 64.6196 35.4731 63.9758C37.9675 61.8296 35.4038 57.8951 32.7708 59.8981Z" fill="#F1F0F5"/>
<path d="M43.4023 59.572C41.8119 60.3461 41.9444 62.6684 43.6011 63.1107C45.2577 63.5531 46.9144 62.5578 46.9144 61.1202C46.9144 59.7931 44.9264 58.9084 43.4023 59.572Z" fill="#F1F0F5"/>
<path d="M52.8222 58.8303C52.1055 59.5399 51.548 60.6929 51.548 61.3138C51.548 62.733 53.1408 64.5069 54.415 64.5069C55.5299 64.5069 57.9191 62.1121 57.9191 60.959C57.9191 60.5155 57.3616 59.5399 56.6449 58.8303C56.0078 58.032 55.1317 57.4111 54.7336 57.4111C54.3354 57.4111 53.4593 58.032 52.8222 58.8303Z" fill="#F1F0F5"/>
</svg>
