<svg width="70" height="79" viewBox="0 0 70 79" fill="none" xmlns="http://www.w3.org/2000/svg">
<path d="M0.798139 1.61958C-0.84057 4.04142 0.142655 6.46326 2.84653 6.46326C4.81298 6.46326 5.38653 5.97889 5.5504 4.13829C6.04201 0.55397 2.76459 -1.18975 0.798139 1.61958Z" fill="white"/>
<path d="M14.1622 1.04402C13.5058 1.43111 13.1776 2.88269 13.3417 4.14073C13.5058 5.9794 14.0802 6.46326 16.0494 6.46326C18.7571 6.46326 19.7417 4.04396 18.1007 1.62466C16.952 -0.0204687 15.7212 -0.214013 14.1622 1.04402Z" fill="white"/>
<path d="M25.88 1.49489C24.322 3.3919 25.6203 6.46326 27.9572 6.46326C30.8135 6.46326 32.2849 4.38558 31.0731 2.0369C30.0345 -0.131117 27.4379 -0.402119 25.88 1.49489Z" fill="white"/>
<path d="M39.2985 1.6656C37.6587 4.06443 38.6426 6.46326 41.3481 6.46326C43.0699 6.46326 43.8897 5.98349 44.0537 4.7361C44.3817 2.72108 42.9059 0.2263 41.3481 0.2263C40.7742 0.2263 39.8724 0.897972 39.2985 1.6656Z" fill="white"/>
<path d="M51.9623 1.04402C51.3059 1.43111 50.9777 2.88269 51.1418 4.14073C51.3059 5.9794 51.8802 6.46326 53.8495 6.46326C56.5571 6.46326 57.5417 4.04396 55.9007 1.62466C54.752 -0.0204687 53.5213 -0.214013 51.9623 1.04402Z" fill="white"/>
<path d="M64.1752 1.5095C63.7573 2.23294 63.5484 3.58939 63.827 4.67455C64.3842 6.9353 67.379 7.11617 68.2844 4.85541C69.6773 1.41907 66.1253 -1.56513 64.1752 1.5095Z" fill="white"/>
<path d="M0.568914 15.4845C0.24382 15.8569 0 17.1602 0 18.2773C0 19.8599 0.568914 20.6046 2.11311 21.0701C4.63258 21.8148 5.93296 20.5115 5.52659 17.6256C5.36404 16.0431 4.71386 15.2983 3.25094 15.1121C2.11311 14.926 0.894007 15.1121 0.568914 15.4845Z" fill="white"/>
<path d="M13.6144 16.3479C12.7726 18.7023 13.6986 20.9661 15.4666 21.2377C17.7397 21.6 19.4235 19.3361 18.75 16.8912C18.1607 14.7179 14.288 14.3557 13.6144 16.3479Z" fill="white"/>
<path d="M25.7605 16.4753C24.3806 18.3112 25.6743 20.8814 28.2616 21.2486C30.5902 21.6157 32.4876 18.2194 30.9352 16.2918C29.6415 14.5477 27.2267 14.6395 25.7605 16.4753Z" fill="white"/>
<path d="M38.7782 15.8284C38.4234 16.3843 38.4234 17.8666 38.6895 19.1636C39.133 21.0164 39.7538 21.4796 41.7051 21.2017C43.745 21.0164 44.0998 20.4606 44.0998 18.1445C44.0998 15.8284 43.745 15.2726 41.7051 15.0873C40.4634 14.902 39.133 15.2726 38.7782 15.8284Z" fill="white"/>
<path d="M51.4394 16.3557C50.5311 19.0571 51.522 21.2761 53.5037 21.2761C56.1461 21.2761 57.5498 18.5747 56.1461 16.5487C54.7423 14.6191 52.0174 14.5226 51.4394 16.3557Z" fill="white"/>
<path d="M64.2044 16.4063C63.5931 17.4323 63.5252 18.2717 64.0686 19.3909C65.0875 21.6293 67.0573 21.9091 68.0762 20.0438C69.9781 16.4996 66.2422 13.0487 64.2044 16.4063Z" fill="white"/>
<path d="M1.10646 29.0429C-0.568383 30.5019 -0.317156 33.3226 1.69265 34.7816C2.69756 35.5597 3.45124 35.4624 4.3724 34.587C7.38712 31.6691 4.28866 26.3194 1.10646 29.0429Z" fill="white"/>
<path d="M14.2519 29.3463C12.7136 31.0852 13.1184 34.4714 14.8995 35.112C18.3808 36.3933 20.4857 31.0852 17.4093 29.1633C15.4662 27.9735 15.4662 27.9735 14.2519 29.3463Z" fill="white"/>
<path d="M26.3127 29.6959C24.1243 32.064 25.3401 35.3092 28.42 35.3092C29.6357 35.3092 31.4999 32.9411 31.4999 31.4501C31.4999 30.7484 28.9873 28.2926 28.2579 28.2926C27.8526 28.2926 26.9611 28.9066 26.3127 29.6959Z" fill="white"/>
<path d="M39.9189 29.1783C38.0979 30.274 38.0152 33.0132 39.7533 34.6566C42.3192 37.0306 45.5472 32.374 43.3952 29.5436C42.2364 27.9914 41.8226 27.9001 39.9189 29.1783Z" fill="white"/>
<path d="M52.0519 29.3463C50.5137 31.0852 50.9185 34.4714 52.6996 35.112C56.1808 36.3933 58.2858 31.0852 55.2093 29.1633C53.2663 27.9735 53.2663 27.9735 52.0519 29.3463Z" fill="white"/>
<path d="M64.7013 29.7562C63.3777 31.4942 63.3777 33.2322 64.6351 34.6958C65.7602 35.9765 68.0104 35.1532 68.5398 33.1408C68.9369 31.7686 67.2824 28.2926 66.2235 28.2926C65.9587 28.2926 65.2307 28.9329 64.7013 29.7562Z" fill="white"/>
<path d="M0.798139 44.4987C-0.84057 46.9205 0.142655 49.3423 2.84653 49.3423C4.81298 49.3423 5.38653 48.858 5.5504 47.0174C6.04201 43.4331 2.76459 41.6893 0.798139 44.4987Z" fill="white"/>
<path d="M13.5517 44.4973C13.3033 45.2463 13.2205 46.6507 13.3861 47.5869C13.8001 49.9275 18.4375 49.9275 18.8516 47.5869C19.4313 44.1228 14.6282 41.3141 13.5517 44.4973Z" fill="white"/>
<path d="M25.88 44.374C24.322 46.271 25.6203 49.3423 27.9572 49.3423C30.8135 49.3423 32.2849 47.2647 31.0731 44.916C30.0345 42.748 27.4379 42.477 25.88 44.374Z" fill="white"/>
<path d="M39.298 44.4987C37.6592 46.9205 38.6425 49.3423 41.3463 49.3423C43.3128 49.3423 43.8863 48.858 44.0502 47.0174C44.5418 43.4331 41.2644 41.6893 39.298 44.4987Z" fill="white"/>
<path d="M51.9623 43.9231C51.3059 44.3102 50.9777 45.7618 51.1418 47.0198C51.3059 48.8585 51.8802 49.3423 53.8495 49.3423C56.5571 49.3423 57.5417 46.923 55.9007 44.5037C54.752 42.8586 53.5213 42.6651 51.9623 43.9231Z" fill="white"/>
<path d="M64.2291 44.374C63.0173 46.271 64.0271 49.3423 65.8447 49.3423C68.0663 49.3423 69.2107 47.2647 68.2682 44.916C67.4604 42.748 65.4408 42.477 64.2291 44.374Z" fill="white"/>
<path d="M0.391202 58.3663C-0.63348 61.4111 0.391202 63.3755 3.0383 63.3755C5.34383 63.3755 5.6 63.0808 5.6 60.4289C5.6 57.9734 5.25844 57.4823 3.20908 57.1876C1.75744 56.9912 0.732762 57.3841 0.391202 58.3663Z" fill="white"/>
<path d="M13.6144 58.4473C12.7726 60.8017 13.6986 63.0655 15.4666 63.3372C17.7397 63.6994 19.4235 61.4356 18.75 58.9906C18.1607 56.8173 14.288 56.4551 13.6144 58.4473Z" fill="white"/>
<path d="M25.7616 58.6738C24.3423 60.6888 25.7616 63.3755 28.3499 63.3755C30.9381 63.3755 32.3575 60.6888 30.9381 58.6738C30.2702 57.8102 29.1848 57.1385 28.3499 57.1385C27.515 57.1385 26.4296 57.8102 25.7616 58.6738Z" fill="white"/>
<path d="M38.7782 57.9279C38.4234 58.4837 38.4234 59.966 38.6895 61.263C39.133 63.1159 39.7538 63.5791 41.7051 63.3011C43.745 63.1159 44.0998 62.56 44.0998 60.2439C44.0998 57.9279 43.745 57.372 41.7051 57.1867C40.4634 57.0014 39.133 57.372 38.7782 57.9279Z" fill="white"/>
<path d="M51.4394 58.4551C50.5311 61.1565 51.522 63.3755 53.5037 63.3755C56.1461 63.3755 57.5498 60.6741 56.1461 58.6481C54.7423 56.7185 52.0174 56.6221 51.4394 58.4551Z" fill="white"/>
<path d="M64.2044 58.5058C63.5931 59.5317 63.5252 60.3711 64.0686 61.4903C65.0875 63.7287 67.0573 64.0085 68.0762 62.1432C69.9781 58.599 66.2422 55.1481 64.2044 58.5058Z" fill="white"/>
<path d="M1.10646 72.6182C-0.568383 73.9151 -0.317156 76.4224 1.69265 77.7193C2.69756 78.411 3.45124 78.3245 4.3724 77.5464C7.38712 74.9526 4.28866 70.1974 1.10646 72.6182Z" fill="white"/>
<path d="M14.2519 70.6661C12.7136 72.405 13.1184 75.7912 14.8995 76.4318C18.3808 77.7131 20.4857 72.405 17.4093 70.4831C15.4662 69.2934 15.4662 69.2934 14.2519 70.6661Z" fill="white"/>
<path d="M26.4819 71.0214C24.6912 72.9893 24.7764 74.8636 26.7377 76.0819C30.1487 78.0499 33.048 74.3013 30.575 71.3025C28.7843 69.1471 28.1874 69.0534 26.4819 71.0214Z" fill="white"/>
<path d="M39.6063 72.6182C37.9314 73.9151 38.1827 76.4224 40.1925 77.7193C41.1974 78.411 41.9511 78.3245 42.8722 77.5464C45.8869 74.9526 42.7885 70.1974 39.6063 72.6182Z" fill="white"/>
<path d="M52.4553 72.224C50.5332 73.1596 50.6933 75.9663 52.6956 76.5009C54.6978 77.0355 56.7 75.8326 56.7 74.0951C56.7 72.4913 54.2973 71.4221 52.4553 72.224Z" fill="white"/>
<path d="M63.8401 71.3276C62.9739 72.1852 62.3001 73.5788 62.3001 74.3292C62.3001 76.0443 64.2251 78.1883 65.7651 78.1883C67.1126 78.1883 70.0001 75.294 70.0001 73.9004C70.0001 73.3644 69.3264 72.1852 68.4601 71.3276C67.6901 70.3629 66.6314 69.6125 66.1501 69.6125C65.6689 69.6125 64.6101 70.3629 63.8401 71.3276Z" fill="white"/>
</svg>
