<svg width="34" height="27" viewBox="0 0 34 27" fill="none" xmlns="http://www.w3.org/2000/svg">
<path d="M31.0254 10.5181L33.0986 9.21972L31.8117 7.48747C29.8365 4.91334 25.2036 1.81355 22.1283 1.05149C17.6776 -0.00598398 13.8242 0.464249 9.82468 2.69189C7.85753 3.75909 5.76766 5.24009 4.89251 6.29355C0.550058 11.1956 -0.749475 18.6133 1.71788 24.3346L2.52971 26.151L4.87879 24.9344C7.43095 23.6656 7.4105 23.7346 6.39086 20.4685C5.65323 18.1488 6.36436 14.2331 7.98197 11.5616C9.83598 8.47255 13.6975 6.204 17.2009 6.15515C21.3416 6.10776 26.2237 8.49365 27.8003 11.3997C28.2126 12.1598 28.5945 12.0105 31.0254 10.5181Z" fill="#5C5CFF"/>
</svg>
