<svg width="34" height="25" viewBox="0 0 34 25" fill="none" xmlns="http://www.w3.org/2000/svg">
<path d="M29.7642 23.7814L32.0551 24.6391L32.6489 22.5644C33.4932 19.4316 33.1401 13.8685 31.8768 10.963C30.0123 6.78556 27.2974 4.01079 23.098 2.18785C21.0551 1.27394 18.609 0.513983 17.2405 0.459018C10.7087 -0.011306 4.0277 3.46371 0.982892 8.89973L0.0335277 10.6482L2.42708 11.7747C4.98558 13.0307 4.91838 13.0564 6.89286 10.262C8.28697 8.26672 11.8291 6.45223 14.9337 6.11374C18.5137 5.70926 22.6618 7.3978 24.8293 10.1506C27.3829 13.4104 28.4544 18.7377 27.1043 21.7556C26.7512 22.5449 27.1018 22.7575 29.7642 23.7814Z" fill="white"/>
</svg>
