<svg width="76" height="76" viewBox="0 0 76 76" fill="none" xmlns="http://www.w3.org/2000/svg">
<path d="M0.997674 1.34034C-1.05071 3.67017 0.178319 6 3.55816 6C6.01622 6 6.73316 5.53403 6.938 3.76337C7.55251 0.31522 3.45574 -1.36226 0.997674 1.34034Z" fill="white"/>
<path d="M15.0779 0.786656C14.2574 1.15904 13.8471 2.55547 14.0523 3.76571C14.2574 5.53452 14.9753 6 17.4369 6C20.8214 6 22.0522 3.67261 20.0009 1.34523C18.565 -0.237394 17.0266 -0.423584 15.0779 0.786656Z" fill="white"/>
<path d="M28.7556 1.4238C27.0246 3.55289 28.4671 7 31.0637 7C34.2373 7 35.8722 4.66813 34.5258 2.03211C33.3718 -0.401145 30.4867 -0.705301 28.7556 1.4238Z" fill="white"/>
<path d="M41.9983 1.38462C39.9486 3.69231 41.1784 6 44.5604 6C46.7126 6 47.7374 5.53846 47.9424 4.33846C48.3523 2.4 46.5076 0 44.5604 0C43.843 0 42.7157 0.646154 41.9983 1.38462Z" fill="white"/>
<path d="M56.0779 0.786656C55.2574 1.15904 54.8471 2.55547 55.0523 3.76571C55.2574 5.53452 55.9753 6 58.4369 6C61.8214 6 63.0522 3.67261 61.0009 1.34523C59.565 -0.237394 58.0266 -0.423584 56.0779 0.786656Z" fill="white"/>
<path d="M69.6787 1.44019C69.0817 2.25214 68.7832 3.77454 69.1812 4.99246C69.9772 7.5298 74.2555 7.73279 75.5489 5.19545C77.5388 1.33869 72.4646 -2.01059 69.6787 1.44019Z" fill="white"/>
<path d="M0.711142 14.4999C0.304775 14.9178 0 16.3806 0 17.6344C0 19.4105 0.711142 20.2464 2.64139 20.7688C5.79073 21.6047 7.4162 20.1419 6.90824 16.903C6.70505 15.1268 5.89232 14.2909 4.06367 14.082C2.64139 13.873 1.11751 14.082 0.711142 14.4999Z" fill="white"/>
<path d="M14.3931 15.4689C13.3408 18.1113 14.4984 20.6521 16.7083 20.957C19.5497 21.3635 21.6545 18.8227 20.8126 16.0787C20.0759 13.6395 15.235 13.233 14.3931 15.4689Z" fill="white"/>
<path d="M28.6229 15.612C27.0897 17.6724 28.5271 20.557 31.4019 20.9691C33.9892 21.3812 36.0974 17.5694 34.3726 15.4059C32.9351 13.4485 30.252 13.5515 28.6229 15.612Z" fill="white"/>
<path d="M41.2982 14.8859C40.9181 15.5098 40.9181 17.1734 41.2032 18.6291C41.6784 20.7086 42.3436 21.2285 44.4342 20.9166C46.6199 20.7086 47 20.0847 47 17.4853C47 14.8859 46.6199 14.262 44.4342 14.0541C43.1038 13.8461 41.6784 14.262 41.2982 14.8859Z" fill="white"/>
<path d="M55.4243 15.4777C54.2889 18.5095 55.5275 21 58.0047 21C61.3076 21 63.0623 17.9681 61.3076 15.6942C59.5529 13.5286 56.1468 13.4203 55.4243 15.4777Z" fill="white"/>
<path d="M69.7205 15.5345C68.8471 16.686 68.7501 17.6281 69.5264 18.8842C70.9819 21.3964 73.796 21.7105 75.2515 19.6169C77.9685 15.6392 72.6315 11.7661 69.7205 15.5345Z" fill="white"/>
<path d="M1.38307 28.7485C-0.710478 30.204 -0.396445 33.0181 2.11582 34.4736C3.37195 35.2499 4.31405 35.1529 5.4655 34.2795C9.2339 31.3685 5.36082 26.0315 1.38307 28.7485Z" fill="white"/>
<path d="M15.1899 29.0512C13.2671 30.7859 13.7731 34.1641 15.9995 34.8033C20.3511 36.0815 22.9823 30.7859 19.1367 28.8686C16.7079 27.6817 16.7079 27.6817 15.1899 29.0512Z" fill="white"/>
<path d="M29.2364 29.4C26.8049 31.7625 28.1558 35 31.5779 35C32.9287 35 35 32.6375 35 31.15C35 30.45 32.2083 28 31.3978 28C30.9475 28 29.9569 28.6125 29.2364 29.4Z" fill="white"/>
<path d="M42.7738 28.8836C40.4976 29.9767 40.3942 32.7094 42.5669 34.349C45.7742 36.7173 49.8093 32.0718 47.1193 29.248C45.6708 27.6995 45.1535 27.6084 42.7738 28.8836Z" fill="white"/>
<path d="M56.1899 29.0512C54.2671 30.7859 54.7731 34.1641 56.9995 34.8033C61.3511 36.0815 63.9823 30.7859 60.1367 28.8686C57.7079 27.6817 57.7079 27.6817 56.1899 29.0512Z" fill="white"/>
<path d="M70.4302 29.4601C68.5393 31.194 68.5393 32.9279 70.3357 34.3881C71.943 35.6657 75.1575 34.8444 75.9139 32.8367C76.4811 31.4678 74.1175 28 72.6048 28C72.2266 28 71.1866 28.6388 70.4302 29.4601Z" fill="white"/>
<path d="M0.997674 42.3403C-1.05071 44.6702 0.178319 47 3.55816 47C6.01622 47 6.73316 46.534 6.938 44.7634C7.55251 41.3152 3.45574 39.6377 0.997674 42.3403Z" fill="white"/>
<path d="M14.3147 42.3391C14.0042 43.0596 13.9007 44.4106 14.1077 45.3113C14.6253 47.5629 20.422 47.5629 20.9396 45.3113C21.6642 41.9788 15.6604 39.2768 14.3147 42.3391Z" fill="white"/>
<path d="M28.7556 42.4238C27.0246 44.5529 28.4671 48 31.0637 48C34.2373 48 35.8722 45.6681 34.5258 43.0321C33.3718 40.5989 30.4867 40.2947 28.7556 42.4238Z" fill="white"/>
<path d="M41.9977 42.3403C39.9493 44.6702 41.1783 47 44.5582 47C47.0162 47 47.7332 46.534 47.938 44.7634C48.5525 41.3152 44.4557 39.6377 41.9977 42.3403Z" fill="white"/>
<path d="M56.0779 41.7867C55.2574 42.159 54.8471 43.5555 55.0523 44.7657C55.2574 46.5345 55.9753 47 58.4369 47C61.8214 47 63.0522 44.6726 61.0009 42.3452C59.565 40.7626 58.0266 40.5764 56.0779 41.7867Z" fill="white"/>
<path d="M69.7556 42.4238C68.0246 44.5529 69.4671 48 72.0637 48C75.2373 48 76.8722 45.6681 75.5258 43.0321C74.3718 40.5989 71.4867 40.2947 69.7556 42.4238Z" fill="white"/>
<path d="M0.419145 56.1811C-0.678728 59.1102 0.419145 61 3.25532 61C5.72553 61 6 60.7165 6 58.1654C6 55.8031 5.63404 55.3307 3.4383 55.0472C1.88298 54.8583 0.785102 55.2362 0.419145 56.1811Z" fill="white"/>
<path d="M14.3931 56.4689C13.3408 59.1113 14.4984 61.6521 16.7083 61.957C19.5497 62.3635 21.6545 59.8227 20.8126 57.0787C20.0759 54.6395 15.235 54.233 14.3931 56.4689Z" fill="white"/>
<path d="M28.6242 56.4769C27.0471 58.4154 28.6242 61 31.5 61C34.3758 61 35.9529 58.4154 34.3758 56.4769C33.6337 55.6462 32.4277 55 31.5 55C30.5723 55 29.3663 55.6462 28.6242 56.4769Z" fill="white"/>
<path d="M41.2982 55.8859C40.9181 56.5098 40.9181 58.1734 41.2032 59.6291C41.6784 61.7086 42.3436 62.2285 44.4342 61.9166C46.6199 61.7086 47 61.0847 47 58.4853C47 55.8859 46.6199 55.262 44.4342 55.0541C43.1038 54.8461 41.6784 55.262 41.2982 55.8859Z" fill="white"/>
<path d="M55.4243 56.2666C54.2889 58.8653 55.5275 61 58.0047 61C61.3076 61 63.0623 58.4013 61.3076 56.4522C59.5529 54.596 56.1468 54.5031 55.4243 56.2666Z" fill="white"/>
<path d="M69.7205 56.5345C68.8471 57.686 68.7501 58.6281 69.5264 59.8842C70.9819 62.3964 73.796 62.7105 75.2515 60.6169C77.9685 56.6392 72.6315 52.7661 69.7205 56.5345Z" fill="white"/>
<path d="M1.38307 69.7485C-0.710478 71.204 -0.396445 74.0181 2.11582 75.4736C3.37195 76.2499 4.31405 76.1529 5.4655 75.2795C9.2339 72.3685 5.36082 67.0315 1.38307 69.7485Z" fill="white"/>
<path d="M15.1899 70.0512C13.2671 71.7859 13.7731 75.1641 15.9995 75.8033C20.3511 77.0815 22.9823 71.7859 19.1367 69.8686C16.7079 68.6817 16.7079 68.6817 15.1899 70.0512Z" fill="white"/>
<path d="M29.4245 70.4056C27.4347 72.3689 27.5295 74.2387 29.7087 75.4541C33.4987 77.4175 36.7201 73.6778 33.9724 70.686C31.9827 68.5357 31.3194 68.4422 29.4245 70.4056Z" fill="white"/>
<path d="M42.3831 69.7485C40.2895 71.204 40.6036 74.0181 43.1158 75.4736C44.3719 76.2499 45.314 76.1529 46.4655 75.2795C50.2339 72.3685 46.3608 67.0315 42.3831 69.7485Z" fill="white"/>
<path d="M56.6941 69.4081C54.2915 70.8081 54.4917 75.0082 56.9945 75.8082C59.4972 76.6083 62 74.8082 62 72.2082C62 69.8081 58.9967 68.2081 56.6941 69.4081Z" fill="white"/>
<path d="M70.4 70.4C69.6125 71.1 69 72.2375 69 72.85C69 74.25 70.75 76 72.15 76C73.375 76 76 73.6375 76 72.5C76 72.0625 75.3875 71.1 74.6 70.4C73.9 69.6125 72.9375 69 72.5 69C72.0625 69 71.1 69.6125 70.4 70.4Z" fill="white"/>
</svg>
