<svg width="60" height="96" viewBox="0 0 60 96" fill="none" xmlns="http://www.w3.org/2000/svg">
<g filter="url(#filter0_d_121_8)">
<path d="M4.49533 0.179981C2.64486 0.489517 1.1028 1.21177 1 1.72767C1 2.44992 53.5327 56 54.2523 56C54.4579 56 54.8692 53.8332 55.2804 51.2538L56 46.5075L33.486 23.808C21.0467 11.4265 10.2523 0.799057 9.42991 0.386337C8.60748 -0.0263786 6.34579 -0.129559 4.49533 0.179981Z" fill="#5C5CFF"/>
<path d="M37.8502 15.2433C45.8786 23.0034 52.6875 29.1919 52.8907 28.9954C53.907 28.0132 47.6062 17.5026 43.4396 12.984C39.5778 8.85837 26.8746 1 24.0291 1C23.521 1 29.7202 7.38493 37.8502 15.2433Z" fill="#5C5CFF"/>
<path d="M-14.0663 6.8773C-15.7427 7.81595 -17 8.85889 -17 9.17178C-17 9.48466 -2.64561 23.9816 14.7473 41.2945L46.5994 73L48.7997 69.454L51 66.0123L20.4052 35.454C3.64099 18.7669 -10.3991 5 -10.7134 5C-11.0277 5 -12.4946 5.83436 -14.0663 6.8773Z" fill="#5C5CFF"/>
<path d="M-26.0796 18.0509L-28 21.3061L1.2098 51.653C17.2802 68.3491 31.1271 82 31.9357 82C32.7443 82 34.4625 81.1599 35.7764 80.1099L38 78.3248L7.67841 46.8227C-8.99847 29.4966 -23.0475 15.2157 -23.4518 15.0057C-23.856 14.9007 -25.0689 16.2658 -26.0796 18.0509Z" fill="#5C5CFF"/>
<path d="M-31.3668 33.6147C-33.1008 40.0794 -32.8968 40.3872 -8.82447 64.6041L14.4319 88L18.7159 87.2817C21.062 86.8712 23 86.3582 23 85.9477C23 85.6399 10.8618 73.121 -3.9284 58.242C-28.1028 33.9225 -30.8568 31.4598 -31.3668 33.6147Z" fill="#5C5CFF"/>
</g>
<defs>
<filter id="filter0_d_121_8" x="-36" y="0" width="96" height="96" filterUnits="userSpaceOnUse" color-interpolation-filters="sRGB">
<feFlood flood-opacity="0" result="BackgroundImageFix"/>
<feColorMatrix in="SourceAlpha" type="matrix" values="0 0 0 0 0 0 0 0 0 0 0 0 0 0 0 0 0 0 127 0" result="hardAlpha"/>
<feOffset dy="4"/>
<feGaussianBlur stdDeviation="2"/>
<feComposite in2="hardAlpha" operator="out"/>
<feColorMatrix type="matrix" values="0 0 0 0 0 0 0 0 0 0 0 0 0 0 0 0 0 0 0.25 0"/>
<feBlend mode="normal" in2="BackgroundImageFix" result="effect1_dropShadow_121_8"/>
<feBlend mode="normal" in="SourceGraphic" in2="effect1_dropShadow_121_8" result="shape"/>
</filter>
</defs>
</svg>
