<svg width="63" height="63" viewBox="0 0 63 63" fill="none" xmlns="http://www.w3.org/2000/svg">
<path d="M16.2532 2.63562C15.8878 3.42858 17.6411 9.53255 20.0421 16.0567L24.4705 28.09L12.9081 32.8389C3.89737 36.4842 1.12499 38.3275 0.660829 40.6384C-0.617631 46.5411 4.3796 47.1713 16.8256 42.5911L28.2586 38.3836L32.0468 48.6772C36.2084 59.9857 39.4543 63.8942 43.6512 62.3497C48.2823 60.6454 48.0069 54.9853 42.7942 44.3928L38.0997 34.762L47.5066 31.3002C58.9396 27.0927 63.7454 23.1841 62.3582 19.4146C60.5441 14.4853 56.4459 14.512 45.4624 19.0478L35.1112 23.5157L29.8524 11.4586C24.7538 -0.163435 24.449 -0.54512 20.8156 0.298156C18.6828 0.753818 16.6187 1.84267 16.2532 2.63562Z" fill="#5C5CFF"/>
</svg>
