<svg width="38" height="38" viewBox="0 0 38 38" fill="none" xmlns="http://www.w3.org/2000/svg">
<path d="M21.4518 0.653254C21.0222 0.901128 19.8332 4.30711 18.8067 8.12036L16.9134 15.1537L9.99337 13.5635C4.61873 12.2985 2.72833 12.244 1.75509 13.1634C-0.774015 15.4816 1.33686 17.4131 8.61139 19.3713L15.2938 21.1702L13.6742 27.1866C11.895 33.7962 12.1183 36.6736 14.5713 37.334C17.2781 38.0626 19.007 35.3472 20.0639 28.7249L21.0458 22.7185L26.544 24.1986C33.2264 25.9975 36.7373 25.7611 37.3303 23.5579C38.1059 20.6768 36.1965 19.3449 29.6148 17.8458L23.3487 16.5225L24.8647 9.20585C26.3123 2.14341 26.2961 1.86642 24.3344 1.06572C23.1958 0.577457 21.8814 0.405379 21.4518 0.653254Z" fill="#5C5CFF"/>
</svg>
