<svg width="80" height="88" viewBox="0 0 80 88" fill="none" xmlns="http://www.w3.org/2000/svg">
<path d="M0.900904 1.57268C-0.948798 4.30634 0.161023 7.04001 3.21303 7.04001C5.43267 7.04001 6.08007 6.49328 6.26504 4.41569C6.81995 0.369869 3.12055 -1.59837 0.900904 1.57268Z" fill="#5C5CFF"/>
<path d="M15.9857 0.923019C15.2448 1.35995 14.8744 2.99843 15.0596 4.41844C15.2448 6.49385 15.8931 7.04001 18.1159 7.04001C21.1722 7.04001 22.2835 4.30921 20.4313 1.57841C19.1346 -0.278532 17.7454 -0.496996 15.9857 0.923019Z" fill="#5C5CFF"/>
<path d="M29.2121 1.43194C27.4536 3.5732 28.9191 7.04001 31.5569 7.04001C34.7809 7.04001 36.4417 4.69482 35.074 2.04373C33.9016 -0.403427 30.9707 -0.709321 29.2121 1.43194Z" fill="#5C5CFF"/>
<path d="M44.3583 1.62463C42.5075 4.33232 43.618 7.04001 46.6719 7.04001C48.6153 7.04001 49.5408 6.49847 49.7259 5.09047C50.096 2.81601 48.4303 1.01849e-05 46.6719 1.01849e-05C46.0241 1.01849e-05 45.0062 0.758164 44.3583 1.62463Z" fill="#5C5CFF"/>
<path d="M58.6527 0.923019C57.9118 1.35995 57.5414 2.99843 57.7266 4.41844C57.9118 6.49385 58.5601 7.04001 60.7829 7.04001C63.8392 7.04001 64.9505 4.30921 63.0982 1.57841C61.8016 -0.278532 60.4124 -0.496996 58.6527 0.923019Z" fill="#5C5CFF"/>
<path d="M72.4381 1.44843C71.9664 2.26501 71.7306 3.79612 72.045 5.021C72.674 7.57284 76.0544 7.77698 77.0764 5.22515C78.6486 1.34635 74.6393 -2.02207 72.4381 1.44843Z" fill="#5C5CFF"/>
<path d="M0.642164 17.2228C0.275213 17.6431 0 19.1142 0 20.3751C0 22.1615 0.642164 23.0021 2.38518 23.5275C5.22905 24.3681 6.69686 22.897 6.23817 19.6396C6.05469 17.8532 5.32079 17.0126 3.66951 16.8025C2.38518 16.5923 1.00912 16.8025 0.642164 17.2228Z" fill="#5C5CFF"/>
<path d="M15.3674 18.1973C14.4171 20.8548 15.4624 23.4101 17.458 23.7168C20.0238 24.1256 21.9244 21.5703 21.1642 18.8106C20.499 16.3574 16.1276 15.9486 15.3674 18.1973Z" fill="#5C5CFF"/>
<path d="M29.0773 18.3412C27.5197 20.4134 28.98 23.3145 31.9004 23.729C34.5289 24.1434 36.6705 20.3098 34.9183 18.134C33.458 16.1653 30.7323 16.269 29.0773 18.3412Z" fill="#5C5CFF"/>
<path d="M43.7711 17.611C43.3706 18.2384 43.3706 19.9115 43.671 21.3755C44.1715 23.4669 44.8723 23.9898 47.0748 23.6761C49.3775 23.4669 49.7779 22.8395 49.7779 20.2253C49.7779 17.611 49.3775 16.9836 47.0748 16.7744C45.6732 16.5653 44.1715 16.9836 43.7711 17.611Z" fill="#5C5CFF"/>
<path d="M58.0625 18.2061C57.0373 21.2553 58.1557 23.76 60.3926 23.76C63.3752 23.76 64.9597 20.7108 63.3752 18.4239C61.7907 16.2459 58.7149 16.137 58.0625 18.2061Z" fill="#5C5CFF"/>
<path d="M72.4711 18.2633C71.7811 19.4213 71.7044 20.3688 72.3178 21.6321C73.4678 24.1587 75.6913 24.4745 76.8414 22.369C78.9882 18.3686 74.7712 14.4733 72.4711 18.2633Z" fill="#5C5CFF"/>
<path d="M1.24892 32.5268C-0.641565 34.1737 -0.357992 37.3576 1.91059 39.0044C3.04488 39.8827 3.8956 39.7729 4.93537 38.7848C8.33825 35.4911 4.84085 29.4527 1.24892 32.5268Z" fill="#5C5CFF"/>
<path d="M16.0869 32.8693C14.3506 34.8321 14.8075 38.6543 16.818 39.3774C20.7474 40.8236 23.1234 34.8321 19.6508 32.6627C17.4576 31.3198 17.4576 31.3198 16.0869 32.8693Z" fill="#5C5CFF"/>
<path d="M29.7006 33.264C27.2305 35.937 28.6028 39.6 32.0792 39.6C33.4515 39.6 35.5557 36.927 35.5557 35.244C35.5557 34.452 32.7196 31.68 31.8962 31.68C31.4388 31.68 30.4325 32.373 29.7006 33.264Z" fill="#5C5CFF"/>
<path d="M45.0587 32.6797C43.0033 33.9165 42.9098 37.0083 44.8718 38.8634C47.768 41.543 51.4117 36.2869 48.9826 33.092C47.6746 31.3399 47.2075 31.2369 45.0587 32.6797Z" fill="#5C5CFF"/>
<path d="M58.7539 32.8693C57.0176 34.8321 57.4745 38.6543 59.4849 39.3774C63.4144 40.8236 65.7904 34.8321 62.3178 32.6627C60.1246 31.3198 60.1246 31.3198 58.7539 32.8693Z" fill="#5C5CFF"/>
<path d="M73.0319 33.332C71.5379 35.2938 71.5379 37.2556 72.9572 38.9076C74.2272 40.3531 76.7671 39.4239 77.3647 37.1523C77.8129 35.6035 75.9453 31.68 74.7501 31.68C74.4513 31.68 73.6295 32.4027 73.0319 33.332Z" fill="#5C5CFF"/>
<path d="M0.900904 49.9727C-0.948798 52.7063 0.161023 55.44 3.21303 55.44C5.43267 55.44 6.08007 54.8933 6.26504 52.8157C6.81995 48.7699 3.12055 46.8016 0.900904 49.9727Z" fill="#5C5CFF"/>
<path d="M15.2966 49.9712C15.0162 50.8166 14.9227 52.4018 15.1097 53.4585C15.577 56.1005 20.8115 56.1005 21.2788 53.4585C21.9332 49.5485 16.5117 46.3781 15.2966 49.9712Z" fill="#5C5CFF"/>
<path d="M29.2121 49.8319C27.4536 51.9732 28.9191 55.44 31.5569 55.44C34.7809 55.44 36.4417 53.0948 35.074 50.4437C33.9016 47.9966 30.9707 47.6907 29.2121 49.8319Z" fill="#5C5CFF"/>
<path d="M44.3578 49.9727C42.5081 52.7063 43.6179 55.44 46.6699 55.44C48.8896 55.44 49.5369 54.8933 49.7219 52.8157C50.2768 48.7699 46.5774 46.8016 44.3578 49.9727Z" fill="#5C5CFF"/>
<path d="M58.6527 49.323C57.9118 49.7599 57.5414 51.3984 57.7266 52.8184C57.9118 54.8938 58.5601 55.44 60.7829 55.44C63.8392 55.44 64.9505 52.7092 63.0982 49.9784C61.8016 48.1215 60.4124 47.903 58.6527 49.323Z" fill="#5C5CFF"/>
<path d="M72.4989 49.8319C71.1311 51.9732 72.2709 55.44 74.3226 55.44C76.8301 55.44 78.1219 53.0948 77.0581 50.4437C76.1463 47.9966 73.8667 47.6907 72.4989 49.8319Z" fill="#5C5CFF"/>
<path d="M0.441571 65.6258C-0.715044 69.0626 0.441571 71.2799 3.42949 71.2799C6.03188 71.2799 6.32103 70.9473 6.32103 67.954C6.32103 65.1823 5.93549 64.628 3.62226 64.2954C1.98372 64.0736 0.827109 64.5171 0.441571 65.6258Z" fill="#5C5CFF"/>
<path d="M15.3674 65.7172C14.4171 68.3747 15.4624 70.9301 17.458 71.2367C20.0238 71.6455 21.9244 69.0902 21.1642 66.3305C20.499 63.8774 16.1276 63.4685 15.3674 65.7172Z" fill="#5C5CFF"/>
<path d="M29.0786 65.9729C27.4765 68.2473 29.0786 71.2799 32.0001 71.2799C34.9216 71.2799 36.5237 68.2473 34.9216 65.9729C34.1677 64.9981 32.9425 64.2399 32.0001 64.2399C31.0577 64.2399 29.8325 64.9981 29.0786 65.9729Z" fill="#5C5CFF"/>
<path d="M43.7711 65.1309C43.3706 65.7583 43.3706 67.4315 43.671 68.8955C44.1715 70.9869 44.8723 71.5097 47.0748 71.196C49.3775 70.9869 49.7779 70.3595 49.7779 67.7452C49.7779 65.1309 49.3775 64.5035 47.0748 64.2943C45.6732 64.0852 44.1715 64.5035 43.7711 65.1309Z" fill="#5C5CFF"/>
<path d="M58.0625 65.7261C57.0373 68.7752 58.1557 71.2799 60.3926 71.2799C63.3752 71.2799 64.9597 68.2307 63.3752 65.9439C61.7907 63.7659 58.7149 63.657 58.0625 65.7261Z" fill="#5C5CFF"/>
<path d="M72.4711 65.7832C71.7811 66.9412 71.7044 67.8887 72.3178 69.152C73.4678 71.6786 75.6913 71.9945 76.8414 69.889C78.9882 65.8885 74.7712 61.9933 72.4711 65.7832Z" fill="#5C5CFF"/>
<path d="M1.24892 81.7128C-0.641565 83.1766 -0.357992 86.0068 1.91059 87.4706C3.04488 88.2513 3.8956 88.1537 4.93537 87.2754C8.33825 84.3477 4.84085 78.9802 1.24892 81.7128Z" fill="#5C5CFF"/>
<path d="M16.0869 79.5094C14.3506 81.4721 14.8075 85.2943 16.818 86.0174C20.7474 87.4636 23.1234 81.4721 19.6508 79.3027C17.4576 77.9598 17.4576 77.9598 16.0869 79.5094Z" fill="#5C5CFF"/>
<path d="M29.8916 79.9103C27.8703 82.1317 27.9665 84.2473 30.1804 85.6224C34.0305 87.8438 37.3031 83.6126 34.5118 80.2276C32.4904 77.7947 31.8167 77.6889 29.8916 79.9103Z" fill="#5C5CFF"/>
<path d="M44.7058 81.7128C42.8153 83.1766 43.0989 86.0068 45.3675 87.4706C46.5018 88.2513 47.3525 88.1537 48.3922 87.2754C51.7951 84.3477 48.2977 78.9802 44.7058 81.7128Z" fill="#5C5CFF"/>
<path d="M59.2092 81.2678C57.0396 82.3238 57.2204 85.4919 59.4804 86.0953C61.7404 86.6988 64.0004 85.341 64.0004 83.3799C64.0004 81.5695 61.2884 80.3626 59.2092 81.2678Z" fill="#5C5CFF"/>
<path d="M72.0598 80.256C71.0821 81.224 70.3216 82.797 70.3216 83.644C70.3216 85.58 72.4944 88 74.2327 88C75.7537 88 79.013 84.733 79.013 83.16C79.013 82.555 78.2525 81.224 77.2747 80.256C76.4056 79.167 75.2105 78.32 74.6673 78.32C74.1241 78.32 72.929 79.167 72.0598 80.256Z" fill="#5C5CFF"/>
</svg>
