<svg width="77" height="76" viewBox="0 0 77 76" fill="none" xmlns="http://www.w3.org/2000/svg">
<path d="M0.992377 1.40704C-0.883729 3.75223 0.241935 6.09741 3.33751 6.09741C5.58884 6.09741 6.24547 5.62838 6.43308 3.84604C6.99592 0.375164 3.2437 -1.31337 0.992377 1.40704Z" fill="white"/>
<path d="M15.251 0.844201C14.5006 1.21943 14.1253 2.62654 14.3129 3.84604C14.5006 5.62838 15.1572 6.09741 17.4085 6.09741C20.5041 6.09741 21.6298 3.75223 19.7537 1.40704C18.4404 -0.18768 17.0333 -0.375295 15.251 0.844201Z" fill="white"/>
<path d="M28.196 1.40676C26.5075 3.37671 27.9146 6.56616 30.4474 6.56616C33.5429 6.56616 35.1376 4.40859 33.8244 1.9696C32.6987 -0.281775 29.8845 -0.563197 28.196 1.40676Z" fill="white"/>
<path d="M42.2668 1.40704C40.3907 3.75223 41.5163 6.09741 44.6119 6.09741C46.5818 6.09741 47.5199 5.62838 47.7075 4.40888C48.0827 2.43893 46.3942 -6.53267e-05 44.6119 -6.53267e-05C43.9553 -6.53267e-05 42.9234 0.656586 42.2668 1.40704Z" fill="white"/>
<path d="M56.5254 0.844201C55.775 1.21943 55.3997 2.62654 55.5874 3.84604C55.775 5.62838 56.4316 6.09741 58.6829 6.09741C61.7785 6.09741 62.9042 3.75223 61.0281 1.40704C59.7148 -0.18768 58.3077 -0.375295 56.5254 0.844201Z" fill="white"/>
<path d="M69.4704 1.40689C68.9076 2.15735 68.6262 3.56446 69.0014 4.69015C69.7519 7.03533 73.7855 7.22295 75.005 4.87776C76.8811 1.31308 72.097 -1.78256 69.4704 1.40689Z" fill="white"/>
<path d="M0.711325 14.6337C0.336103 15.0089 0.0546875 16.3222 0.0546875 17.4479C0.0546875 19.0427 0.711325 19.7931 2.49363 20.2621C5.40159 21.0126 6.90247 19.6993 6.43345 16.7913C6.24584 15.1965 5.4954 14.4461 3.8069 14.2585C2.49363 14.0709 1.08655 14.2585 0.711325 14.6337Z" fill="white"/>
<path d="M14.5003 15.3842C13.5623 17.8232 14.5941 20.1684 16.5641 20.4498C19.0968 20.825 20.9729 18.4799 20.2225 15.9471C19.5658 13.6957 15.2508 13.3205 14.5003 15.3842Z" fill="white"/>
<path d="M28.1024 15.5719C26.6016 17.4481 28.0086 20.0747 30.8228 20.4499C33.3555 20.8251 35.4193 17.3543 33.7308 15.3843C32.3237 13.602 29.6971 13.6958 28.1024 15.5719Z" fill="white"/>
<path d="M41.7978 15.009C41.4226 15.5719 41.4226 17.0728 41.704 18.3861C42.173 20.2623 42.8297 20.7313 44.8934 20.4499C47.0509 20.2623 47.4261 19.6994 47.4261 17.3542C47.4261 15.009 47.0509 14.4462 44.8934 14.2586C43.5801 14.071 42.173 14.4462 41.7978 15.009Z" fill="white"/>
<path d="M55.7748 15.3843C54.7429 18.0109 55.8686 20.1685 58.1199 20.1685C61.1217 20.1685 62.7164 17.5419 61.1217 15.5719C59.527 13.6958 56.4314 13.6019 55.7748 15.3843Z" fill="white"/>
<path d="M69.3766 15.5718C68.5324 16.6037 68.4386 17.4479 69.189 18.5736C70.5961 20.825 73.3165 21.1064 74.7235 19.2303C77.3501 15.6656 72.1908 12.1947 69.3766 15.5718Z" fill="white"/>
<path d="M1.46159 28.5173C-0.414517 29.9244 -0.133101 32.6448 2.11823 34.0519C3.24389 34.8024 4.08814 34.7086 5.12 33.8643C8.49699 31.0501 5.02619 25.8907 1.46159 28.5173Z" fill="white"/>
<path d="M15.2509 28.3296C13.4686 30.112 13.9376 33.5829 16.0014 34.2395C20.035 35.5528 22.4739 30.112 18.9093 28.142C16.658 26.9225 16.658 26.9225 15.2509 28.3296Z" fill="white"/>
<path d="M28.7591 28.7048C26.2264 31.2376 27.6334 34.7085 31.1981 34.7085C32.6051 34.7085 34.7627 32.1757 34.7627 30.581C34.7627 29.8305 31.8547 27.2039 31.0104 27.2039C30.5414 27.2039 29.5096 27.8606 28.7591 28.7048Z" fill="white"/>
<path d="M43.0174 28.2358C40.9537 29.3615 40.8599 32.1757 42.8298 33.8642C45.7378 36.3032 49.3962 31.519 46.9573 28.611C45.644 27.0163 45.175 26.9225 43.0174 28.2358Z" fill="white"/>
<path d="M56.5253 28.3296C54.743 30.112 55.2121 33.5829 57.2758 34.2395C61.3094 35.5528 63.7483 30.112 60.1837 28.142C57.9324 26.9225 57.9324 26.9225 56.5253 28.3296Z" fill="white"/>
<path d="M70.0333 28.7048C68.1572 30.4871 68.1572 32.2695 69.9395 33.7704C71.5342 35.0837 74.7236 34.2394 75.474 32.1757C76.0368 30.7685 73.6917 27.2039 72.1908 27.2039C71.8156 27.2039 70.7837 27.8605 70.0333 28.7048Z" fill="white"/>
<path d="M0.992377 42.6822C-0.883729 45.0274 0.241935 47.3726 3.33751 47.3726C5.58884 47.3726 6.24547 46.9035 6.43308 45.1212C6.99592 41.6503 3.2437 39.9618 0.992377 42.6822Z" fill="white"/>
<path d="M14.5005 42.5883C14.2191 43.3388 14.1253 44.7459 14.3129 45.684C14.782 48.0292 20.0351 48.0292 20.5041 45.684C21.1607 42.2131 15.72 39.3989 14.5005 42.5883Z" fill="white"/>
<path d="M28.196 42.6821C26.5075 44.6521 27.9146 47.8416 30.4474 47.8416C33.5429 47.8416 35.1376 45.684 33.8244 43.245C32.6987 40.9936 29.8845 40.7122 28.196 42.6821Z" fill="white"/>
<path d="M42.2668 42.6822C40.3907 45.0274 41.5163 47.3726 44.6119 47.3726C46.8633 47.3726 47.5199 46.9035 47.7075 45.1212C48.2703 41.6503 44.5181 39.9618 42.2668 42.6822Z" fill="white"/>
<path d="M56.5254 42.1193C55.775 42.4946 55.3997 43.9017 55.5874 45.1212C55.775 46.9035 56.4316 47.3726 58.6829 47.3726C61.7785 47.3726 62.9042 45.0274 61.0281 42.6822C59.7148 41.0875 58.3077 40.8999 56.5254 42.1193Z" fill="white"/>
<path d="M69.4704 42.6821C67.782 44.6521 69.189 47.8416 71.7218 47.8416C74.8174 47.8416 76.412 45.684 75.0988 43.245C73.9731 40.9936 71.1589 40.7122 69.4704 42.6821Z" fill="white"/>
<path d="M0.429755 56.6594C-0.695909 59.5675 0.429754 61.4436 3.33772 61.4436C5.87046 61.4436 6.15188 61.1622 6.15188 58.6294C6.15188 56.2842 5.77666 55.8152 3.52533 55.5337C1.93064 55.3461 0.804976 55.7214 0.429755 56.6594Z" fill="white"/>
<path d="M14.5003 56.6594C13.5623 59.0984 14.5941 61.4435 16.5641 61.725C19.0968 62.1002 20.9729 59.755 20.2225 57.2222C19.5658 54.9708 15.2508 54.5956 14.5003 56.6594Z" fill="white"/>
<path d="M28.1023 56.847C26.5076 58.817 28.1023 61.4436 31.0103 61.4436C33.9183 61.4436 35.5129 58.817 33.9183 56.847C33.1678 56.0028 31.9483 55.3461 31.0103 55.3461C30.0722 55.3461 28.8528 56.0028 28.1023 56.847Z" fill="white"/>
<path d="M41.7978 56.2842C41.4226 56.847 41.4226 58.3479 41.704 59.6613C42.173 61.5374 42.8297 62.0064 44.8934 61.725C47.0509 61.5374 47.4261 60.9746 47.4261 58.6294C47.4261 56.2842 47.0509 55.7213 44.8934 55.5337C43.5801 55.3461 42.173 55.7213 41.7978 56.2842Z" fill="white"/>
<path d="M55.7748 56.6594C54.7429 59.286 55.8686 61.4436 58.1199 61.4436C61.1217 61.4436 62.7164 58.817 61.1217 56.847C59.527 54.9709 56.4314 54.8771 55.7748 56.6594Z" fill="white"/>
<path d="M69.3766 56.8469C68.5324 57.8788 68.4386 58.7231 69.189 59.8488C70.5961 62.1001 73.3165 62.3816 74.7235 60.5054C77.3501 56.9407 72.1908 53.4699 69.3766 56.8469Z" fill="white"/>
<path d="M1.46159 69.7924C-0.414517 71.1996 -0.133101 73.92 2.11823 75.3271C3.24389 76.0775 4.08814 75.9837 5.12 75.1395C8.49699 72.3252 5.02619 67.1658 1.46159 69.7924Z" fill="white"/>
<path d="M15.2509 69.6048C13.4686 71.3871 13.9376 74.858 16.0014 75.5147C20.035 76.828 22.4739 71.3871 18.9093 69.4172C16.658 68.1977 16.658 68.1977 15.2509 69.6048Z" fill="white"/>
<path d="M28.7589 69.9802C26.789 71.9502 26.8828 73.8263 29.0403 75.0458C32.7925 77.0158 35.9819 73.2635 33.2616 70.2616C31.2917 68.1041 30.635 68.0103 28.7589 69.9802Z" fill="white"/>
<path d="M42.736 69.7924C40.8599 71.1996 41.1413 73.92 43.3926 75.3271C44.5183 76.0775 45.3626 75.9837 46.3944 75.1395C49.7714 72.3252 46.3006 67.1658 42.736 69.7924Z" fill="white"/>
<path d="M56.9942 69.511C54.7429 70.8243 54.9305 74.7642 57.2756 75.5147C59.6207 76.2652 61.9659 74.5766 61.9659 72.1376C61.9659 69.8863 59.1517 68.3853 56.9942 69.511Z" fill="white"/>
<path d="M70.0331 69.98C69.1889 70.7304 68.5322 71.9499 68.5322 72.6066C68.5322 74.1075 70.4083 75.9836 71.9092 75.9836C73.2225 75.9836 76.0367 73.4508 76.0367 72.2313C76.0367 71.7623 75.38 70.7304 74.5358 69.98C73.7853 69.1357 72.7535 68.4791 72.2844 68.4791C71.8154 68.4791 70.7836 69.1357 70.0331 69.98Z" fill="white"/>
</svg>
