<svg width="55" height="55" viewBox="0 0 55 55" fill="none" xmlns="http://www.w3.org/2000/svg">
<path d="M0.712624 0.893563C-0.750509 2.44678 0.127371 4 2.54154 4C4.2973 4 4.8094 3.68936 4.95571 2.50891C5.39465 0.210147 2.46838 -0.90817 0.712624 0.893563Z" fill="white"/>
<path d="M10.7699 0.524437C10.1839 0.772692 9.89082 1.70365 10.0373 2.51047C10.1839 3.68968 10.6967 4 12.4549 4C14.8725 4 15.7516 2.44841 14.2864 0.896819C13.2607 -0.158263 12.1619 -0.28239 10.7699 0.524437Z" fill="white"/>
<path d="M20.5397 1.017C19.3033 2.53778 20.3337 5 22.1884 5C24.4552 5 25.623 3.33438 24.6613 1.45151C23.837 -0.286532 21.7762 -0.503787 20.5397 1.017Z" fill="white"/>
<path d="M30.7131 0.923077C29.249 2.46154 30.1275 4 32.5431 4C34.0804 4 34.8124 3.69231 34.9588 2.89231C35.2516 1.6 33.934 0 32.5431 0C32.0307 0 31.2255 0.430769 30.7131 0.923077Z" fill="white"/>
<path d="M40.7699 0.524437C40.1839 0.772692 39.8908 1.70365 40.0373 2.51047C40.1839 3.68968 40.6967 4 42.4549 4C44.8725 4 45.7516 2.44841 44.2864 0.896819C43.2607 -0.158263 42.1619 -0.28239 40.7699 0.524437Z" fill="white"/>
<path d="M50.4848 1.02871C50.0584 1.60867 49.8452 2.6961 50.1294 3.56604C50.698 5.37843 53.7539 5.52342 54.6778 3.71103C56.0992 0.95621 52.4747 -1.43614 50.4848 1.02871Z" fill="white"/>
<path d="M0.507959 10.3571C0.217697 10.6556 0 11.7004 0 12.596C0 13.8647 0.507959 14.4617 1.8867 14.8349C4.13623 15.4319 5.29728 14.3871 4.93446 12.0736C4.78932 10.8049 4.2088 10.2078 2.90262 10.0586C1.8867 9.9093 0.798221 10.0586 0.507959 10.3571Z" fill="white"/>
<path d="M10.2808 11.0492C9.52913 12.9366 10.356 14.7515 11.9345 14.9693C13.9641 15.2597 15.4675 13.4448 14.8661 11.4848C14.3399 9.7425 10.8822 9.45212 10.2808 11.0492Z" fill="white"/>
<path d="M20.4449 11.1514C19.3498 12.6231 20.3765 14.6836 22.4299 14.9779C24.278 15.2723 25.7839 12.5496 24.5518 11.0042C23.5251 9.60606 21.6086 9.67965 20.4449 11.1514Z" fill="white"/>
<path d="M30.1988 10.6328C29.9454 11.0784 29.9454 12.2667 30.1355 13.3065C30.4522 14.7919 30.8957 15.1632 32.2895 14.9404C33.7466 14.7919 34 14.3462 34 12.4895C34 10.6328 33.7466 10.1872 32.2895 10.0386C31.4025 9.8901 30.4522 10.1872 30.1988 10.6328Z" fill="white"/>
<path d="M40.3031 11.0555C39.4921 13.2211 40.3768 15 42.1462 15C44.5054 15 45.7588 12.8344 44.5054 11.2102C43.2521 9.66329 40.8191 9.58595 40.3031 11.0555Z" fill="white"/>
<path d="M50.5146 11.0961C49.8908 11.9185 49.8215 12.5915 50.376 13.4887C51.4157 15.2832 53.4257 15.5075 54.4654 14.0121C56.4061 11.1708 52.594 8.40436 50.5146 11.0961Z" fill="white"/>
<path d="M0.98791 20.5346C-0.507484 21.5743 -0.283175 23.5843 1.5113 24.624C2.40854 25.1785 3.08146 25.1092 3.90393 24.4854C6.59564 22.406 3.82916 18.5939 0.98791 20.5346Z" fill="white"/>
<path d="M10.8499 20.7509C9.47651 21.99 9.83794 24.403 11.4282 24.8595C14.5365 25.7725 16.4159 21.99 13.6691 20.6204C11.9342 19.7726 11.9342 19.7726 10.8499 20.7509Z" fill="white"/>
<path d="M20.8832 21C19.1464 22.6875 20.1113 25 22.5556 25C23.5205 25 25 23.3125 25 22.25C25 21.75 23.0059 20 22.427 20C22.1054 20 21.3978 20.4375 20.8832 21Z" fill="white"/>
<path d="M31.267 20.6312C29.6412 21.4119 29.5673 23.3638 31.1192 24.535C33.4102 26.2266 36.2923 22.9084 34.3709 20.8914C33.3363 19.7853 32.9668 19.7203 31.267 20.6312Z" fill="white"/>
<path d="M40.8499 20.7509C39.4765 21.99 39.8379 24.403 41.4282 24.8595C44.5365 25.7725 46.4159 21.99 43.6691 20.6204C41.9342 19.7726 41.9342 19.7726 40.8499 20.7509Z" fill="white"/>
<path d="M51.0216 21.0429C49.6709 22.2815 49.6709 23.52 50.9541 24.5629C52.1021 25.4755 54.3982 24.8888 54.9385 23.4548C55.3437 22.477 53.6554 20 52.5748 20C52.3047 20 51.5618 20.4563 51.0216 21.0429Z" fill="white"/>
<path d="M0.712624 30.8936C-0.750509 32.4468 0.127371 34 2.54154 34C4.2973 34 4.8094 33.6894 4.95571 32.5089C5.39465 30.2101 2.46838 29.0918 0.712624 30.8936Z" fill="white"/>
<path d="M10.2248 30.8927C10.003 31.3731 9.92906 32.2737 10.0769 32.8742C10.4466 34.3753 14.5871 34.3753 14.9568 32.8742C15.4744 30.6525 11.186 28.8512 10.2248 30.8927Z" fill="white"/>
<path d="M20.5397 31.017C19.3033 32.5378 20.3337 35 22.1884 35C24.4552 35 25.623 33.3344 24.6613 31.4515C23.837 29.7135 21.7762 29.4962 20.5397 31.017Z" fill="white"/>
<path d="M30.7126 30.8936C29.2495 32.4468 30.1274 34 32.5415 34C34.2973 34 34.8094 33.6894 34.9557 32.5089C35.3947 30.2101 32.4684 29.0918 30.7126 30.8936Z" fill="white"/>
<path d="M40.7699 30.5244C40.1839 30.7727 39.8908 31.7036 40.0373 32.5105C40.1839 33.6897 40.6967 34 42.4549 34C44.8725 34 45.7516 32.4484 44.2864 30.8968C43.2607 29.8417 42.1619 29.7176 40.7699 30.5244Z" fill="white"/>
<path d="M50.5397 31.017C49.3033 32.5378 50.3337 35 52.1884 35C54.4552 35 55.623 33.3344 54.6613 31.4515C53.837 29.7135 51.7762 29.4962 50.5397 31.017Z" fill="white"/>
<path d="M0.27943 40.7874C-0.452486 42.7402 0.27943 44 2.17021 44C3.81702 44 4 43.811 4 42.1102C4 40.5354 3.75603 40.2205 2.2922 40.0315C1.25532 39.9055 0.523402 40.1575 0.27943 40.7874Z" fill="white"/>
<path d="M10.2808 41.0492C9.52913 42.9366 10.356 44.7515 11.9345 44.9693C13.9641 45.2597 15.4675 43.4448 14.8661 41.4848C14.3399 39.7425 10.8822 39.4521 10.2808 41.0492Z" fill="white"/>
<path d="M20.4458 40.9846C19.3193 42.2769 20.4458 44 22.5 44C24.5542 44 25.6807 42.2769 24.5542 40.9846C24.0241 40.4308 23.1626 40 22.5 40C21.8374 40 20.9759 40.4308 20.4458 40.9846Z" fill="white"/>
<path d="M30.1988 40.6328C29.9454 41.0784 29.9454 42.2667 30.1355 43.3065C30.4522 44.7919 30.8957 45.1632 32.2895 44.9404C33.7466 44.7919 34 44.3462 34 42.4895C34 40.6328 33.7466 40.1872 32.2895 40.0386C31.4025 39.8901 30.4522 40.1872 30.1988 40.6328Z" fill="white"/>
<path d="M40.3031 40.8444C39.4921 42.5769 40.3768 44 42.1462 44C44.5054 44 45.7588 42.2675 44.5054 40.9681C43.2521 39.7306 40.8191 39.6688 40.3031 40.8444Z" fill="white"/>
<path d="M50.5146 41.0961C49.8908 41.9185 49.8215 42.5915 50.376 43.4887C51.4157 45.2832 53.4257 45.5075 54.4654 44.0121C56.4061 41.1708 52.594 38.4044 50.5146 41.0961Z" fill="white"/>
<path d="M0.98791 50.5346C-0.507484 51.5743 -0.283175 53.5843 1.5113 54.624C2.40854 55.1785 3.08146 55.1092 3.90393 54.4854C6.59564 52.406 3.82916 48.5939 0.98791 50.5346Z" fill="white"/>
<path d="M10.8499 50.7509C9.47651 51.99 9.83794 54.403 11.4282 54.8595C14.5365 55.7725 16.4159 51.99 13.6691 50.6204C11.9342 49.7726 11.9342 49.7726 10.8499 50.7509Z" fill="white"/>
<path d="M21.0175 51.004C19.5962 52.4064 19.6639 53.742 21.2205 54.6101C23.9276 56.0125 26.2286 53.3413 24.266 51.2043C22.8448 49.6684 22.371 49.6016 21.0175 51.004Z" fill="white"/>
<path d="M30.9879 50.5346C29.4925 51.5743 29.7168 53.5843 31.5113 54.624C32.4085 55.1785 33.0815 55.1092 33.9039 54.4854C36.5956 52.406 33.8292 48.5939 30.9879 50.5346Z" fill="white"/>
<path d="M41.2101 50.2915C39.4939 51.2915 39.6369 54.2916 41.4246 54.863C43.2123 55.4345 45 54.1487 45 52.2915C45 50.5772 42.8548 49.4343 41.2101 50.2915Z" fill="white"/>
<path d="M51 51C50.4375 51.5 50 52.3125 50 52.75C50 53.75 51.25 55 52.25 55C53.125 55 55 53.3125 55 52.5C55 52.1875 54.5625 51.5 54 51C53.5 50.4375 52.8125 50 52.5 50C52.1875 50 51.5 50.4375 51 51Z" fill="white"/>
</svg>
