<svg width="20" height="129" viewBox="0 0 20 129" fill="none" xmlns="http://www.w3.org/2000/svg">
<path d="M19.1177 0.848219C17.6518 -1.13096 16.6135 0.353425 15.8195 5.30137C15.0255 10.3483 13.1322 13.8118 9.34543 16.8796C4.15391 21.2338 1.833 24.4004 0.733625 29.0515C-1.15975 37.2651 1.34439 43.9943 8.3682 49.7339C12.6436 53.2964 15.0255 56.859 15.6974 61.0152C16.98 68.4371 15.2699 72.7913 8.55143 79.3226C1.16116 86.3487 -1.0376 91.7914 0.428242 99.1144C1.34439 103.469 4.09284 107.526 9.46758 112.573C14.1705 116.927 15.0255 118.609 16.0639 125.042C16.4914 127.911 16.98 129 17.8351 129C19.7895 129 20.3392 126.328 19.4231 121.083C18.4458 115.245 16.0028 111.187 10.567 106.239C5.25329 101.489 4.15391 99.6092 4.15391 95.4529C4.15391 91.4946 5.80298 89.0206 12.0939 83.0831C17.7129 77.7393 19.7284 72.8903 19.7284 64.6767C19.7284 56.2652 17.774 51.7131 11.361 45.4787C5.25329 39.5412 4.15391 37.7599 4.15391 34.2963C4.15391 29.7442 5.07006 28.0619 10.0783 23.3119C15.4531 18.265 18.3237 13.8118 19.362 8.86389C20.2781 4.31178 20.2171 2.3326 19.1177 0.848219Z" fill="#5C5CFF"/>
</svg>
