<?xml version="1.0" standalone="no"?>
<!DOCTYPE svg PUBLIC "-//W3C//DTD SVG 20010904//EN"
 "http://www.w3.org/TR/2001/REC-SVG-20010904/DTD/svg10.dtd">
<svg version="1.0" xmlns="http://www.w3.org/2000/svg"
 width="816.000000pt" height="816.000000pt" viewBox="0 0 816.000000 816.000000"
 preserveAspectRatio="xMidYMid meet">
<metadata>
Created by potrace 1.14, written by Peter Selinger 2001-2017
</metadata>
<g transform="translate(0.000000,816.000000) scale(0.100000,-0.100000)"
fill="#000000" stroke="none">
<path d="M3815 8140 c-92 -21 -145 -40 -218 -77 -59 -29 -140 -83 -145 -95 -2
-4 -8 -8 -13 -8 -13 0 -143 -130 -199 -199 -25 -30 -63 -75 -84 -100 -22 -25
-47 -55 -55 -65 -9 -10 -23 -26 -31 -35 -17 -19 -108 -126 -130 -155 -8 -10
-22 -26 -31 -35 -8 -9 -37 -43 -65 -76 -27 -32 -56 -67 -64 -76 -8 -9 -33 -38
-55 -64 -22 -26 -45 -53 -50 -59 -6 -6 -48 -56 -95 -111 -46 -55 -94 -111
-107 -125 -12 -14 -39 -45 -60 -71 -41 -48 -123 -146 -160 -188 -30 -35 -37
-43 -102 -120 -30 -36 -63 -73 -73 -82 -10 -9 -18 -19 -18 -23 0 -4 -10 -17
-22 -30 -22 -21 -57 -62 -141 -163 -19 -23 -41 -49 -48 -56 -8 -8 -30 -34 -49
-57 -19 -23 -40 -47 -45 -54 -6 -6 -46 -54 -90 -106 -44 -52 -82 -97 -85 -100
-3 -3 -34 -39 -69 -80 -35 -41 -83 -97 -106 -125 -24 -27 -76 -88 -115 -135
-40 -47 -84 -99 -99 -115 -33 -38 -122 -142 -147 -173 -10 -13 -29 -36 -42
-50 -47 -55 -145 -210 -189 -300 -40 -84 -128 -322 -118 -322 3 0 0 -11 -5
-24 -5 -13 -12 -43 -15 -67 -4 -24 -8 -46 -10 -49 -26 -42 -25 -525 1 -612 6
-20 13 -52 20 -98 22 -132 138 -402 233 -543 41 -61 186 -248 226 -293 5 -6
24 -29 40 -50 17 -21 38 -46 48 -56 9 -10 17 -21 17 -24 0 -4 15 -24 33 -44
17 -21 41 -49 52 -63 11 -14 32 -40 48 -58 15 -19 79 -99 143 -179 63 -80 128
-160 145 -178 16 -18 29 -37 29 -42 0 -5 6 -13 12 -17 7 -4 29 -28 48 -53 44
-58 60 -77 85 -106 11 -12 29 -35 40 -50 11 -15 42 -55 70 -88 27 -34 54 -67
60 -74 5 -7 17 -21 25 -31 9 -9 29 -35 45 -56 17 -22 32 -42 35 -45 3 -3 27
-32 54 -65 26 -33 60 -76 75 -95 16 -19 72 -89 125 -155 52 -66 101 -127 108
-135 7 -8 49 -59 93 -115 44 -55 86 -107 92 -115 7 -8 36 -45 65 -81 217 -271
262 -324 333 -394 101 -100 148 -138 249 -206 94 -62 234 -134 301 -155 6 -2
37 -13 70 -25 33 -11 69 -23 80 -24 11 -2 52 -11 90 -20 99 -23 355 -28 465
-9 94 16 256 59 310 83 19 8 37 15 40 16 24 5 176 88 244 134 153 103 262 205
415 391 56 69 110 134 119 145 9 11 37 45 62 75 25 30 47 57 50 60 3 3 34 41
69 85 36 44 71 87 78 95 16 17 41 48 86 104 49 60 131 160 142 173 5 7 15 18
20 25 21 27 160 194 172 206 7 7 13 16 13 20 0 4 15 23 33 42 18 19 93 109
167 200 74 91 137 167 140 170 3 3 34 41 69 85 36 44 72 88 80 97 9 10 25 29
36 43 11 14 28 36 39 48 10 12 44 54 75 92 31 39 58 72 61 75 3 3 24 28 45 55
22 28 42 52 45 55 3 3 25 30 50 60 25 30 54 66 65 79 11 14 34 41 50 60 17 20
59 72 94 116 34 44 69 88 77 98 8 9 14 20 14 23 0 3 8 18 19 32 66 96 143 285
180 444 29 124 35 184 36 348 0 204 -5 242 -69 490 -9 33 -40 109 -72 176 -19
39 -34 74 -34 78 0 4 -5 12 -10 19 -6 7 -31 43 -56 82 -25 38 -56 81 -67 95
-12 15 -33 41 -47 60 -14 18 -63 81 -110 139 -105 132 -88 110 -171 216 -39
50 -78 99 -87 110 -9 12 -39 50 -67 85 -27 36 -54 70 -60 76 -5 7 -19 24 -30
40 -11 15 -25 32 -31 38 -5 6 -34 42 -63 80 -30 38 -60 76 -67 85 -17 21 -180
229 -207 264 -21 27 -38 48 -75 92 -9 11 -37 47 -62 80 -51 67 -70 92 -85 109
-6 6 -41 50 -78 98 -116 149 -224 229 -347 257 -160 37 -330 -13 -453 -133
-60 -59 -74 -74 -162 -181 -22 -27 -56 -67 -75 -90 -43 -51 -110 -131 -130
-155 -8 -10 -31 -37 -50 -60 -19 -23 -42 -50 -50 -60 -48 -59 -87 -105 -102
-121 -10 -11 -18 -21 -18 -24 0 -2 -10 -15 -22 -27 -13 -13 -41 -46 -63 -73
-22 -27 -56 -68 -75 -91 -19 -22 -53 -63 -75 -89 -22 -27 -49 -59 -60 -71 -11
-12 -27 -32 -35 -44 -8 -12 -26 -34 -40 -49 -14 -14 -45 -51 -70 -81 -67 -82
-75 -91 -116 -140 -22 -25 -55 -65 -74 -89 -19 -24 -40 -48 -45 -55 -6 -6 -57
-67 -114 -136 -57 -69 -117 -141 -135 -161 -17 -19 -46 -54 -64 -77 -19 -22
-43 -51 -54 -64 -11 -13 -32 -38 -47 -57 -14 -19 -35 -44 -46 -56 -34 -35 -79
-96 -100 -134 -11 -20 -23 -38 -27 -41 -7 -6 -58 -136 -64 -165 -2 -11 -6 -33
-10 -48 -22 -105 -20 -231 7 -357 22 -100 106 -262 171 -331 7 -8 26 -32 42
-54 17 -22 33 -42 36 -45 4 -3 35 -41 70 -85 34 -44 66 -81 71 -83 5 -2 9 -8
9 -14 0 -15 94 -104 143 -135 142 -90 331 -96 481 -15 53 28 151 120 226 211
25 30 54 65 65 77 11 12 39 44 61 71 95 111 418 490 443 518 14 17 50 58 79
91 100 118 204 131 297 38 46 -46 63 -87 69 -168 7 -81 -19 -139 -104 -233
-25 -28 -70 -79 -100 -113 -30 -35 -64 -72 -75 -84 -11 -12 -51 -57 -90 -101
-38 -44 -72 -82 -75 -85 -3 -3 -59 -66 -124 -140 -66 -74 -127 -142 -135 -151
-13 -13 -76 -83 -151 -169 -92 -104 -140 -158 -167 -187 -18 -18 -33 -35 -33
-38 0 -2 -12 -17 -27 -33 -16 -16 -59 -64 -98 -107 -180 -203 -201 -219 -278
-214 -71 4 -107 30 -197 139 -19 23 -39 49 -44 58 -5 8 -19 27 -31 41 -13 14
-66 80 -119 146 -53 66 -104 129 -114 141 -9 11 -30 38 -47 59 -29 37 -80 100
-113 140 -10 11 -60 74 -112 140 -52 66 -99 125 -105 131 -5 6 -23 28 -40 49
-39 51 -291 365 -311 389 -68 81 -151 196 -160 221 -17 50 -16 128 2 180 14
43 44 85 133 192 10 12 33 41 52 65 18 23 36 45 39 48 4 3 35 41 70 85 34 44
66 82 69 85 4 3 18 21 31 40 13 19 29 40 36 45 9 8 98 118 194 238 8 11 20 24
25 31 6 6 28 34 50 61 22 28 42 52 45 55 3 3 21 25 40 50 19 25 39 50 45 56 5
6 24 28 40 49 17 21 40 50 52 64 12 14 66 80 119 146 54 66 101 122 106 123 4
2 8 10 8 17 0 7 4 15 9 17 4 2 59 66 121 143 61 77 116 142 121 143 5 2 9 10
9 17 0 7 3 15 8 17 7 3 89 101 132 158 14 18 31 39 38 46 7 7 27 33 46 57 34
44 56 71 91 111 11 13 34 41 51 62 17 22 66 82 108 134 43 52 89 110 104 129
15 19 35 42 45 52 9 11 17 24 17 29 0 6 4 10 8 10 4 0 24 21 44 48 20 26 45
56 55 67 10 11 36 44 58 73 21 28 43 52 47 52 4 0 8 6 8 14 0 8 3 16 8 18 4 2
28 28 52 58 25 30 47 57 50 60 38 38 92 126 103 169 15 57 8 134 -15 181 -10
21 -82 117 -139 185 -10 11 -87 106 -172 210 -85 105 -183 217 -218 250 -122
116 -288 206 -425 231 -15 3 -32 8 -37 11 -6 3 -65 7 -131 9 -89 2 -142 -3
-201 -16z"/>
</g>
</svg>
